<?xml version="1.0" standalone="no"?>
<!DOCTYPE svg PUBLIC "-//W3C//DTD SVG 1.1//EN" "http://www.w3.org/Graphics/SVG/1.1/DTD/svg11.dtd" >
<svg>
<metadata>
Created by FontForge 20090914 at Wed Apr 10 09:39:42 2013
 By www-data
Copyright &#194;&#169; 1993 Bigelow &#38; Holmes Inc. All rights reserved. Pat. Des. 289,420. Pats. Pend.
</metadata>
<defs>
<font id="LucidaSansUnicode" horiz-adv-x="1628" >
  <font-face 
    font-family="Lucida Sans Unicode"
    font-weight="400"
    font-stretch="normal"
    units-per-em="2048"
    panose-1="2 11 6 2 3 5 4 2 2 4"
    ascent="1638"
    descent="-410"
    x-height="1086"
    cap-height="1480"
    bbox="-1258 -901 2835 2344"
    underline-thickness="102"
    underline-position="-154"
    unicode-range="U+0020-U+FEFF"
  />
<missing-glyph horiz-adv-x="1536" 
d="M256 0v1280h1024v-1280h-1024zM320 64h896v1152h-896v-1152z" />
    <glyph glyph-name=".notdef" horiz-adv-x="1536" 
d="M256 0v1280h1024v-1280h-1024zM320 64h896v1152h-896v-1152z" />
    <glyph glyph-name="space" unicode=" " horiz-adv-x="648" 
 />
    <glyph glyph-name="exclam" unicode="!" horiz-adv-x="648" 
d="M225 0v197h197v-197h-197zM250 395l-25 789v296h197v-296l-24 -789h-148z" />
    <glyph glyph-name="quotedbl" unicode="&#x22;" horiz-adv-x="765" 
d="M136 1086l-25 493h197l-24 -493h-148zM481 1086l-25 493h198l-25 -493h-148z" />
    <glyph glyph-name="numbersign" unicode="#" horiz-adv-x="1295" 
d="M203 0l111 444h-299l25 124h305l87 345h-324l25 123h329l112 444h127l-111 -444h263l111 444h128l-111 -444h299l-24 -123h-306l-87 -345h324l-25 -124h-329l-111 -444h-128l111 444h-263l-111 -444h-128zM473 568h263l87 345h-264z" />
    <glyph glyph-name="dollar" unicode="$" horiz-adv-x="1295" 
d="M611 -123l-0.000976562 123c-117.333 0 -249 27.667 -395 83v170c150.667 -70 282.334 -105 395.001 -105v531c-135.333 82.667 -227.833 155.667 -277.5 219s-74.5 139 -74.5 227c0 98.667 32.167 180.5 96.5 245.5s149.5 101.5 255.5 109.5v124h98v-124
c97.333 0 204.333 -22.333 321 -67v-161c-128 55.333 -235 86.333 -321 93v-527l81 -49c102.667 -62 172.5 -117.833 209.5 -167.5s55.5 -112.167 55.5 -187.5c0 -104.667 -31 -194.167 -93 -268.5s-146.333 -122.833 -253 -145.5v-123h-98zM708.999 160
c115.333 41.333 173 116.335 173 225.002c0 47.333 -11 86.166 -33 116.499s-68.667 70.166 -140 119.499v-461zM610.999 883.002v456c-119.333 -37.333 -179 -107.333 -179 -210c0 -50.667 12.333 -93.167 37 -127.5s72 -73.833 142 -118.5z" />
    <glyph glyph-name="percent" unicode="%" horiz-adv-x="1369" 
d="M24 -37l1166 1554h154l-1165 -1554h-155zM327 740c-96.667 0 -173.334 33.333 -230.001 100s-85 156.667 -85 270c0 114 28.333 204.167 85 270.5s133.334 99.5 230.001 99.5c96 0 172.333 -33.167 229 -99.5s85 -156.5 85 -270.5c0 -113.333 -28.333 -203.333 -85 -270
s-133 -100 -229 -100zM327 839c50.667 0 91 24.5 121 73.5s45 114.833 45 197.5c0 83.333 -15 149.5 -45 198.5s-70.333 73.5 -121 73.5c-51.333 0 -92 -24.5 -122 -73.5s-45 -115.167 -45 -198.5c0 -82.667 15 -148.5 45 -197.5s70.667 -73.5 122 -73.5zM1042 0
c-96.667 0 -173.167 33.333 -229.5 100s-84.5 156.667 -84.5 270s28.167 203.333 84.5 270s132.833 100 229.5 100s173.334 -33.333 230.001 -100s85 -156.667 85 -270s-28.333 -203.333 -85 -270s-133.334 -100 -230.001 -100zM1042 99c51.333 0 92 24.333 122 73
s45 114.667 45 198s-15 149.5 -45 198.5s-70.667 73.5 -122 73.5c-50.667 0 -91 -24.5 -121 -73.5s-45 -115.167 -45 -198.5s15 -149.333 45 -198s70.333 -73 121 -73z" />
    <glyph glyph-name="ampersand" unicode="&#x26;" horiz-adv-x="1428" 
d="M1061 0l-72.999 88.001c-109.333 -83.333 -237 -125 -383 -125c-154.667 0 -281.834 44.833 -381.501 134.5s-149.5 203.834 -149.5 342.501c0 228 120.333 382.667 361 464c-66.667 120.667 -100 221 -100 301c0 87.333 34.667 161.166 104 221.499s154 90.5 254 90.5
c96 0 175.167 -28.167 237.5 -84.5s93.5 -127.833 93.5 -214.5c0 -148 -108.333 -276.667 -325 -386c99.333 -176 215 -340.333 347 -493c60.667 88.667 91 214 91 376l-1 72h196c0 -218.667 -65.333 -407.334 -196 -566.001c60 -76 128.333 -149.667 205 -221h-280z
M902.001 202.001c-140 172 -273.333 367 -400 585c-154 -61.333 -231 -161 -231 -299c0 -104.667 35.5 -193.667 106.5 -267s157.5 -110 259.5 -110c92.667 0 181 30.333 265 91zM627.001 957.001c141.333 64.667 212 150.667 212 258c0 46.667 -14.167 84 -42.5 112
s-65.5 42 -111.5 42s-82.833 -14.167 -110.5 -42.5s-41.5 -65.833 -41.5 -112.5c0 -68 31.333 -153.667 94 -257z" />
    <glyph glyph-name="quotesingle" unicode="'" horiz-adv-x="469" 
d="M160 1036l-49 543h247l-50 -543h-148z" />
    <glyph glyph-name="parenleft" unicode="(" horiz-adv-x="666" 
d="M592 -160v-135.997c-144 98 -258.167 231.167 -342.5 399.5s-126.5 347.833 -126.5 538.5c0 190 42.167 369.167 126.5 537.5s198.5 301.5 342.5 399.5v-136c-98 -106.667 -167.833 -221.334 -209.5 -344.001s-62.5 -275 -62.5 -457
c0 -182.667 20.833 -335.334 62.5 -458.001s111.5 -237.334 209.5 -344.001z" />
    <glyph glyph-name="parenright" unicode=")" horiz-adv-x="666" 
d="M74 1443v135.998c144 -98 258.167 -231.167 342.5 -399.5s126.5 -347.5 126.5 -537.5c0 -190.667 -42.167 -370.167 -126.5 -538.5s-198.5 -301.5 -342.5 -399.5v136c98 106.667 167.667 221.334 209 344.001s62 275.334 62 458.001c0 182 -20.667 334.5 -62 457.5
s-111 237.5 -209 343.5z" />
    <glyph glyph-name="asterisk" unicode="*" horiz-adv-x="987" 
d="M832 1289l45 -140.999l-303 -66l3 15c0 27.333 -9.66699 49.666 -29 66.999zM777 838.001l-120 -87l-157 267c34 4 57.333 21 70 51zM331 751.001l-119.999 87l206 231c13.333 -30 36.666 -47 69.999 -51zM110.001 1148l46 141l284 -125c-19.333 -16.667 -29 -39 -29 -67
l2 -15zM420.001 1480h148l-31 -308c-12 7.33301 -26.333 11 -43 11s-31 -3.66699 -43 -11z" />
    <glyph glyph-name="plus" unicode="+" 
d="M765 0v543h-543v99h543v542h99v-542h542v-99h-542v-543h-99z" />
    <glyph glyph-name="comma" unicode="," horiz-adv-x="648" 
d="M200 -321v74c64 18 96 93.667 96 227v20h-96v247h247v-214c0 -219.333 -82.333 -337.333 -247 -354z" />
    <glyph glyph-name="hyphen" unicode="-" horiz-adv-x="1185" 
d="M148 543v123h888v-123h-888z" />
    <glyph glyph-name="period" unicode="." horiz-adv-x="648" 
d="M200 0v247h247v-247h-247z" />
    <glyph glyph-name="slash" unicode="/" horiz-adv-x="1074" 
d="M222 -296l526 1777h104l-526 -1777h-104z" />
    <glyph glyph-name="zero" unicode="0" horiz-adv-x="1295" 
d="M648 -37c-155.333 0 -280.5 71.168 -375.5 213.501s-142.5 330.166 -142.5 563.499s47.5 421.166 142.5 563.499s220.167 213.5 375.5 213.5c156 0 281.333 -71 376 -213s142 -330 142 -564c0 -233.333 -47.333 -421.166 -142 -563.499s-220 -213.5 -376 -213.5z
M648 111.001c206 0 309 209.667 309 629s-103 629 -309 629c-205.333 0 -308 -209.667 -308 -629s102.667 -629 308 -629z" />
    <glyph glyph-name="one" unicode="1" horiz-adv-x="1295" 
d="M536 0v1332h-234v124l432 37v-1493h-198z" />
    <glyph glyph-name="two" unicode="2" horiz-adv-x="1295" 
d="M170 0l-0.00195312 173.002c57.333 134 173.333 280 348 438l113 101c145.333 131.333 218 261.666 218 390.999c0 82.667 -24.833 147.667 -74.5 195s-118.167 71 -205.5 71c-102 0 -222.667 -39.667 -362 -119v174c131.333 62 262 93 392 93
c138.667 0 249.834 -37.333 333.501 -112s125.5 -173.667 125.5 -297c0 -88.667 -21.167 -167.334 -63.5 -236.001s-121.166 -152 -236.499 -250l-76 -65c-158 -134 -249.333 -262 -274 -384h643v-173h-881z" />
    <glyph glyph-name="three" unicode="3" horiz-adv-x="1295" 
d="M208 11l-0.00195312 183.999c140.667 -56 251.334 -84 332.001 -84c95.333 0 172.5 27.333 231.5 82s88.5 126 88.5 214c0 208 -145.667 312 -437 312h-78v133l69 1c273.333 0 410 96.333 410 289c0 151.333 -90.667 227 -272 227c-97.333 0 -205.333 -27.667 -324 -83
v172c116.667 39.333 229 59 337 59c147.333 0 260.333 -29.333 339 -88s118 -143.667 118 -255c0 -174 -103 -298 -309 -372c238.667 -55.333 358 -186 358 -392c0 -139.333 -46 -248.666 -138 -327.999s-218.333 -119 -379 -119c-91.333 0 -206.666 16 -345.999 48z" />
    <glyph glyph-name="four" unicode="4" horiz-adv-x="1295" 
d="M771 0v419h-666v149l666 912h185v-900h198v-161h-198v-419h-185zM298 580h486v658z" />
    <glyph glyph-name="five" unicode="5" horiz-adv-x="1295" 
d="M249 -6l0.000976562 176c98 -39.333 191.333 -59 280 -59c97.333 0 173.833 28.667 229.5 86s83.5 136.333 83.5 237c0 108 -39.333 190.5 -118 247.5s-192.334 85.5 -341.001 85.5c-34.667 0 -71 -2.33301 -109 -7v720h749v-172h-576v-390
c190 0 338.333 -43.667 445 -131s160 -208.333 160 -363c0 -144 -48.5 -256.833 -145.5 -338.5s-230.833 -122.5 -401.5 -122.5c-76 0 -161.333 10.333 -256 31z" />
    <glyph glyph-name="six" unicode="6" horiz-adv-x="1295" 
d="M352 767c94 122 212.334 182.999 355.001 182.999c129.333 0 235.166 -42.833 317.499 -128.5s123.5 -195.5 123.5 -329.5c0 -154 -46.167 -280.667 -138.5 -380s-209.833 -149 -352.5 -149c-162.667 0 -290 65.833 -382 197.5s-138 313.834 -138 546.501
c0 313.333 80.333 543.333 241 690c87.333 80.667 208 121 362 121c89.333 0 200 -18.667 332 -56v-172c-139.333 53.333 -254 80 -344 80c-250.667 0 -376 -201 -376 -603zM950.001 452.999c0 109.333 -25.333 195.834 -76 259.501s-120 95.5 -208 95.5
c-84 0 -156 -28 -216 -84s-90 -123.333 -90 -202c0 -124 28.5 -223.5 85.5 -298.5s132.5 -112.5 226.5 -112.5c85.333 0 153 30.667 203 92s75 144.666 75 249.999z" />
    <glyph glyph-name="seven" unicode="7" horiz-adv-x="1295" 
d="M308 0c19.333 115.333 46.8311 215 82.498 299s98.834 199.333 189.501 346l404 650h-762v185h950v-185c-379.333 -559.333 -591.666 -991 -636.999 -1295h-227z" />
    <glyph glyph-name="eight" unicode="8" horiz-adv-x="1295" 
d="M471 806c-81.333 56.667 -137.833 109.332 -169.5 157.999s-47.5 107.334 -47.5 176.001c0 112 41 203 123 273s189 105 321 105c122 0 220.833 -29.667 296.5 -89s113.5 -136.333 113.5 -231c0 -143.333 -92 -274 -276 -392c223.333 -109.333 335 -250.333 335 -423
c0 -123.333 -46.667 -224.166 -140 -302.499s-213.333 -117.5 -360 -117.5s-265 36.833 -355 110.5s-135 170.5 -135 290.5c0 177.333 98 324.666 294 441.999zM722 867.998c138 90.667 207 191.669 207 303.002c0 59.333 -23.167 107.166 -69.5 143.499
s-106.833 54.5 -181.5 54.5c-72.667 0 -131.667 -17.833 -177 -53.5s-68 -81.834 -68 -138.501c0 -55.333 20.5 -105 61.5 -149s116.833 -97.333 227.5 -160zM578 726c-79.333 -61.333 -133.166 -114.833 -161.499 -160.5s-42.5 -102.5 -42.5 -170.5
c0 -84.667 27.333 -153.167 82 -205.5s126.667 -78.5 216 -78.5c86 0 156.167 22.333 210.5 67s81.5 102.667 81.5 174c0 57.333 -16.833 105.833 -50.5 145.5s-98.834 88.167 -195.501 145.5z" />
    <glyph glyph-name="nine" unicode="9" horiz-adv-x="1295" 
d="M233 9l-0.000976562 167.001c125.333 -43.333 232 -65 320 -65c122.667 0 218.5 52.167 287.5 156.5s103.5 249.5 103.5 435.5c-100 -123.333 -213.667 -185 -341 -185c-124.667 0 -230.334 45.833 -317.001 137.5s-130 203.5 -130 335.5
c0 151.333 46.167 276.833 138.5 376.5s208.5 149.5 348.5 149.5c160.667 0 287.334 -64.5 380.001 -193.5s139 -305.5 139 -529.5c0 -142.667 -22.333 -276.834 -67 -402.501s-104.667 -223.5 -180 -293.5c-96.667 -90 -223.667 -135 -381 -135
c-77.333 0 -177.666 15.333 -300.999 46zM352.999 1025c0 -112.667 25.668 -201.668 77.001 -267.001s120.666 -98 207.999 -98c84 0 155.5 28.333 214.5 85s88.5 125 88.5 205c0 126 -28.5 227.5 -85.5 304.5s-131.833 115.5 -224.5 115.5
c-86.667 0 -154.667 -30.667 -204 -92s-74 -145.666 -74 -252.999z" />
    <glyph glyph-name="colon" unicode=":" horiz-adv-x="648" 
d="M225 0v197h197v-197h-197zM225 888v198h197v-198h-197z" />
    <glyph glyph-name="semicolon" unicode=";" horiz-adv-x="648" 
d="M225 -321v73.999c47.333 24.667 71 99.334 71 224.001v23h-71v197h197v-166c0 -202 -65.667 -319.333 -197 -352zM225 887.999v198h197v-198h-197z" />
    <glyph glyph-name="less" unicode="&#x3c;" 
d="M1406 0l-1184 592l1184 592v-110l-961 -483l961 -481v-110z" />
    <glyph glyph-name="equal" unicode="=" 
d="M222 358v98h1184v-98h-1184zM222 728v99h1184v-99h-1184z" />
    <glyph glyph-name="greater" unicode="&#x3e;" 
d="M222 0v110l962 483l-962 481v110l1184 -592z" />
    <glyph glyph-name="question" unicode="?" horiz-adv-x="864" 
d="M250 0v197h197v-197h-197zM250 395l0.00195312 54.001c0 74.667 10.167 136.667 30.5 186s59.166 107 116.499 173l63 73c104.667 120 157 218.333 157 295c0 59.333 -23.167 106.333 -69.5 141s-108.833 52 -187.5 52c-100.667 0 -208.334 -24.667 -323.001 -74v167
c123.333 37.333 239.333 56 348 56c135.333 0 242.833 -30.5 322.5 -91.5s119.5 -143.5 119.5 -247.5c0 -58.667 -11.5 -109.167 -34.5 -151.5s-67.167 -94.5 -132.5 -156.5l-62 -58c-62 -58.667 -102.667 -107.834 -122 -147.501s-29 -93.167 -29 -160.5v-110h-197z" />
    <glyph glyph-name="at" unicode="@" horiz-adv-x="1758" 
d="M1093 44c-120 -54 -237.669 -80.9961 -353.002 -80.9961c-187.333 0 -342 57.833 -464 173.5s-183 262.167 -183 439.5c0 226 81.333 432.667 244 620c86.667 99.333 191.834 177.666 315.501 234.999s248.834 86 375.501 86c186 0 341.833 -60 467.5 -180
s188.5 -269 188.5 -447c0 -164.667 -50.333 -304.834 -151 -420.501s-222.667 -173.5 -366 -173.5c-111.333 0 -167 38.333 -167 115c0 28 7 63 21 105l40 126h-12c-120.667 -230.667 -249.667 -346 -387 -346c-58 0 -104.667 20.333 -140 61s-53 95 -53 163
c0 94 24 194.167 72 300.5s107.333 190.166 178 251.499c81.333 70.667 173 106 275 106c20.667 0 47 -1 79 -3c32.667 -2 58.667 -3 78 -3h137l-126 -636c-4 -21.333 -6 -42 -6 -62c0 -44.667 25.333 -67 76 -67c88.667 0 167.667 47.333 237 142s104 202.667 104 324
c0 153.333 -53 280.666 -159 381.999s-239.667 152 -401 152c-211.333 0 -399 -83.167 -563 -249.5s-246 -356.833 -246 -571.5c0 -150 51.5 -272.833 154.5 -368.5s235.5 -143.5 397.5 -143.5c104.667 0 205 24 301 72zM1073 833.004l38.999 194.999
c-61.333 22 -114.666 33 -159.999 33c-66.667 0 -121.334 -18.667 -164.001 -56c-45.333 -39.333 -84.166 -102.333 -116.499 -189s-48.5 -171.667 -48.5 -255c0 -94.667 27.667 -142 83 -142c40.667 0 94.5 37.833 161.5 113.5s135.5 175.834 205.5 300.501z" />
    <glyph glyph-name="A" unicode="A" horiz-adv-x="1413" 
d="M17 0l587 1480h208l578 -1480h-227l-161 410h-627l-163 -410h-195zM436 566h505l-252 638z" />
    <glyph glyph-name="B" unicode="B" horiz-adv-x="1178" 
d="M191 0v1480h384c148 0 261.5 -28 340.5 -84s118.5 -136.667 118.5 -242c0 -85.333 -26.333 -161.333 -79 -228s-127.667 -118.334 -225 -155.001c242 -74 363 -207.667 363 -401c0 -86.667 -26.667 -163.667 -80 -231c-40.667 -51.333 -89.667 -87.333 -147 -108
s-137 -31 -239 -31h-436zM399 157.001h43c154 0 253.667 9.66699 299 29c86.667 36.667 130 104.667 130 204c0 88 -39.333 161.167 -118 219.5s-177 87.5 -295 87.5h-59v-540zM399 830.001h67c112.667 0 199.667 24 261 72s92 116.333 92 205c0 144 -112.667 216 -338 216
h-82v-493z" />
    <glyph glyph-name="C" unicode="C" horiz-adv-x="1417" 
d="M1303 76c-146 -75.333 -305.334 -113 -478.001 -113c-230 0 -407.667 67.333 -533 202s-188 326 -188 574c0 247.333 63.833 438.833 191.5 574.5s307.834 203.5 540.501 203.5c132 0 287 -21.667 465 -65v-197c-202.667 70 -359 105 -469 105
c-160.667 0 -285 -54.333 -373 -163s-132 -262 -132 -460c0 -189.333 47 -338.333 141 -447s222.667 -163 386 -163c139.333 0 289 43 449 129v-180z" />
    <glyph glyph-name="D" unicode="D" horiz-adv-x="1534" 
d="M191 0l0.000976562 1480h492c146.667 0 265.167 -16.333 355.5 -49s168.5 -88 234.5 -166c104.667 -124 157 -287.333 157 -490c0 -228.667 -61.333 -414 -184 -556c-66.667 -78 -143.834 -134 -231.501 -168s-197.167 -51 -328.5 -51h-495zM401.001 157h268.998
c192 0 328 51.667 408 155c86 110 129 257.667 129 443c0 174 -42.333 310.667 -127 410c-51.333 60.667 -112.666 102.167 -183.999 124.5s-178.666 33.5 -321.999 33.5h-173v-1166z" />
    <glyph glyph-name="E" unicode="E" horiz-adv-x="1110" 
d="M191 0v1480h827v-157h-617v-475h517v-155h-517v-536h660v-157h-870z" />
    <glyph glyph-name="F" unicode="F" horiz-adv-x="1098" 
d="M191 0v1480h827v-157h-617v-496h518v-155h-518v-672h-210z" />
    <glyph glyph-name="G" unicode="G" horiz-adv-x="1480" 
d="M1303 40c-179.333 -51.333 -335.669 -77.0029 -469.002 -77.0029c-235.333 0 -415.833 66.833 -541.5 200.5s-188.5 325.834 -188.5 576.501c0 246.667 63.833 437.834 191.5 573.501s307.167 203.5 538.5 203.5c148.667 0 304.334 -22.333 467.001 -67v-194
c-204 69.333 -360.333 104 -469 104c-160 0 -284.167 -54.167 -372.5 -162.5s-132.5 -261.166 -132.5 -458.499c0 -195.333 47.333 -347.333 142 -456s227.334 -163 398.001 -163c70 0 145.667 12.333 227 37v482h209v-599z" />
    <glyph glyph-name="H" unicode="H" horiz-adv-x="1505" 
d="M191 0v1480h210v-624h704v624h210v-1480h-210v699h-704v-699h-210z" />
    <glyph glyph-name="I" unicode="I" horiz-adv-x="590" 
d="M190 0v1480h210v-1480h-210z" />
    <glyph glyph-name="J" unicode="J" horiz-adv-x="637" 
d="M-184 -275l-0.000976562 186c80 -26 151.333 -39 214 -39c78.667 0 133.834 23 165.501 69s47.5 125.667 47.5 239v1300h210v-1293c0 -322 -152.333 -483 -457 -483c-46.667 0 -106.667 7 -180 21z" />
    <glyph glyph-name="K" unicode="K" horiz-adv-x="1337" 
d="M191 0v1480h197v-728l599 728h211l-580 -706l683 -774h-266l-647 750v-750h-197z" />
    <glyph glyph-name="L" unicode="L" horiz-adv-x="1092" 
d="M191 0v1480h210v-1323h666v-157h-876z" />
    <glyph glyph-name="M" unicode="M" horiz-adv-x="1764" 
d="M191 0v1480h291l410 -1145l422 1145h260v-1480h-196v1204l-408 -1105h-203l-396 1108v-1207h-180z" />
    <glyph glyph-name="N" unicode="N" horiz-adv-x="1513" 
d="M191 0v1480h206l745 -1143v1143h180v-1480h-205l-746 1143v-1143h-180z" />
    <glyph glyph-name="O" unicode="O" horiz-adv-x="1591" 
d="M796 -37c-210 0 -377.833 70.5 -503.5 211.5s-188.5 329.5 -188.5 565.5s62.833 424.5 188.5 565.5s293.5 211.5 503.5 211.5s377.833 -70.5 503.5 -211.5s188.5 -329.5 188.5 -565.5s-62.833 -424.5 -188.5 -565.5s-293.5 -211.5 -503.5 -211.5zM796 120
c147.333 0 262.333 54.833 345 164.5s124 262.167 124 457.5c0 194 -41.333 345.5 -124 454.5s-197.667 163.5 -345 163.5s-262.333 -54.5 -345 -163.5s-124 -260.5 -124 -454.5c0 -195.333 41.333 -347.833 124 -457.5s197.667 -164.5 345 -164.5z" />
    <glyph glyph-name="P" unicode="P" horiz-adv-x="1132" 
d="M191 0v1480h403c116 0 205.5 -9.5 268.5 -28.5s114.5 -52.5 154.5 -100.5c52.667 -63.333 79 -149.666 79 -258.999c0 -157.333 -53.333 -280.666 -160 -369.999s-254.667 -134 -444 -134h-93v-588h-208zM399 746.998l85 0.000976562c124.667 0 221 28.667 289 86
s102 138.666 102 243.999c0 88 -26.833 151 -80.5 189s-142.5 57 -266.5 57h-129v-576z" />
    <glyph glyph-name="Q" unicode="Q" horiz-adv-x="1591" 
d="M1505 -296c-232.667 75.333 -427.667 164.999 -585 268.999c-62.667 -6.66699 -111 -10 -145 -10c-198.667 0 -360.167 72 -484.5 216s-186.5 331 -186.5 561c0 236 62.833 424.5 188.5 565.5s293.5 211.5 503.5 211.5c210.667 0 378.667 -70.667 504 -212
s188 -330.666 188 -567.999c0 -340 -126.333 -575.333 -379 -706c170 -74.667 346.333 -128 529 -160zM796 119.999c147.333 0 262.333 54.667 345 164s124 261.333 124 456c0 195.333 -41.333 347.5 -124 456.5s-197.667 163.5 -345 163.5s-262.333 -54.5 -345 -163.5
s-124 -260.5 -124 -454.5c0 -195.333 41.333 -347.833 124 -457.5s197.667 -164.5 345 -164.5z" />
    <glyph glyph-name="R" unicode="R" horiz-adv-x="1295" 
d="M191 0v1480h448c142 0 250.833 -31.333 326.5 -94s113.5 -153.667 113.5 -273c0 -94 -26.167 -177.667 -78.5 -251s-125.833 -129.666 -220.5 -168.999l494 -693h-258l-421 626h-196v-626h-208zM399 782.999h68.001c129.333 0 227.666 26.333 294.999 79
s101 129.667 101 231c0 153.333 -110.667 230 -332 230h-132v-540z" />
    <glyph glyph-name="S" unicode="S" horiz-adv-x="1103" 
d="M100 28l0.000976562 208.002c166.667 -77.333 304 -116 412 -116c82 0 148.167 21.833 198.5 65.5s75.5 100.5 75.5 170.5c0 58 -16.5 107.333 -49.5 148s-93.833 86 -182.5 136l-102 59c-126 72 -214.833 139.833 -266.5 203.5s-77.5 137.5 -77.5 221.5
c0 114.667 41.333 208.834 124 282.501s188 110.5 316 110.5c114 0 234.333 -19 361 -57v-192c-156 61.333 -272.333 92 -349 92c-72.667 0 -132.667 -19.333 -180 -58s-71 -87.334 -71 -146.001c0 -49.333 17.333 -93 52 -131s98 -83.333 190 -136l106 -60
c128 -72.667 217.333 -141.334 268 -206.001s76 -142.334 76 -233.001c0 -128.667 -47.333 -232 -142 -310s-220.334 -117 -377.001 -117c-100 0 -227.333 21.667 -382 65z" />
    <glyph glyph-name="T" unicode="T" horiz-adv-x="1295" 
d="M543 0v1323h-525v157h1260v-157h-525v-1323h-210z" />
    <glyph glyph-name="U" unicode="U" horiz-adv-x="1419" 
d="M179 1480l210 -0.000976562v-934c0 -148.667 27.5 -256.834 82.5 -324.501s142.5 -101.5 262.5 -101.5c117.333 0 200.5 31.833 249.5 95.5s73.5 171.5 73.5 323.5v941h184v-938c0 -129.333 -12.667 -228.666 -38 -297.999s-71 -130.333 -137 -183
c-82.667 -65.333 -196.334 -98 -341.001 -98c-187.333 0 -325.166 47.333 -413.499 142s-132.5 242.334 -132.5 443.001v932z" />
    <glyph glyph-name="V" unicode="V" horiz-adv-x="1339" 
d="M595 0l-559 1480h210l458 -1212l442 1212h184l-537 -1480h-198z" />
    <glyph glyph-name="W" unicode="W" horiz-adv-x="1752" 
d="M383 0l-381 1480h202l303 -1169l279 1169h202l264 -1153l326 1153h171l-415 -1480h-209l-261 1141l-273 -1141h-208z" />
    <glyph glyph-name="X" unicode="X" horiz-adv-x="1282" 
d="M16 0l491 743l-467 737h248l356 -558l374 558h198l-473 -715l485 -765h-248l-376 587l-389 -587h-199z" />
    <glyph glyph-name="Y" unicode="Y" horiz-adv-x="1276" 
d="M511 0v618l-494 862h240l384 -668l414 668h195l-529 -858v-622h-210z" />
    <glyph glyph-name="Z" unicode="Z" horiz-adv-x="1238" 
d="M95 0v168l795 1155h-746v157h998v-157l-795 -1155h795v-168h-1047z" />
    <glyph glyph-name="bracketleft" unicode="[" horiz-adv-x="666" 
d="M197 -296v1875h395v-148h-222v-1579h222v-148h-395z" />
    <glyph glyph-name="backslash" unicode="\" horiz-adv-x="1074" 
d="M852 -296h-104l-526 1777h104z" />
    <glyph glyph-name="bracketright" unicode="]" horiz-adv-x="666" 
d="M469 1579v-1875h-395v148h222v1579h-222v148h395z" />
    <glyph glyph-name="asciicircum" unicode="^" horiz-adv-x="1295" 
d="M648 1149l-377 -754h-166l543 1085l543 -1085h-166z" />
    <glyph glyph-name="underscore" unicode="_" horiz-adv-x="1024" 
d="M86 -148v148h851v-148h-851z" />
    <glyph glyph-name="grave" unicode="`" horiz-adv-x="1258" 
d="M864 1283h-148l-321 321h228z" />
    <glyph glyph-name="a" unicode="a" horiz-adv-x="1131" 
d="M757 138c-118 -108.667 -231.669 -163.001 -341.002 -163.001c-90 0 -164.667 28.167 -224 84.5s-89 127.5 -89 213.5c0 118.667 49.833 209.834 149.5 273.501s242.834 95.5 429.501 95.5h46v131c0 126 -65.667 189 -197 189c-102 0 -213.333 -32 -334 -96v163
c132.667 54 257.667 81 375 81c120.667 0 209.667 -27.5 267 -82.5s86 -139.833 86 -254.5v-492c0 -112.667 34.667 -169 104 -169c8.66699 0 21.334 1.33301 38.001 4l14 -109c-44.667 -21.333 -94 -32 -148 -32c-92 0 -150.667 54.333 -176 163zM727.998 244.999v281
l-63 2c-109.333 0 -197.5 -20.333 -264.5 -61s-100.5 -94.667 -100.5 -162c0 -47.333 16.667 -87.333 50 -120s74 -49 122 -49c82 0 167.333 36.333 256 109z" />
    <glyph glyph-name="b" unicode="b" horiz-adv-x="1289" 
d="M197 -12v1591h197v-697c80.667 152 201.667 228 363 228c130.667 0 233.5 -47.667 308.5 -143s112.5 -225.666 112.5 -390.999c0 -180 -42.5 -325.167 -127.5 -435.5s-196.833 -165.5 -335.5 -165.5c-128.667 0 -235.667 49.333 -321 148l-24 -135h-173zM394 258.999
c101.333 -90.667 198 -136 290 -136c90.667 0 160.667 37.833 210 113.5s74 182.167 74 319.5c0 254.667 -84 382 -252 382c-110 0 -217.333 -59.667 -322 -179v-500z" />
    <glyph glyph-name="c" unicode="c" horiz-adv-x="1049" 
d="M951 33c-127.333 -38.667 -237.333 -58.001 -330 -58.001c-146.667 0 -268.334 54.333 -365.001 163s-145 245.667 -145 411c0 176.667 47.833 314.334 143.5 413.001s229.167 148 400.5 148c84.667 0 179.334 -11.667 284.001 -35v-165c-111.333 32.667 -202 49 -272 49
c-101.333 0 -182.333 -37.833 -243 -113.5s-91 -176.5 -91 -302.5c0 -122 31.333 -220.667 94 -296s144.667 -113 246 -113c90 0 182.667 23 278 69v-170z" />
    <glyph glyph-name="d" unicode="d" horiz-adv-x="1289" 
d="M894 0l-0.000976562 204.001c-80 -152.667 -200.667 -229 -362 -229c-130.667 0 -233.5 47.667 -308.5 143s-112.5 225.666 -112.5 390.999c0 180.667 42.5 326 127.5 436s196.833 165 335.5 165c128.667 0 235.334 -49.333 320.001 -148v617h198v-1579h-198z
M893.999 827.001c-102 90 -198.667 135 -290 135c-90 0 -159.667 -37.667 -209 -113s-74 -182 -74 -320c0 -254 84 -381 252 -381c109.333 0 216.333 59.667 321 179v500z" />
    <glyph glyph-name="e" unicode="e" horiz-adv-x="1141" 
d="M993 35c-132 -40 -244.999 -59.999 -338.999 -59.999c-160.667 0 -291.334 53.167 -392.001 159.5s-151 244.166 -151 413.499c0 164.667 44.5 299.667 133.5 405s202.833 158 341.5 158c131.333 0 232.833 -46.833 304.5 -140.5s107.5 -226.5 107.5 -398.5l-1 -60h-685
c28.667 -258 155 -387 379 -387c82 0 182.667 22 302 66v-156zM321.001 660.001h478.999c0 202 -75.333 303 -226 303c-151.333 0 -235.666 -101 -252.999 -303z" />
    <glyph glyph-name="f" unicode="f" horiz-adv-x="753" 
d="M234 0l0.000976562 938h-154v148h154v130c0 258.667 118 388 354 388c66 0 141 -11 225 -33v-156c-88.667 27.333 -159.667 41 -213 41c-64.667 0 -108.834 -15.5 -132.501 -46.5s-35.5 -88.5 -35.5 -172.5v-151h271v-148h-271v-938h-198z" />
    <glyph glyph-name="g" unicode="g" horiz-adv-x="1277" 
d="M201 -361l23.002 171.001c114 -54 226.667 -81 338 -81c221.333 0 332 117.667 332 353v171c-34 -72 -82.5 -128 -145.5 -168s-133.167 -60 -210.5 -60c-131.333 0 -235.333 47.167 -312 141.5s-115 222.166 -115 383.499c0 165.333 43.667 300 131 404
s200.333 156 339 156c121.333 0 225.666 -49.333 312.999 -148v124h198v-790c0 -170 -8.83301 -295.833 -26.5 -377.5s-50.834 -148.5 -99.501 -200.5c-86 -91.333 -220.333 -137 -403 -137c-125.333 0 -246 19.333 -362 58zM894.002 376.001v451.001
c-86.667 90 -181 135 -283 135c-90.667 0 -161.667 -36.333 -213 -109s-77 -173.334 -77 -302.001c0 -236 83.667 -354 251 -354c114 0 221.333 59.667 322 179z" />
    <glyph glyph-name="h" unicode="h" horiz-adv-x="1271" 
d="M197 0l0.000976562 1579h197v-697c104 152 231.333 228 382 228c94.667 0 169.834 -29.833 225.501 -89.5s83.5 -139.834 83.5 -240.501v-780h-197v716c0 80.667 -11.833 138.167 -35.5 172.5s-62.834 51.5 -117.501 51.5c-120.667 0 -234.334 -79 -341.001 -237v-703
h-197z" />
    <glyph glyph-name="i" unicode="i" horiz-adv-x="592" 
d="M197 0v1086h197v-1086h-197zM197 1283v197h197v-197h-197z" />
    <glyph glyph-name="j" unicode="j" horiz-adv-x="623" 
d="M-153 -369v156c92 -38.667 162 -58 210 -58c54.667 0 97 14.667 127 44c20 20 32.5 42.667 37.5 68s7.5 78.333 7.5 159v1086h198v-1086c0 -279.333 -118 -419 -354 -419c-70 0 -145.333 16.667 -226 50zM229 1283v197h198v-197h-198z" />
    <glyph glyph-name="k" unicode="k" horiz-adv-x="1197" 
d="M197 0v1579h197v-1020l460 527h212l-439 -507l530 -579h-252l-511 557v-557h-197z" />
    <glyph glyph-name="l" unicode="l" horiz-adv-x="592" 
d="M197 0v1579h197v-1579h-197z" />
    <glyph glyph-name="m" unicode="m" horiz-adv-x="1912" 
d="M197 0v1086h197v-204c96 152 219.333 228 370 228c145.333 0 244.333 -76 297 -228c93.333 152.667 214.666 229 363.999 229c95.333 0 169.5 -28.167 222.5 -84.5s79.5 -135.166 79.5 -236.499v-790h-198v759c0 124 -49 186 -147 186c-102 0 -209 -72.333 -321 -217
v-728h-198v759c0 124.667 -50 187 -150 187c-99.333 0 -205.666 -72.667 -318.999 -218v-728h-197z" />
    <glyph glyph-name="n" unicode="n" horiz-adv-x="1271" 
d="M197 0l0.000976562 1086h197v-204c104 152 231.333 228 382 228c94.667 0 169.834 -29.833 225.501 -89.5s83.5 -139.834 83.5 -240.501v-780h-197v716c0 80.667 -11.833 138.167 -35.5 172.5s-62.834 51.5 -117.501 51.5c-120.667 0 -234.334 -79 -341.001 -237v-703
h-197z" />
    <glyph glyph-name="o" unicode="o" horiz-adv-x="1258" 
d="M629 -25c-159.333 0 -285.5 51 -378.5 153s-139.5 240.333 -139.5 415s46.5 312.834 139.5 414.501s219.167 152.5 378.5 152.5s285.5 -50.833 378.5 -152.5s139.5 -239.834 139.5 -414.501s-46.5 -313 -139.5 -415s-219.167 -153 -378.5 -153zM629 123
c98 0 174 36.667 228 110s81 176.666 81 309.999s-27 236.5 -81 309.5s-130 109.5 -228 109.5s-173.833 -36.5 -227.5 -109.5s-80.5 -176.167 -80.5 -309.5s26.833 -236.666 80.5 -309.999s129.5 -110 227.5 -110z" />
    <glyph glyph-name="p" unicode="p" horiz-adv-x="1289" 
d="M197 -395v1481h197v-204c80.667 152 201.667 228 363 228c130.667 0 233.5 -47.667 308.5 -143s112.5 -225.666 112.5 -390.999c0 -180 -42.5 -325.167 -127.5 -435.5s-196.833 -165.5 -335.5 -165.5c-128.667 0 -235.667 49.333 -321 148v-518h-197zM394 258.999
c101.333 -90.667 198 -136 290 -136c90.667 0 160.667 37.833 210 113.5s74 182.167 74 319.5c0 254.667 -84 382 -252 382c-110 0 -217.333 -59.667 -322 -179v-500z" />
    <glyph glyph-name="q" unicode="q" horiz-adv-x="1289" 
d="M894 -395l-0.000976562 599.001c-80 -152.667 -200.667 -229 -362 -229c-130.667 0 -233.5 47.667 -308.5 143s-112.5 225.666 -112.5 390.999c0 180.667 42.5 326 127.5 436s196.833 165 335.5 165c128.667 0 235.334 -49.333 320.001 -148v124h198v-1481h-198z
M893.999 827.001c-102 90 -198.667 135 -290 135c-90 0 -159.667 -37.667 -209 -113s-74 -182 -74 -320c0 -254 84 -381 252 -381c109.333 0 216.333 59.667 321 179v500z" />
    <glyph glyph-name="r" unicode="r" horiz-adv-x="838" 
d="M197 0v1086h197v-204c78 152 191.333 228 340 228c20 0 41 -1.66699 63 -5v-184c-34 11.333 -64 17 -90 17c-124.667 0 -229 -74 -313 -222v-716h-197z" />
    <glyph glyph-name="s" unicode="s" horiz-adv-x="1044" 
d="M157 38l-0.00195312 180.996c128.667 -64 240.667 -96 336 -96c56.667 0 103.667 15.333 141 46s56 69 56 115c0 67.333 -52.333 123 -157 167l-115 49c-170 70.667 -255 172.334 -255 305.001c0 94.667 33.5 169.167 100.5 223.5s158.833 81.5 275.5 81.5
c60.667 0 135.667 -8.33301 225 -25l41 -8v-164c-110 32.667 -197.667 49 -263 49c-57.333 0 -103.166 -12.5 -137.499 -37.5s-51.5 -58.5 -51.5 -100.5c0 -59.333 48 -109.333 144 -150l95 -40c107.333 -45.333 183.333 -93.166 228 -143.499s67 -113.166 67 -188.499
c0 -95.333 -37.667 -173.666 -113 -234.999s-171.666 -92 -288.999 -92c-90 0 -199.333 21 -328 63z" />
    <glyph glyph-name="t" unicode="t" horiz-adv-x="766" 
d="M681 0c-60.667 -16.667 -113.333 -25 -158 -25c-100 0 -178 28.667 -234 86s-84 137 -84 239v638h-136v148h136v197l197 19v-216h284v-148h-284v-602c0 -142 61.333 -213 184 -213c26 0 57.667 4.33301 95 13v-136z" />
    <glyph glyph-name="u" unicode="u" horiz-adv-x="1271" 
d="M876 0v203.999c-104.667 -152.667 -231.667 -229 -381 -229c-94.667 0 -170 29.833 -226 89.5s-84 140.167 -84 241.5v780h197v-716c0 -81.333 11.833 -139.166 35.5 -173.499s63.167 -51.5 118.5 -51.5c120 0 233.333 79 340 237v704h197v-1086h-197z" />
    <glyph glyph-name="v" unicode="v" horiz-adv-x="1060" 
d="M422 0l-404 1086h197l316 -845l333 845h184l-429 -1086h-197z" />
    <glyph glyph-name="w" unicode="w" horiz-adv-x="1578" 
d="M323 0l-311 1086h193l238 -841l257 841h197l225 -841l273 841h169l-354 -1086h-198l-230 841l-260 -841h-199z" />
    <glyph glyph-name="x" unicode="x" horiz-adv-x="1256" 
d="M88 0l413 561l-401 525h234l317 -418l287 418h192l-376 -551l409 -535h-234l-327 430l-316 -430h-198z" />
    <glyph glyph-name="y" unicode="y" horiz-adv-x="1070" 
d="M260 -395l176 395l-420 1086h213l311 -818l332 818h186l-593 -1481h-205z" />
    <glyph glyph-name="z" unicode="z" horiz-adv-x="1174" 
d="M123 0v148l672 790h-641v148h884v-148l-672 -790h685v-148h-928z" />
    <glyph glyph-name="braceleft" unicode="{" horiz-adv-x="666" 
d="M25 716l49 -0.00195312c102 0 153 53.667 153 161c0 45.333 -5.33301 92 -16 140l-19 87c-12.667 57.333 -19 113.333 -19 168c0 88.667 31.833 160.334 95.5 215.001s151.167 85.334 262.5 92.001v-148h-28c-45.333 0 -83 -11.833 -113 -35.5s-45 -53.167 -45 -88.5
c0 -16 4.33301 -47.667 13 -95l17 -102c7.33301 -44 11 -96.333 11 -157c0 -124.667 -49 -228.334 -147 -311.001c98 -83.333 147 -187.666 147 -312.999c0 -60 -3.66699 -112 -11 -156l-17 -102c-8.66699 -47.333 -13 -79.333 -13 -96
c0 -34.667 15.167 -63.834 45.5 -87.501s67.833 -35.5 112.5 -35.5h28v-148c-112 6.66699 -199.667 37.5 -263 92.5s-95 126.833 -95 215.5c0 54.667 6.33301 110.334 19 167.001l19 87c10 48 15 95.333 15 142c0 106.667 -50.667 160 -152 160h-49v148z" />
    <glyph glyph-name="bar" unicode="|" horiz-adv-x="765" 
d="M333 -296v1875h99v-1875h-99z" />
    <glyph glyph-name="braceright" unicode="}" horiz-adv-x="666" 
d="M642 568l-50 0.00195312c-101.333 0 -152 -54 -152 -162c0 -45.333 5.33301 -92 16 -140l19 -87c12.667 -56.667 19 -112.667 19 -168c0 -88.667 -31.833 -160.334 -95.5 -215.001s-151.167 -85.334 -262.5 -92.001v148h28c44.667 0 82.167 11.833 112.5 35.5
s45.5 52.834 45.5 87.501c0 16.667 -4.33301 48.667 -13 96l-17 102c-8 42.667 -12 95.334 -12 158.001c0 123.333 49 227 147 311c-98 82.667 -147 186.667 -147 312c0 61.333 4 113.333 12 156l17 102c8.66699 47.333 13 79.666 13 96.999c0 34 -15.167 62.833 -45.5 86.5
s-67.833 35.5 -112.5 35.5h-28v148c112 -6.66699 199.667 -37.334 263 -92.001s95 -126.667 95 -216c0 -54 -6.33301 -109.667 -19 -167l-19 -87c-10.667 -48 -16 -95.333 -16 -142c0 -106 50.667 -159 152 -159h50v-148z" />
    <glyph glyph-name="asciitilde" unicode="~" horiz-adv-x="1295" 
d="M105 444c0 96.667 25.668 175.667 77.001 237s117.666 92 198.999 92c53.333 0 125 -23.667 215 -71l107 -56l128 -69c30 -14.667 60.333 -22 91 -22c35.333 0 64.333 16.5 87 49.5s34 75.833 34 128.5v7h148c-14 -222 -102.667 -333 -266 -333
c-59.333 0 -141 26.667 -245 80l-112 58l-119 62c-24 12 -47.667 18 -71 18c-36.667 0 -66.667 -16.833 -90 -50.5s-35 -77.167 -35 -130.5h-148z" />
    <glyph glyph-name="nbspace" unicode="&#xa0;" horiz-adv-x="648" 
 />
    <glyph glyph-name="exclamdown" unicode="&#xa1;" horiz-adv-x="648" 
d="M422 1086v-198h-197v198h197zM398 691l24 -790v-296h-197v296l25 790h148z" />
    <glyph glyph-name="cent" unicode="&#xa2;" horiz-adv-x="1295" 
d="M663 0l-0.00195312 173.002c-135.333 13.333 -245.5 72.333 -330.5 177s-127.5 234 -127.5 388c0 157.333 40 284.666 120 381.999s192.667 155.666 338 174.999v185h99v-185c88.667 -4 183.334 -19.333 284.001 -46v-166c-118 40 -212.667 63.333 -284 70v-840
c90.667 0 185.334 22.667 284.001 68v-150c-99.333 -38.667 -194 -58 -284 -58v-173h-99zM662.998 324.002v819.999c-161.333 -15.333 -242 -152.666 -242 -411.999c0 -220 80.667 -356 242 -408z" />
    <glyph glyph-name="sterling" unicode="&#xa3;" horiz-adv-x="1295" 
d="M247 0v173c140 44.667 210 150 210 316v227h-179v148h179v215c0 142 33.833 250.5 101.5 325.5s164.834 112.5 291.501 112.5c69.333 0 145 -10 227 -30v-167c-82.667 32.667 -162.334 49 -239.001 49c-64.667 0 -111.5 -18 -140.5 -54s-43.5 -94.667 -43.5 -176v-275
h216v-148h-216v-127c0 -105.333 -12 -187 -36 -245s-69.667 -115 -137 -171h611v-173h-845z" />
    <glyph glyph-name="currency" unicode="&#xa4;" horiz-adv-x="1296" 
d="M380 386l-195 -195l-87 87l195 195c-60 79.333 -90 168.333 -90 267s30 187.667 90 267l-195 196l87 87l195 -195c83.333 59.333 172.333 89 267 89s183.667 -29.667 267 -89l195 195l88 -87l-195 -196c59.333 -79.333 89 -168.333 89 -267s-29.667 -187.667 -89 -267
l195 -195l-88 -87l-195 195c-83.333 -60 -172.333 -90 -267 -90s-183.667 30 -267 90zM647 444c83.333 0 153.5 28.5 210.5 85.5s85.5 127.167 85.5 210.5s-28.5 153.5 -85.5 210.5s-127.167 85.5 -210.5 85.5s-153.5 -28.5 -210.5 -85.5s-85.5 -127.167 -85.5 -210.5
s28.5 -153.5 85.5 -210.5s127.167 -85.5 210.5 -85.5z" />
    <glyph glyph-name="yen" unicode="&#xa5;" horiz-adv-x="1295" 
d="M543 0v345h-296v148h296v99h-296v148h296l-463 740h233l360 -575l388 575h179l-500 -740h296v-148h-296v-99h296v-148h-296v-345h-197z" />
    <glyph glyph-name="brokenbar" unicode="&#xa6;" horiz-adv-x="761" 
d="M333 -296v740h99v-740h-99zM333 839v740h99v-740h-99z" />
    <glyph glyph-name="section" unicode="&#xa7;" horiz-adv-x="1295" 
d="M221 -260v180c161.333 -70 298.333 -105 411 -105c86 0 155.833 16.667 209.5 50s80.5 76.666 80.5 129.999c0 44.667 -14.333 80 -43 106s-91 59.667 -187 101l-177 75c-192.667 82.667 -289 194.667 -289 336c0 100.667 48.667 200.334 146 299.001
c-94 62.667 -141 143 -141 241c0 109.333 43.167 197.333 129.5 264s199.833 100 340.5 100c100 0 215 -15.667 345 -47v-160c-134.667 39.333 -250.667 59 -348 59c-86 0 -155.5 -17 -208.5 -51s-79.5 -78.667 -79.5 -134c0 -40 13 -73.167 39 -99.5
s71.333 -52.5 136 -78.5l136 -55c138 -55.333 233.5 -109.5 286.5 -162.5s79.5 -120.833 79.5 -203.5c0 -94.667 -49.667 -197.334 -149 -308.001c109.333 -63.333 164 -152.666 164 -267.999c0 -104.667 -44.5 -188 -133.5 -250s-208.167 -93 -357.5 -93
c-104 0 -234 24.667 -390 74zM840 341c49.333 66 74 130.667 74 194c0 48 -15.833 87.5 -47.5 118.5s-89.167 64.167 -172.5 99.5l-222 93c-49.333 -60 -74 -121.667 -74 -185c0 -89.333 76.333 -166 229 -230z" />
    <glyph glyph-name="dieresis" unicode="&#xa8;" horiz-adv-x="1258" 
d="M345 1283v173h173v-173h-173zM740 1283v173h173v-173h-173z" />
    <glyph glyph-name="copyright" unicode="&#xa9;" horiz-adv-x="1752" 
d="M876 -37c-214 0 -397 76 -549 228s-228 335 -228 549c0 214.667 76 397.834 228 549.501s335 227.5 549 227.5c214.667 0 397.834 -75.833 549.501 -227.5s227.5 -334.834 227.5 -549.501c0 -214 -75.833 -397 -227.5 -549s-334.834 -228 -549.501 -228zM876 74
c212 0 381.667 79.667 509 239c104.667 131.333 157 273.666 157 426.999c0 154.667 -52.333 297 -157 427c-128 159.333 -297.667 239 -509 239s-381 -79.667 -509 -239c-104.667 -130 -157 -272.333 -157 -427c0 -153.333 52.333 -295.666 157 -426.999
c127.333 -159.333 297 -239 509 -239zM1160 345c-94 -32.667 -178.998 -49 -254.998 -49c-126 0 -229.167 41 -309.5 123s-120.5 187.333 -120.5 316c0 134.667 39.333 242.167 118 322.5s183.667 120.5 315 120.5c61.333 0 136.666 -8.66699 225.999 -26l26 -5v-123
c-90.667 37.333 -172 56 -244 56c-88 0 -158.833 -31.333 -212.5 -94s-80.5 -145 -80.5 -247s27.833 -182.833 83.5 -242.5s131.5 -89.5 227.5 -89.5c75.333 0 150.666 20.667 225.999 62v-124z" />
    <glyph glyph-name="ordfeminine" unicode="&#xaa;" horiz-adv-x="864" 
d="M512 1001c-65.333 -61.333 -131.332 -92.001 -197.999 -92.001c-56 0 -101.833 17.333 -137.5 52s-53.5 78.667 -53.5 132c0 70.667 29.167 125.834 87.5 165.501s140.166 59.5 245.499 59.5h47v69c0 72 -39.667 108 -119 108c-65.333 0 -133.333 -19.333 -204 -58v110
c79.333 31.333 157 47 233 47c156 0 234 -68 234 -204v-294c0 -59.333 18.667 -89 56 -89c6 0 13.667 1 23 3l7 -83c-32.667 -12 -64 -18 -94 -18c-66 0 -108.333 30.667 -127 92zM503.001 1081v151h-37c-132.667 0 -199 -40 -199 -120c0 -26.667 9.16699 -49 27.5 -67
s40.833 -27 67.5 -27c45.333 0 92.333 21 141 63z" />
    <glyph glyph-name="guillemotleft" unicode="&#xab;" horiz-adv-x="1073" 
d="M999 913l-296 -370l296 -370l-98 -74l-395 444l395 444zM604 913l-296 -370l296 -370l-98 -74l-395 444l395 444z" />
    <glyph glyph-name="logicalnot" unicode="&#xac;" 
d="M1308 296v395h-1086v99h1184v-494h-98z" />
    <glyph glyph-name="sfthyphen" unicode="&#xad;" horiz-adv-x="666" 
d="M111 543v148h444v-148h-444z" />
    <glyph glyph-name="registered" unicode="&#xae;" horiz-adv-x="1295" 
d="M648 629c-122.667 0 -227.332 43.333 -313.999 130s-130 191.334 -130 314.001c0 123.333 43.333 228.166 130 314.499s191.334 129.5 314.001 129.5c123.333 0 228.166 -43.167 314.499 -129.5s129.5 -191.166 129.5 -314.499
c0 -122.667 -43.333 -227.334 -130 -314.001s-191.334 -130 -314.001 -130zM648.002 728c94 0 175.167 34 243.5 102s102.5 149 102.5 243c0 94.667 -34 176 -102 244s-149.333 102 -244 102c-94 0 -175 -34 -243 -102s-102 -149.333 -102 -244c0 -94 34 -175 102 -243
s149 -102 243 -102zM469.002 802v530.001h154c136 0 204 -46 204 -138c0 -64.667 -36.333 -116.334 -109 -155.001l124 -237h-113l-113 216h-48v-216h-99zM568.002 1092h43c70 0 105 31 105 93c0 49.333 -33.667 74 -101 74h-47v-167z" />
    <glyph glyph-name="overscore" unicode="&#xaf;" horiz-adv-x="1024" 
d="M86 1456v148h851v-148h-851z" />
    <glyph glyph-name="degree" unicode="&#xb0;" horiz-adv-x="567" 
d="M286 1073c-62 0 -114.5 21.667 -157.5 65s-64.5 96 -64.5 158s21.5 114.333 64.5 157s95.5 64 157.5 64s114.5 -21.5 157.5 -64.5s64.5 -95.167 64.5 -156.5c0 -62 -21.5 -114.667 -64.5 -158s-95.5 -65 -157.5 -65zM286 1172c33.333 0 62.166 12.333 86.499 37
s36.5 53.334 36.5 86.001c0 33.333 -12.167 62.333 -36.5 87s-53.166 37 -86.499 37c-32.667 0 -61.334 -12.333 -86.001 -37s-37 -53.667 -37 -87c0 -32.667 12.333 -61.334 37 -86.001s53.334 -37 86.001 -37z" />
    <glyph glyph-name="plusminus" unicode="&#xb1;" 
d="M222 0v99h1184v-99h-1184zM765 296v395h-543v99h543v394h99v-394h542v-99h-542v-395h-99z" />
    <glyph glyph-name="twosuperior" unicode="&#xb2;" horiz-adv-x="864" 
d="M149 592l0.000976562 122c44 76.667 104.667 149.667 182 219l70 62c104 92 156 177.667 156 257c0 99.333 -54.667 149 -164 149c-63.333 0 -137.333 -23 -222 -69v117c84.667 36 168.667 54 252 54c87.333 0 157.666 -22.667 210.999 -68s80 -104.666 80 -177.999
c0 -52.667 -13.333 -100 -40 -142s-74.667 -91.333 -144 -148l-53 -44c-88.667 -72.667 -140.667 -142.334 -156 -209.001h389v-122h-561z" />
    <glyph glyph-name="threesuperior" unicode="&#xb3;" horiz-adv-x="864" 
d="M170 1353l0.00195312 111.999c73.333 25.333 148.666 38 225.999 38c188 0 282 -69.667 282 -209c0 -104.667 -63.667 -179 -191 -223c146.667 -33.333 220 -112.666 220 -237.999c0 -81.333 -28.833 -145.5 -86.5 -192.5s-136.834 -70.5 -237.501 -70.5
c-70.667 0 -145.667 9.66699 -225 29v122c86.667 -34 156 -51 208 -51c55.333 0 100 15 134 45s51 69.333 51 118c0 121.333 -86.667 182 -260 182h-51v93h44c162.667 0 244 55.333 244 166c0 86 -52.333 129 -157 129c-61.333 0 -128.333 -16.667 -201 -50z" />
    <glyph glyph-name="acute" unicode="&#xb4;" horiz-adv-x="1258" 
d="M395 1283l241 321h228l-321 -321h-148z" />
    <glyph glyph-name="micro" unicode="&#xb5;" horiz-adv-x="1283" 
d="M197 -395l-0.000976562 1481h197v-716c0 -140 60.667 -210 182 -210c110 0 214 74 312 222v704h197v-1086h-197v204c-93.333 -152.667 -198.666 -229 -315.999 -229c-68 0 -127.333 16.667 -178 50v-420h-197z" />
    <glyph glyph-name="paragraph" unicode="&#xb6;" horiz-adv-x="1295" 
d="M635 -296v1036c-131.333 9.33301 -234 50.5 -308 123.5s-111 169.833 -111 290.5c0 103.333 28.667 183.666 86 240.999c57.333 56.667 168.333 85 333 85h395v-1776h-123v1653h-148v-1653h-124z" />
    <glyph glyph-name="middot" unicode="&#xb7;" horiz-adv-x="1295" 
d="M524 469v247h247v-247h-247z" />
    <glyph glyph-name="cedilla" unicode="&#xb8;" horiz-adv-x="1258" 
d="M626 0h97l-60 -109c51.333 0 96.5 -15.833 135.5 -47.5s58.5 -68.5 58.5 -110.5c0 -46 -19.5 -85 -58.5 -117s-86.5 -48 -142.5 -48c-48 0 -96.667 7 -146 21v81c30.667 -10 65.667 -15 105 -15c68.667 0 103 24.667 103 74c0 64 -62.333 96 -187 96z" />
    <glyph glyph-name="onesuperior" unicode="&#xb9;" horiz-adv-x="864" 
d="M407 592v792h-148v82l296 24v-898h-148z" />
    <glyph glyph-name="ordmasculine" unicode="&#xba;" horiz-adv-x="864" 
d="M449 909c-100.667 0 -180.167 30.667 -238.5 92s-87.5 145 -87.5 251c0 105.333 29.167 188.666 87.5 249.999s137.833 92 238.5 92c100 0 179.167 -30.667 237.5 -92s87.5 -144.666 87.5 -249.999c0 -106 -29.167 -189.667 -87.5 -251s-137.5 -92 -237.5 -92zM449 1009
c112 0 168 81 168 243c0 161.333 -56 242 -168 242c-112.667 0 -169 -80.667 -169 -242c0 -162 56.333 -243 169 -243z" />
    <glyph glyph-name="guillemotright" unicode="&#xbb;" horiz-adv-x="1073" 
d="M74 173l296 370l-296 370l99 74l394 -444l-394 -444zM469 173l296 370l-296 370l98 74l395 -444l-395 -444z" />
    <glyph glyph-name="onequarter" unicode="&#xbc;" horiz-adv-x="1641" 
d="M247 592v792h-148v82l296 24v-898h-148zM150 -37l1088 1554h135l-1087 -1554h-136zM1283 0v242h-407v114l403 532h140v-529h123v-117h-123v-242h-136zM1005 359h278v364z" />
    <glyph glyph-name="onehalf" unicode="&#xbd;" horiz-adv-x="1641" 
d="M247 592v792h-148v82l296 24v-898h-148zM100 -37l1088 1554h135l-1087 -1554h-136zM978 0l0.000976562 122c44 76.667 104.667 149.667 182 219l70 62c104 92 156 177.667 156 257c0 99.333 -54.667 149 -164 149c-63.333 0 -137.333 -23 -222 -69v117
c84.667 36 168.667 54 252 54c87.333 0 157.666 -22.667 210.999 -68s80 -104.666 80 -177.999c0 -52.667 -13.333 -100 -40 -142s-74.667 -91.333 -144 -148l-53 -44c-88.667 -72.667 -140.667 -142.334 -156 -209.001h389v-122h-561z" />
    <glyph glyph-name="threequarters" unicode="&#xbe;" horiz-adv-x="1641" 
d="M111 1353l0.00195312 111.999c73.333 25.333 148.666 38 225.999 38c188 0 282 -69.667 282 -209c0 -104.667 -63.667 -179 -191 -223c146.667 -33.333 220 -112.666 220 -237.999c0 -81.333 -28.833 -145.5 -86.5 -192.5s-136.834 -70.5 -237.501 -70.5
c-70.667 0 -145.667 9.66699 -225 29v122c86.667 -34 156 -51 208 -51c55.333 0 100 15 134 45s51 69.333 51 118c0 121.333 -86.667 182 -260 182h-51v93h44c162.667 0 244 55.333 244 166c0 86 -52.333 129 -157 129c-61.333 0 -128.333 -16.667 -201 -50z
M249.002 -37.001l1088 1554h135l-1087 -1554h-136zM1283 -0.000976562v242h-407v114l403 532h140v-529h123v-117h-123v-242h-136zM1005 358.999h278v364z" />
    <glyph glyph-name="questiondown" unicode="&#xbf;" horiz-adv-x="864" 
d="M614 1086v-198h-198v198h198zM614 691l-0.000976562 -55.001c0 -74 -10.167 -135.833 -30.5 -185.5s-59.166 -107.5 -116.499 -173.5l-64 -72c-104 -119.333 -156 -217.666 -156 -294.999c0 -59.333 23 -106.5 69 -141.5s108.333 -52.5 187 -52.5c100 0 208 25 324 75
v-167c-124 -37.333 -240 -56 -348 -56c-135.333 0 -242.833 30.5 -322.5 91.5s-119.5 143.167 -119.5 246.5c0 59.333 11.333 110 34 152s67 94 133 156l61 59c62 59.333 102.667 108.5 122 147.5s29 92.167 29 159.5v111h198z" />
    <glyph glyph-name="Agrave" unicode="&#xc0;" horiz-adv-x="1413" 
d="M17 0l587 1480h208l578 -1480h-227l-161 410h-627l-163 -410h-195zM436 566h505l-252 638zM856 1604h-148l-321 321h228z" />
    <glyph glyph-name="Aacute" unicode="&#xc1;" horiz-adv-x="1413" 
d="M17 0l587 1480h208l578 -1480h-227l-161 410h-627l-163 -410h-195zM436 566h505l-252 638zM560 1604l241 321h228l-321 -321h-148z" />
    <glyph glyph-name="Acircumflex" unicode="&#xc2;" horiz-adv-x="1413" 
d="M17 0l587 1480h208l578 -1480h-227l-161 410h-627l-163 -410h-195zM436 566h505l-252 638zM358 1604l241 321h218l241 -321h-148l-203 202l-201 -202h-148z" />
    <glyph glyph-name="Atilde" unicode="&#xc3;" horiz-adv-x="1413" 
d="M17 0l587 1480h208l578 -1480h-227l-161 410h-627l-163 -410h-195zM436 566h505l-252 638zM370 1604c7.33301 156 69 234 185 234c48.667 0 93.667 -12.667 135 -38l60 -37c37.333 -23.333 65.666 -35 84.999 -35c46 0 72 36.667 78 110h123
c-7.33301 -156 -69 -234 -185 -234c-48.667 0 -93.667 13 -135 39l-60 37c-37.333 22.667 -65.666 34 -84.999 34c-46 0 -72 -36.667 -78 -110h-123z" />
    <glyph glyph-name="Adieresis" unicode="&#xc4;" horiz-adv-x="1413" 
d="M17 0l587 1480h208l578 -1480h-227l-161 410h-627l-163 -410h-195zM436 566h505l-252 638zM420 1604v173h173v-173h-173zM815 1604v173h173v-173h-173z" />
    <glyph glyph-name="Aring" unicode="&#xc5;" horiz-adv-x="1413" 
d="M17 0l587 1480h208l578 -1480h-227l-161 410h-627l-163 -410h-195zM436 566h505l-252 638zM708 1604c-63.333 0 -117 22 -161 66s-66 97.667 -66 161c0 62.667 22 116.167 66 160.5s97.667 66.5 161 66.5c62.667 0 116.167 -22 160.5 -66s66.5 -97.667 66.5 -161
s-22 -117 -66 -161s-97.667 -66 -161 -66zM708 1690c39.333 0 72.668 13.6689 100.001 41.002s41 60.666 41 99.999s-13.833 72.666 -41.5 99.999s-60.834 41 -99.501 41c-39.333 0 -72.666 -13.667 -99.999 -41s-41 -60.666 -41 -99.999
c0 -38.667 13.667 -71.834 41 -99.501s60.666 -41.5 99.999 -41.5z" />
    <glyph glyph-name="AE" unicode="&#xc6;" horiz-adv-x="1857" 
d="M18 0l861 1480h883v-157h-618v-475h518v-155h-518v-536h664v-157h-874v414h-483l-241 -414h-192zM540 569h394v671z" />
    <glyph glyph-name="Ccedilla" unicode="&#xc7;" horiz-adv-x="1417" 
d="M1303 76c-146 -75.333 -305.334 -113 -478.001 -113c-230 0 -407.667 67.333 -533 202s-188 326 -188 574c0 247.333 63.833 438.833 191.5 574.5s307.834 203.5 540.501 203.5c132 0 287 -21.667 465 -65v-197c-202.667 70 -359 105 -469 105
c-160.667 0 -285 -54.333 -373 -163s-132 -262 -132 -460c0 -189.333 47 -338.333 141 -447s222.667 -163 386 -163c139.333 0 289 43 449 129v-180zM769.999 0h97l-60 -109c51.333 0 96.5 -15.833 135.5 -47.5s58.5 -68.5 58.5 -110.5c0 -46 -19.5 -85 -58.5 -117
s-86.5 -48 -142.5 -48c-48 0 -96.667 7 -146 21v81c30.667 -10 65.667 -15 105 -15c68.667 0 103 24.667 103 74c0 64 -62.333 96 -187 96z" />
    <glyph glyph-name="Egrave" unicode="&#xc8;" horiz-adv-x="1110" 
d="M191 0v1480h827v-157h-617v-475h517v-155h-517v-536h660v-157h-870zM765 1604h-148l-321 321h228z" />
    <glyph glyph-name="Eacute" unicode="&#xc9;" horiz-adv-x="1110" 
d="M191 0v1480h827v-157h-617v-475h517v-155h-517v-536h660v-157h-870zM456 1604l241 321h228l-321 -321h-148z" />
    <glyph glyph-name="Ecircumflex" unicode="&#xca;" horiz-adv-x="1110" 
d="M191 0v1480h827v-157h-617v-475h517v-155h-517v-536h660v-157h-870zM265 1604l241 321h218l241 -321h-148l-203 202l-201 -202h-148z" />
    <glyph glyph-name="Edieresis" unicode="&#xcb;" horiz-adv-x="1110" 
d="M191 0v1480h827v-157h-617v-475h517v-155h-517v-536h660v-157h-870zM342 1604v173h173v-173h-173zM737 1604v173h173v-173h-173z" />
    <glyph glyph-name="Igrave" unicode="&#xcc;" horiz-adv-x="590" 
d="M190 0v1480h210v-1480h-210zM443 1604h-148l-321 321h228z" />
    <glyph glyph-name="Iacute" unicode="&#xcd;" horiz-adv-x="590" 
d="M190 0v1480h210v-1480h-210zM147 1604l241 321h228l-321 -321h-148z" />
    <glyph glyph-name="Icircumflex" unicode="&#xce;" horiz-adv-x="590" 
d="M190 0v1480h210v-1480h-210zM-55 1604l241 321h218l241 -321h-148l-203 202l-201 -202h-148z" />
    <glyph glyph-name="Idieresis" unicode="&#xcf;" horiz-adv-x="590" 
d="M190 0v1480h210v-1480h-210zM11 1604v173h173v-173h-173zM406 1604v173h173v-173h-173z" />
    <glyph glyph-name="Eth" unicode="&#xd0;" horiz-adv-x="1534" 
d="M192 0v679h-222v157h222v644h492c147.333 0 266 -16.333 356 -49s168 -88 234 -166c104.667 -124 157 -287.333 157 -490c0 -228.667 -61.333 -414 -184 -556c-66.667 -78 -143.667 -134 -231 -168s-197 -51 -329 -51h-495zM402 157h268.998
c192.667 0 328.667 51.667 408 155c86 110 129 257.667 129 443c0 174 -42.333 310.667 -127 410c-51.333 60.667 -112.666 102.167 -183.999 124.5s-178.666 33.5 -321.999 33.5h-173v-487h333v-157h-333v-522z" />
    <glyph glyph-name="Ntilde" unicode="&#xd1;" horiz-adv-x="1513" 
d="M191 0v1480h206l745 -1143v1143h180v-1480h-205l-746 1143v-1143h-180zM448 1604c7.33301 156 69 234 185 234c48.667 0 93.667 -12.667 135 -38l60 -37c37.333 -23.333 65.666 -35 84.999 -35c46 0 72 36.667 78 110h123c-7.33301 -156 -69 -234 -185 -234
c-48.667 0 -93.667 13 -135 39l-60 37c-37.333 22.667 -65.666 34 -84.999 34c-46 0 -72 -36.667 -78 -110h-123z" />
    <glyph glyph-name="Ograve" unicode="&#xd2;" horiz-adv-x="1591" 
d="M796 -37c-210 0 -377.833 70.5 -503.5 211.5s-188.5 329.5 -188.5 565.5s62.833 424.5 188.5 565.5s293.5 211.5 503.5 211.5s377.833 -70.5 503.5 -211.5s188.5 -329.5 188.5 -565.5s-62.833 -424.5 -188.5 -565.5s-293.5 -211.5 -503.5 -211.5zM796 120
c147.333 0 262.333 54.833 345 164.5s124 262.167 124 457.5c0 194 -41.333 345.5 -124 454.5s-197.667 163.5 -345 163.5s-262.333 -54.5 -345 -163.5s-124 -260.5 -124 -454.5c0 -195.333 41.333 -347.833 124 -457.5s197.667 -164.5 345 -164.5zM944 1604h-148l-321 321
h228z" />
    <glyph glyph-name="Oacute" unicode="&#xd3;" horiz-adv-x="1591" 
d="M796 -37c-210 0 -377.833 70.5 -503.5 211.5s-188.5 329.5 -188.5 565.5s62.833 424.5 188.5 565.5s293.5 211.5 503.5 211.5s377.833 -70.5 503.5 -211.5s188.5 -329.5 188.5 -565.5s-62.833 -424.5 -188.5 -565.5s-293.5 -211.5 -503.5 -211.5zM796 120
c147.333 0 262.333 54.833 345 164.5s124 262.167 124 457.5c0 194 -41.333 345.5 -124 454.5s-197.667 163.5 -345 163.5s-262.333 -54.5 -345 -163.5s-124 -260.5 -124 -454.5c0 -195.333 41.333 -347.833 124 -457.5s197.667 -164.5 345 -164.5zM648 1604l241 321h228
l-321 -321h-148z" />
    <glyph glyph-name="Ocircumflex" unicode="&#xd4;" horiz-adv-x="1591" 
d="M796 -37c-210 0 -377.833 70.5 -503.5 211.5s-188.5 329.5 -188.5 565.5s62.833 424.5 188.5 565.5s293.5 211.5 503.5 211.5s377.833 -70.5 503.5 -211.5s188.5 -329.5 188.5 -565.5s-62.833 -424.5 -188.5 -565.5s-293.5 -211.5 -503.5 -211.5zM796 120
c147.333 0 262.333 54.833 345 164.5s124 262.167 124 457.5c0 194 -41.333 345.5 -124 454.5s-197.667 163.5 -345 163.5s-262.333 -54.5 -345 -163.5s-124 -260.5 -124 -454.5c0 -195.333 41.333 -347.833 124 -457.5s197.667 -164.5 345 -164.5zM446 1604l241 321h218
l241 -321h-148l-203 202l-201 -202h-148z" />
    <glyph glyph-name="Otilde" unicode="&#xd5;" horiz-adv-x="1591" 
d="M796 -37c-210 0 -377.833 70.5 -503.5 211.5s-188.5 329.5 -188.5 565.5s62.833 424.5 188.5 565.5s293.5 211.5 503.5 211.5s377.833 -70.5 503.5 -211.5s188.5 -329.5 188.5 -565.5s-62.833 -424.5 -188.5 -565.5s-293.5 -211.5 -503.5 -211.5zM796 120
c147.333 0 262.333 54.833 345 164.5s124 262.167 124 457.5c0 194 -41.333 345.5 -124 454.5s-197.667 163.5 -345 163.5s-262.333 -54.5 -345 -163.5s-124 -260.5 -124 -454.5c0 -195.333 41.333 -347.833 124 -457.5s197.667 -164.5 345 -164.5zM463 1604
c7.33301 156 69 234 185 234c48.667 0 93.667 -12.667 135 -38l60 -37c37.333 -23.333 65.666 -35 84.999 -35c46 0 72 36.667 78 110h123c-7.33301 -156 -69 -234 -185 -234c-48.667 0 -93.667 13 -135 39l-60 37c-37.333 22.667 -65.666 34 -84.999 34
c-46 0 -72 -36.667 -78 -110h-123z" />
    <glyph glyph-name="Odieresis" unicode="&#xd6;" horiz-adv-x="1591" 
d="M796 -37c-210 0 -377.833 70.5 -503.5 211.5s-188.5 329.5 -188.5 565.5s62.833 424.5 188.5 565.5s293.5 211.5 503.5 211.5s377.833 -70.5 503.5 -211.5s188.5 -329.5 188.5 -565.5s-62.833 -424.5 -188.5 -565.5s-293.5 -211.5 -503.5 -211.5zM796 120
c147.333 0 262.333 54.833 345 164.5s124 262.167 124 457.5c0 194 -41.333 345.5 -124 454.5s-197.667 163.5 -345 163.5s-262.333 -54.5 -345 -163.5s-124 -260.5 -124 -454.5c0 -195.333 41.333 -347.833 124 -457.5s197.667 -164.5 345 -164.5zM512 1604v173h173v-173
h-173zM907 1604v173h173v-173h-173z" />
    <glyph glyph-name="multiply" unicode="&#xd7;" 
d="M222 70l522 522l-522 523l70 69l522 -522l523 522l69 -69l-522 -523l522 -522l-69 -70l-523 523l-522 -523z" />
    <glyph glyph-name="Oslash" unicode="&#xd8;" horiz-adv-x="1591" 
d="M1097 1247c-79.333 75.333 -179.999 113 -301.999 113c-146.667 0 -261.334 -54.5 -344.001 -163.5s-124 -260.5 -124 -454.5c0 -155.333 27.667 -286.333 83 -393zM495.001 234c79.333 -76 180.333 -114 303 -114c146 0 260.333 54.667 343 164s124 261 124 455
c0 156.667 -27.667 287.667 -83 393zM115.001 -37l168.999 220.999c-120 144.667 -180 330.334 -180 557.001c0 236 62.833 424.333 188.5 565s293.167 211 502.5 211c158 0 295.667 -42 413 -126l97 126h172l-169 -220c120 -144 180 -330.333 180 -559
c0 -234 -62.833 -421.667 -188.5 -563s-292.5 -212 -500.5 -212c-163.333 0 -301.666 42 -414.999 126l-96 -126h-173z" />
    <glyph glyph-name="Ugrave" unicode="&#xd9;" horiz-adv-x="1419" 
d="M179 1480l210 -0.000976562v-934c0 -148.667 27.5 -256.834 82.5 -324.501s142.5 -101.5 262.5 -101.5c117.333 0 200.5 31.833 249.5 95.5s73.5 171.5 73.5 323.5v941h184v-938c0 -129.333 -12.667 -228.666 -38 -297.999s-71 -130.333 -137 -183
c-82.667 -65.333 -196.334 -98 -341.001 -98c-187.333 0 -325.166 47.333 -413.499 142s-132.5 242.334 -132.5 443.001v932zM871 1604h-148l-321 321h228z" />
    <glyph glyph-name="Uacute" unicode="&#xda;" horiz-adv-x="1419" 
d="M179 1480l210 -0.000976562v-934c0 -148.667 27.5 -256.834 82.5 -324.501s142.5 -101.5 262.5 -101.5c117.333 0 200.5 31.833 249.5 95.5s73.5 171.5 73.5 323.5v941h184v-938c0 -129.333 -12.667 -228.666 -38 -297.999s-71 -130.333 -137 -183
c-82.667 -65.333 -196.334 -98 -341.001 -98c-187.333 0 -325.166 47.333 -413.499 142s-132.5 242.334 -132.5 443.001v932zM575 1604l241 321h228l-321 -321h-148z" />
    <glyph glyph-name="Ucircumflex" unicode="&#xdb;" horiz-adv-x="1419" 
d="M179 1480l210 -0.000976562v-934c0 -148.667 27.5 -256.834 82.5 -324.501s142.5 -101.5 262.5 -101.5c117.333 0 200.5 31.833 249.5 95.5s73.5 171.5 73.5 323.5v941h184v-938c0 -129.333 -12.667 -228.666 -38 -297.999s-71 -130.333 -137 -183
c-82.667 -65.333 -196.334 -98 -341.001 -98c-187.333 0 -325.166 47.333 -413.499 142s-132.5 242.334 -132.5 443.001v932zM373 1604l241 321h218l241 -321h-148l-203 202l-201 -202h-148z" />
    <glyph glyph-name="Udieresis" unicode="&#xdc;" horiz-adv-x="1419" 
d="M179 1480l210 -0.000976562v-934c0 -148.667 27.5 -256.834 82.5 -324.501s142.5 -101.5 262.5 -101.5c117.333 0 200.5 31.833 249.5 95.5s73.5 171.5 73.5 323.5v941h184v-938c0 -129.333 -12.667 -228.666 -38 -297.999s-71 -130.333 -137 -183
c-82.667 -65.333 -196.334 -98 -341.001 -98c-187.333 0 -325.166 47.333 -413.499 142s-132.5 242.334 -132.5 443.001v932zM426 1604v173h173v-173h-173zM821 1604v173h173v-173h-173z" />
    <glyph glyph-name="Yacute" unicode="&#xdd;" horiz-adv-x="1276" 
d="M511 0v618l-494 862h240l384 -668l414 668h195l-529 -858v-622h-210zM493 1604l241 321h228l-321 -321h-148z" />
    <glyph glyph-name="Thorn" unicode="&#xde;" horiz-adv-x="1132" 
d="M191 0v1480h208v-293h195c178.667 0 307 -30.333 385 -91s117 -159.667 117 -297c0 -158.667 -53.167 -282.334 -159.5 -371.001s-254.5 -133 -444.5 -133h-93v-295h-208zM399 449.001h109c116.667 0 207 29.167 271 87.5s96 140.5 96 246.5c0 88 -26.833 151 -80.5 189
s-142.5 57 -266.5 57h-129v-580z" />
    <glyph glyph-name="germandbls" unicode="&#xdf;" horiz-adv-x="1225" 
d="M197 0l0.00195312 1151c0 164.667 27.833 281.334 83.5 350.001s150.167 103 283.5 103c110.667 0 199 -24 265 -72s99 -112 99 -192c0 -81.333 -43.667 -179.666 -131 -294.999c-51.333 -67.333 -77 -114.333 -77 -141c0 -40.667 36.667 -92.334 110 -155.001l161 -136
c115.333 -97.333 173 -202 173 -314c0 -100 -31.333 -179 -94 -237s-147.334 -87 -254.001 -87c-94 0 -188 19.333 -282 58v169c122 -52.667 216 -79 282 -79c49.333 0 88.666 14.333 117.999 43s44 67 44 115c0 34 -7.66699 63.333 -23 88s-46 56.667 -92 96l-191 164
c-83.333 72 -125 145 -125 219c0 56 33.333 135.333 100 238c55.333 84.667 83 157.667 83 219c0 100.667 -56.667 151 -170 151c-110.667 0 -166 -74 -166 -222v-1234h-197z" />
    <glyph glyph-name="agrave" unicode="&#xe0;" horiz-adv-x="1131" 
d="M757 138c-118 -108.667 -231.669 -163.001 -341.002 -163.001c-90 0 -164.667 28.167 -224 84.5s-89 127.5 -89 213.5c0 118.667 49.833 209.834 149.5 273.501s242.834 95.5 429.501 95.5h46v131c0 126 -65.667 189 -197 189c-102 0 -213.333 -32 -334 -96v163
c132.667 54 257.667 81 375 81c120.667 0 209.667 -27.5 267 -82.5s86 -139.833 86 -254.5v-492c0 -112.667 34.667 -169 104 -169c8.66699 0 21.334 1.33301 38.001 4l14 -109c-44.667 -21.333 -94 -32 -148 -32c-92 0 -150.667 54.333 -176 163zM727.998 244.999v281
l-63 2c-109.333 0 -197.5 -20.333 -264.5 -61s-100.5 -94.667 -100.5 -162c0 -47.333 16.667 -87.333 50 -120s74 -49 122 -49c82 0 167.333 36.333 256 109zM722.998 1283h-148l-321 321h228z" />
    <glyph glyph-name="aacute" unicode="&#xe1;" horiz-adv-x="1131" 
d="M757 138c-118 -108.667 -231.669 -163.001 -341.002 -163.001c-90 0 -164.667 28.167 -224 84.5s-89 127.5 -89 213.5c0 118.667 49.833 209.834 149.5 273.501s242.834 95.5 429.501 95.5h46v131c0 126 -65.667 189 -197 189c-102 0 -213.333 -32 -334 -96v163
c132.667 54 257.667 81 375 81c120.667 0 209.667 -27.5 267 -82.5s86 -139.833 86 -254.5v-492c0 -112.667 34.667 -169 104 -169c8.66699 0 21.334 1.33301 38.001 4l14 -109c-44.667 -21.333 -94 -32 -148 -32c-92 0 -150.667 54.333 -176 163zM727.998 244.999v281
l-63 2c-109.333 0 -197.5 -20.333 -264.5 -61s-100.5 -94.667 -100.5 -162c0 -47.333 16.667 -87.333 50 -120s74 -49 122 -49c82 0 167.333 36.333 256 109zM425.998 1283l241 321h228l-321 -321h-148z" />
    <glyph glyph-name="acircumflex" unicode="&#xe2;" horiz-adv-x="1131" 
d="M757 138c-118 -108.667 -231.669 -163.001 -341.002 -163.001c-90 0 -164.667 28.167 -224 84.5s-89 127.5 -89 213.5c0 118.667 49.833 209.834 149.5 273.501s242.834 95.5 429.501 95.5h46v131c0 126 -65.667 189 -197 189c-102 0 -213.333 -32 -334 -96v163
c132.667 54 257.667 81 375 81c120.667 0 209.667 -27.5 267 -82.5s86 -139.833 86 -254.5v-492c0 -112.667 34.667 -169 104 -169c8.66699 0 21.334 1.33301 38.001 4l14 -109c-44.667 -21.333 -94 -32 -148 -32c-92 0 -150.667 54.333 -176 163zM727.998 244.999v281
l-63 2c-109.333 0 -197.5 -20.333 -264.5 -61s-100.5 -94.667 -100.5 -162c0 -47.333 16.667 -87.333 50 -120s74 -49 122 -49c82 0 167.333 36.333 256 109zM219.998 1283l241 321h218l241 -321h-148l-203 202l-201 -202h-148z" />
    <glyph glyph-name="atilde" unicode="&#xe3;" horiz-adv-x="1131" 
d="M757 138c-118 -108.667 -231.669 -163.001 -341.002 -163.001c-90 0 -164.667 28.167 -224 84.5s-89 127.5 -89 213.5c0 118.667 49.833 209.834 149.5 273.501s242.834 95.5 429.501 95.5h46v131c0 126 -65.667 189 -197 189c-102 0 -213.333 -32 -334 -96v163
c132.667 54 257.667 81 375 81c120.667 0 209.667 -27.5 267 -82.5s86 -139.833 86 -254.5v-492c0 -112.667 34.667 -169 104 -169c8.66699 0 21.334 1.33301 38.001 4l14 -109c-44.667 -21.333 -94 -32 -148 -32c-92 0 -150.667 54.333 -176 163zM727.998 244.999v281
l-63 2c-109.333 0 -197.5 -20.333 -264.5 -61s-100.5 -94.667 -100.5 -162c0 -47.333 16.667 -87.333 50 -120s74 -49 122 -49c82 0 167.333 36.333 256 109zM233.998 1283c7.33301 156 69 234 185 234c48.667 0 93.667 -12.667 135 -38l60 -37
c37.333 -23.333 65.666 -35 84.999 -35c46 0 72 36.667 78 110h123c-7.33301 -156 -69 -234 -185 -234c-48.667 0 -93.667 13 -135 39l-60 37c-37.333 22.667 -65.666 34 -84.999 34c-46 0 -72 -36.667 -78 -110h-123z" />
    <glyph glyph-name="adieresis" unicode="&#xe4;" horiz-adv-x="1131" 
d="M757 138c-118 -108.667 -231.669 -163.001 -341.002 -163.001c-90 0 -164.667 28.167 -224 84.5s-89 127.5 -89 213.5c0 118.667 49.833 209.834 149.5 273.501s242.834 95.5 429.501 95.5h46v131c0 126 -65.667 189 -197 189c-102 0 -213.333 -32 -334 -96v163
c132.667 54 257.667 81 375 81c120.667 0 209.667 -27.5 267 -82.5s86 -139.833 86 -254.5v-492c0 -112.667 34.667 -169 104 -169c8.66699 0 21.334 1.33301 38.001 4l14 -109c-44.667 -21.333 -94 -32 -148 -32c-92 0 -150.667 54.333 -176 163zM727.998 244.999v281
l-63 2c-109.333 0 -197.5 -20.333 -264.5 -61s-100.5 -94.667 -100.5 -162c0 -47.333 16.667 -87.333 50 -120s74 -49 122 -49c82 0 167.333 36.333 256 109zM283.998 1283v173h173v-173h-173zM678.998 1283v173h173v-173h-173z" />
    <glyph glyph-name="aring" unicode="&#xe5;" horiz-adv-x="1131" 
d="M757 138c-118 -108.667 -231.669 -163.001 -341.002 -163.001c-90 0 -164.667 28.167 -224 84.5s-89 127.5 -89 213.5c0 118.667 49.833 209.834 149.5 273.501s242.834 95.5 429.501 95.5h46v131c0 126 -65.667 189 -197 189c-102 0 -213.333 -32 -334 -96v163
c132.667 54 257.667 81 375 81c120.667 0 209.667 -27.5 267 -82.5s86 -139.833 86 -254.5v-492c0 -112.667 34.667 -169 104 -169c8.66699 0 21.334 1.33301 38.001 4l14 -109c-44.667 -21.333 -94 -32 -148 -32c-92 0 -150.667 54.333 -176 163zM727.998 244.999v281
l-63 2c-109.333 0 -197.5 -20.333 -264.5 -61s-100.5 -94.667 -100.5 -162c0 -47.333 16.667 -87.333 50 -120s74 -49 122 -49c82 0 167.333 36.333 256 109zM567.998 1283c-63.333 0 -117 22 -161 66s-66 97.667 -66 161c0 62.667 22 116.167 66 160.5
s97.667 66.5 161 66.5c62.667 0 116.167 -22 160.5 -66s66.5 -97.667 66.5 -161s-22 -117 -66 -161s-97.667 -66 -161 -66zM567.998 1369c39.333 0 72.668 13.6689 100.001 41.002s41 60.666 41 99.999s-13.833 72.666 -41.5 99.999s-60.834 41 -99.501 41
c-39.333 0 -72.666 -13.667 -99.999 -41s-41 -60.666 -41 -99.999c0 -38.667 13.667 -71.834 41 -99.501s60.666 -41.5 99.999 -41.5z" />
    <glyph glyph-name="ae" unicode="&#xe6;" horiz-adv-x="1743" 
d="M809 193c-126.667 -145.333 -257.667 -218.001 -393 -218.001c-90 0 -164.667 28.167 -224 84.5s-89 127.5 -89 213.5c0 118.667 49.833 209.834 149.5 273.501s242.834 95.5 429.501 95.5h46v131c0 126 -65.667 189 -197 189c-102 0 -213.333 -32 -334 -96v163
c132.667 54 258 81 376 81c128 0 229.333 -40.333 304 -121c82 80.667 183 121 303 121c278.667 0 418 -199.333 418 -598h-672c18.667 -259.333 140.334 -389 365.001 -389c93.333 0 195.666 23.667 306.999 71v-157c-128.667 -41.333 -248.334 -62 -359.001 -62
c-190 0 -333.333 72.667 -430 218zM728 244.999v281l-63 2c-109.333 0 -197.5 -20.333 -264.5 -61s-100.5 -94.667 -100.5 -162c0 -47.333 16.667 -87.333 50 -120s74 -49 122 -49c82 0 167.333 36.333 256 109zM932 647.999h456.001c0 210 -71.333 315 -214 315
c-144.667 0 -225.334 -105 -242.001 -315z" />
    <glyph glyph-name="ccedilla" unicode="&#xe7;" horiz-adv-x="1049" 
d="M951 33c-127.333 -38.667 -237.333 -58.001 -330 -58.001c-146.667 0 -268.334 54.333 -365.001 163s-145 245.667 -145 411c0 176.667 47.833 314.334 143.5 413.001s229.167 148 400.5 148c84.667 0 179.334 -11.667 284.001 -35v-165c-111.333 32.667 -202 49 -272 49
c-101.333 0 -182.333 -37.833 -243 -113.5s-91 -176.5 -91 -302.5c0 -122 31.333 -220.667 94 -296s144.667 -113 246 -113c90 0 182.667 23 278 69v-170zM587 -0.000976562h97l-60 -109c51.333 0 96.5 -15.833 135.5 -47.5s58.5 -68.5 58.5 -110.5
c0 -46 -19.5 -85 -58.5 -117s-86.5 -48 -142.5 -48c-48 0 -96.667 7 -146 21v81c30.667 -10 65.667 -15 105 -15c68.667 0 103 24.667 103 74c0 64 -62.333 96 -187 96z" />
    <glyph glyph-name="egrave" unicode="&#xe8;" horiz-adv-x="1141" 
d="M993 35c-132 -40 -244.999 -59.999 -338.999 -59.999c-160.667 0 -291.334 53.167 -392.001 159.5s-151 244.166 -151 413.499c0 164.667 44.5 299.667 133.5 405s202.833 158 341.5 158c131.333 0 232.833 -46.833 304.5 -140.5s107.5 -226.5 107.5 -398.5l-1 -60h-685
c28.667 -258 155 -387 379 -387c82 0 182.667 22 302 66v-156zM321.001 660.001h478.999c0 202 -75.333 303 -226 303c-151.333 0 -235.666 -101 -252.999 -303zM717 1283h-148l-321 321h228z" />
    <glyph glyph-name="eacute" unicode="&#xe9;" horiz-adv-x="1141" 
d="M993 35c-132 -40 -244.999 -59.999 -338.999 -59.999c-160.667 0 -291.334 53.167 -392.001 159.5s-151 244.166 -151 413.499c0 164.667 44.5 299.667 133.5 405s202.833 158 341.5 158c131.333 0 232.833 -46.833 304.5 -140.5s107.5 -226.5 107.5 -398.5l-1 -60h-685
c28.667 -258 155 -387 379 -387c82 0 182.667 22 302 66v-156zM321.001 660.001h478.999c0 202 -75.333 303 -226 303c-151.333 0 -235.666 -101 -252.999 -303zM421 1283l241 321h228l-321 -321h-148z" />
    <glyph glyph-name="ecircumflex" unicode="&#xea;" horiz-adv-x="1141" 
d="M993 35c-132 -40 -244.999 -59.999 -338.999 -59.999c-160.667 0 -291.334 53.167 -392.001 159.5s-151 244.166 -151 413.499c0 164.667 44.5 299.667 133.5 405s202.833 158 341.5 158c131.333 0 232.833 -46.833 304.5 -140.5s107.5 -226.5 107.5 -398.5l-1 -60h-685
c28.667 -258 155 -387 379 -387c82 0 182.667 22 302 66v-156zM321.001 660.001h478.999c0 202 -75.333 303 -226 303c-151.333 0 -235.666 -101 -252.999 -303zM235 1283l241 321h218l241 -321h-148l-203 202l-201 -202h-148z" />
    <glyph glyph-name="edieresis" unicode="&#xeb;" horiz-adv-x="1141" 
d="M993 35c-132 -40 -244.999 -59.999 -338.999 -59.999c-160.667 0 -291.334 53.167 -392.001 159.5s-151 244.166 -151 413.499c0 164.667 44.5 299.667 133.5 405s202.833 158 341.5 158c131.333 0 232.833 -46.833 304.5 -140.5s107.5 -226.5 107.5 -398.5l-1 -60h-685
c28.667 -258 155 -387 379 -387c82 0 182.667 22 302 66v-156zM321.001 660.001h478.999c0 202 -75.333 303 -226 303c-151.333 0 -235.666 -101 -252.999 -303zM308 1283v173h173v-173h-173zM703 1283v173h173v-173h-173z" />
    <glyph glyph-name="igrave" unicode="&#xec;" horiz-adv-x="592" 
d="M197 0v1086h197v-1086h-197zM444 1283h-148l-321 321h228z" />
    <glyph glyph-name="iacute" unicode="&#xed;" horiz-adv-x="592" 
d="M197 0v1086h197v-1086h-197zM148 1283l241 321h228l-321 -321h-148z" />
    <glyph glyph-name="icircumflex" unicode="&#xee;" horiz-adv-x="592" 
d="M197 0v1086h197v-1086h-197zM-54 1283l241 321h218l241 -321h-148l-203 202l-201 -202h-148z" />
    <glyph glyph-name="idieresis" unicode="&#xef;" horiz-adv-x="592" 
d="M197 0v1086h197v-1086h-197zM12 1283v173h173v-173h-173zM407 1283v173h173v-173h-173z" />
    <glyph glyph-name="eth" unicode="&#xf0;" horiz-adv-x="1234" 
d="M110 1579c147.333 0 279.667 -25.333 397 -76l169 169l87 -87l-143 -143c160 -106 283.667 -234.167 371 -384.5s131 -310.5 131 -480.5c0 -181.333 -46.333 -327 -139 -437s-215.334 -165 -368.001 -165c-151.333 0 -273.5 51.667 -366.5 155s-139.5 239.333 -139.5 408
c0 162.667 46 295 138 397s211.333 153 358 153c41.333 0 87 -7 137 -21c-53.333 96.667 -135.666 180 -246.999 250l-168 -168l-87 87l144 144c-78 34 -169.333 51 -274 51v148zM620.001 123c93.333 0 167.167 37.8311 221.5 113.498s81.5 178.834 81.5 309.501
c0 264.667 -99.667 397 -299 397c-95.333 0 -170 -36 -224 -108s-81 -171.333 -81 -298c0 -127.333 27 -228.166 81 -302.499s127.333 -111.5 220 -111.5z" />
    <glyph glyph-name="ntilde" unicode="&#xf1;" horiz-adv-x="1271" 
d="M197 0l0.000976562 1086h197v-204c104 152 231.333 228 382 228c94.667 0 169.834 -29.833 225.501 -89.5s83.5 -139.834 83.5 -240.501v-780h-197v716c0 80.667 -11.833 138.167 -35.5 172.5s-62.834 51.5 -117.501 51.5c-120.667 0 -234.334 -79 -341.001 -237v-703
h-197zM333.001 1283c7.33301 156 69 234 185 234c48.667 0 93.667 -12.667 135 -38l60 -37c37.333 -23.333 65.666 -35 84.999 -35c46 0 72 36.667 78 110h123c-7.33301 -156 -69 -234 -185 -234c-48.667 0 -93.667 13 -135 39l-60 37c-37.333 22.667 -65.666 34 -84.999 34
c-46 0 -72 -36.667 -78 -110h-123z" />
    <glyph glyph-name="ograve" unicode="&#xf2;" horiz-adv-x="1258" 
d="M629 -25c-159.333 0 -285.5 51 -378.5 153s-139.5 240.333 -139.5 415s46.5 312.834 139.5 414.501s219.167 152.5 378.5 152.5s285.5 -50.833 378.5 -152.5s139.5 -239.834 139.5 -414.501s-46.5 -313 -139.5 -415s-219.167 -153 -378.5 -153zM629 123
c98 0 174 36.667 228 110s81 176.666 81 309.999s-27 236.5 -81 309.5s-130 109.5 -228 109.5s-173.833 -36.5 -227.5 -109.5s-80.5 -176.167 -80.5 -309.5s26.833 -236.666 80.5 -309.999s129.5 -110 227.5 -110zM777 1283h-148l-321 321h228z" />
    <glyph glyph-name="oacute" unicode="&#xf3;" horiz-adv-x="1258" 
d="M629 -25c-159.333 0 -285.5 51 -378.5 153s-139.5 240.333 -139.5 415s46.5 312.834 139.5 414.501s219.167 152.5 378.5 152.5s285.5 -50.833 378.5 -152.5s139.5 -239.834 139.5 -414.501s-46.5 -313 -139.5 -415s-219.167 -153 -378.5 -153zM629 123
c98 0 174 36.667 228 110s81 176.666 81 309.999s-27 236.5 -81 309.5s-130 109.5 -228 109.5s-173.833 -36.5 -227.5 -109.5s-80.5 -176.167 -80.5 -309.5s26.833 -236.666 80.5 -309.999s129.5 -110 227.5 -110zM481 1283l241 321h228l-321 -321h-148z" />
    <glyph glyph-name="ocircumflex" unicode="&#xf4;" horiz-adv-x="1258" 
d="M629 -25c-159.333 0 -285.5 51 -378.5 153s-139.5 240.333 -139.5 415s46.5 312.834 139.5 414.501s219.167 152.5 378.5 152.5s285.5 -50.833 378.5 -152.5s139.5 -239.834 139.5 -414.501s-46.5 -313 -139.5 -415s-219.167 -153 -378.5 -153zM629 123
c98 0 174 36.667 228 110s81 176.666 81 309.999s-27 236.5 -81 309.5s-130 109.5 -228 109.5s-173.833 -36.5 -227.5 -109.5s-80.5 -176.167 -80.5 -309.5s26.833 -236.666 80.5 -309.999s129.5 -110 227.5 -110zM279 1283l241 321h218l241 -321h-148l-203 202l-201 -202
h-148z" />
    <glyph glyph-name="otilde" unicode="&#xf5;" horiz-adv-x="1258" 
d="M629 -25c-159.333 0 -285.5 51 -378.5 153s-139.5 240.333 -139.5 415s46.5 312.834 139.5 414.501s219.167 152.5 378.5 152.5s285.5 -50.833 378.5 -152.5s139.5 -239.834 139.5 -414.501s-46.5 -313 -139.5 -415s-219.167 -153 -378.5 -153zM629 123
c98 0 174 36.667 228 110s81 176.666 81 309.999s-27 236.5 -81 309.5s-130 109.5 -228 109.5s-173.833 -36.5 -227.5 -109.5s-80.5 -176.167 -80.5 -309.5s26.833 -236.666 80.5 -309.999s129.5 -110 227.5 -110zM296 1283c7.33301 156 69 234 185 234
c48.667 0 93.667 -12.667 135 -38l60 -37c37.333 -23.333 65.666 -35 84.999 -35c46 0 72 36.667 78 110h123c-7.33301 -156 -69 -234 -185 -234c-48.667 0 -93.667 13 -135 39l-60 37c-37.333 22.667 -65.666 34 -84.999 34c-46 0 -72 -36.667 -78 -110h-123z" />
    <glyph glyph-name="odieresis" unicode="&#xf6;" horiz-adv-x="1258" 
d="M629 -25c-159.333 0 -285.5 51 -378.5 153s-139.5 240.333 -139.5 415s46.5 312.834 139.5 414.501s219.167 152.5 378.5 152.5s285.5 -50.833 378.5 -152.5s139.5 -239.834 139.5 -414.501s-46.5 -313 -139.5 -415s-219.167 -153 -378.5 -153zM629 123
c98 0 174 36.667 228 110s81 176.666 81 309.999s-27 236.5 -81 309.5s-130 109.5 -228 109.5s-173.833 -36.5 -227.5 -109.5s-80.5 -176.167 -80.5 -309.5s26.833 -236.666 80.5 -309.999s129.5 -110 227.5 -110zM345 1283v173h173v-173h-173zM740 1283v173h173v-173h-173z
" />
    <glyph glyph-name="divide" unicode="&#xf7;" 
d="M715 99v197h198v-197h-198zM222 543v99h1184v-99h-1184zM715 888v198h198v-198h-198z" />
    <glyph glyph-name="oslash" unicode="&#xf8;" horiz-adv-x="1258" 
d="M111 -25l127 169c-84.667 97.333 -127 229.333 -127 396c0 176 46.333 315 139 417s219 153 379 153c118.667 0 220 -28.333 304 -85l68 85h146l-129 -165l2 -4c84.667 -106 127 -238.333 127 -397c0 -174.667 -46.333 -313.167 -139 -415.5s-218.667 -153.5 -378 -153.5
c-116 0 -217.333 28.333 -304 85l-67 -85h-148zM895 787l-463 -591c51.333 -48.667 116.333 -73 195 -73c98 0 174.333 36.5 229 109.5s82 174.833 82 305.5c0 90.667 -14.333 173.667 -43 249zM364 298l463 590c-54 49.333 -119.333 74 -196 74
c-98 0 -174.167 -36.5 -228.5 -109.5s-81.5 -174.833 -81.5 -305.5c0 -96.667 14.333 -179.667 43 -249z" />
    <glyph glyph-name="ugrave" unicode="&#xf9;" horiz-adv-x="1271" 
d="M876 0v203.999c-104.667 -152.667 -231.667 -229 -381 -229c-94.667 0 -170 29.833 -226 89.5s-84 140.167 -84 241.5v780h197v-716c0 -81.333 11.833 -139.166 35.5 -173.499s63.167 -51.5 118.5 -51.5c120 0 233.333 79 340 237v704h197v-1086h-197zM777 1283h-148
l-321 321h228z" />
    <glyph glyph-name="uacute" unicode="&#xfa;" horiz-adv-x="1271" 
d="M876 0v203.999c-104.667 -152.667 -231.667 -229 -381 -229c-94.667 0 -170 29.833 -226 89.5s-84 140.167 -84 241.5v780h197v-716c0 -81.333 11.833 -139.166 35.5 -173.499s63.167 -51.5 118.5 -51.5c120 0 233.333 79 340 237v704h197v-1086h-197zM481 1283l241 321
h228l-321 -321h-148z" />
    <glyph glyph-name="ucircumflex" unicode="&#xfb;" horiz-adv-x="1271" 
d="M876 0v203.999c-104.667 -152.667 -231.667 -229 -381 -229c-94.667 0 -170 29.833 -226 89.5s-84 140.167 -84 241.5v780h197v-716c0 -81.333 11.833 -139.166 35.5 -173.499s63.167 -51.5 118.5 -51.5c120 0 233.333 79 340 237v704h197v-1086h-197zM279 1283l241 321
h218l241 -321h-148l-203 202l-201 -202h-148z" />
    <glyph glyph-name="udieresis" unicode="&#xfc;" horiz-adv-x="1271" 
d="M876 0v203.999c-104.667 -152.667 -231.667 -229 -381 -229c-94.667 0 -170 29.833 -226 89.5s-84 140.167 -84 241.5v780h197v-716c0 -81.333 11.833 -139.166 35.5 -173.499s63.167 -51.5 118.5 -51.5c120 0 233.333 79 340 237v704h197v-1086h-197zM345 1283v173h173
v-173h-173zM740 1283v173h173v-173h-173z" />
    <glyph glyph-name="yacute" unicode="&#xfd;" horiz-adv-x="1070" 
d="M260 -395l176 395l-420 1086h213l311 -818l332 818h186l-593 -1481h-205zM392 1283l241 321h228l-321 -321h-148z" />
    <glyph glyph-name="thorn" unicode="&#xfe;" horiz-adv-x="1289" 
d="M197 -395v1974h197v-697c80.667 152 201.667 228 363 228c130.667 0 233.5 -47.667 308.5 -143s112.5 -225.666 112.5 -390.999c0 -180 -42.5 -325.167 -127.5 -435.5s-196.833 -165.5 -335.5 -165.5c-128.667 0 -235.667 49.333 -321 148v-518h-197zM394 258.999
c101.333 -90.667 198 -136 290 -136c90.667 0 160.667 37.833 210 113.5s74 182.167 74 319.5c0 254.667 -84 382 -252 382c-110 0 -217.333 -59.667 -322 -179v-500z" />
    <glyph glyph-name="ydieresis" unicode="&#xff;" horiz-adv-x="1070" 
d="M260 -395l176 395l-420 1086h213l311 -818l332 818h186l-593 -1481h-205zM266 1283v173h173v-173h-173zM661 1283v173h173v-173h-173z" />
    <glyph glyph-name="Amacron" unicode="&#x100;" horiz-adv-x="1413" 
d="M17 0l587 1480h208l578 -1480h-227l-161 410h-627l-163 -410h-195zM436 566h505l-252 638zM387 1604v148h642v-148h-642z" />
    <glyph glyph-name="amacron" unicode="&#x101;" horiz-adv-x="1131" 
d="M757 138c-118 -108.667 -231.669 -163.001 -341.002 -163.001c-90 0 -164.667 28.167 -224 84.5s-89 127.5 -89 213.5c0 118.667 49.833 209.834 149.5 273.501s242.834 95.5 429.501 95.5h46v131c0 126 -65.667 189 -197 189c-102 0 -213.333 -32 -334 -96v163
c132.667 54 257.667 81 375 81c120.667 0 209.667 -27.5 267 -82.5s86 -139.833 86 -254.5v-492c0 -112.667 34.667 -169 104 -169c8.66699 0 21.334 1.33301 38.001 4l14 -109c-44.667 -21.333 -94 -32 -148 -32c-92 0 -150.667 54.333 -176 163zM727.998 244.999v281
l-63 2c-109.333 0 -197.5 -20.333 -264.5 -61s-100.5 -94.667 -100.5 -162c0 -47.333 16.667 -87.333 50 -120s74 -49 122 -49c82 0 167.333 36.333 256 109zM225.998 1283v148h642v-148h-642z" />
    <glyph glyph-name="Abreve" unicode="&#x102;" horiz-adv-x="1413" 
d="M17 0l587 1480h208l578 -1480h-227l-161 410h-627l-163 -410h-195zM436 566h505l-252 638zM370 1900h123.001c21.333 -98.667 91.333 -148 210 -148s188.667 49.333 210 148h123c-10 -89.333 -45.333 -161 -106 -215s-136.334 -81 -227.001 -81
s-166.167 26.833 -226.5 80.5s-95.833 125.5 -106.5 215.5z" />
    <glyph glyph-name="abreve" unicode="&#x103;" horiz-adv-x="1131" 
d="M757 138c-118 -108.667 -231.669 -163.001 -341.002 -163.001c-90 0 -164.667 28.167 -224 84.5s-89 127.5 -89 213.5c0 118.667 49.833 209.834 149.5 273.501s242.834 95.5 429.501 95.5h46v131c0 126 -65.667 189 -197 189c-102 0 -213.333 -32 -334 -96v163
c132.667 54 257.667 81 375 81c120.667 0 209.667 -27.5 267 -82.5s86 -139.833 86 -254.5v-492c0 -112.667 34.667 -169 104 -169c8.66699 0 21.334 1.33301 38.001 4l14 -109c-44.667 -21.333 -94 -32 -148 -32c-92 0 -150.667 54.333 -176 163zM727.998 244.999v281
l-63 2c-109.333 0 -197.5 -20.333 -264.5 -61s-100.5 -94.667 -100.5 -162c0 -47.333 16.667 -87.333 50 -120s74 -49 122 -49c82 0 167.333 36.333 256 109zM258.998 1579h123.001c21.333 -98.667 91.333 -148 210 -148s188.667 49.333 210 148h123
c-10 -89.333 -45.333 -161 -106 -215s-136.334 -81 -227.001 -81s-166.167 26.833 -226.5 80.5s-95.833 125.5 -106.5 215.5z" />
    <glyph glyph-name="Aogonek" unicode="&#x104;" horiz-adv-x="1413" 
d="M17 0l587 1480h208l578 -1480h-227l-161 410h-627l-163 -410h-195zM436 566h505l-252 638zM1163 0l106.999 0.000976562c-85.333 -51.333 -128 -110.666 -128 -177.999c0 -64.667 37.667 -97 113 -97c38 0 68.667 5 92 15v-81c-40 -19.333 -86 -29 -138 -29
c-61.333 0 -110.666 14.667 -147.999 44s-56 67.666 -56 114.999c0 83.333 52.667 153.666 158 210.999z" />
    <glyph glyph-name="aogonek" unicode="&#x105;" horiz-adv-x="1131" 
d="M757 138c-118 -108.667 -231.669 -163.001 -341.002 -163.001c-90 0 -164.667 28.167 -224 84.5s-89 127.5 -89 213.5c0 118.667 49.833 209.834 149.5 273.501s242.834 95.5 429.501 95.5h46v131c0 126 -65.667 189 -197 189c-102 0 -213.333 -32 -334 -96v163
c132.667 54 257.667 81 375 81c120.667 0 209.667 -27.5 267 -82.5s86 -139.833 86 -254.5v-492c0 -112.667 34.667 -169 104 -169c8.66699 0 21.334 1.33301 38.001 4l14 -109c-44.667 -21.333 -94 -32 -148 -32c-92 0 -150.667 54.333 -176 163zM727.998 244.999v281
l-63 2c-109.333 0 -197.5 -20.333 -264.5 -61s-100.5 -94.667 -100.5 -162c0 -47.333 16.667 -87.333 50 -120s74 -49 122 -49c82 0 167.333 36.333 256 109zM863.998 -0.000976562l106.999 0.000976562c-85.333 -51.333 -128 -110.666 -128 -177.999
c0 -64.667 37.667 -97 113 -97c38 0 68.667 5 92 15v-81c-40 -19.333 -86 -29 -138 -29c-61.333 0 -110.666 14.667 -147.999 44s-56 67.666 -56 114.999c0 83.333 52.667 153.666 158 210.999z" />
    <glyph glyph-name="Cacute" unicode="&#x106;" horiz-adv-x="1417" 
d="M1303 76c-146 -75.333 -305.334 -113 -478.001 -113c-230 0 -407.667 67.333 -533 202s-188 326 -188 574c0 247.333 63.833 438.833 191.5 574.5s307.834 203.5 540.501 203.5c132 0 287 -21.667 465 -65v-197c-202.667 70 -359 105 -469 105
c-160.667 0 -285 -54.333 -373 -163s-132 -262 -132 -460c0 -189.333 47 -338.333 141 -447s222.667 -163 386 -163c139.333 0 289 43 449 129v-180zM653.999 1604l241 321h228l-321 -321h-148z" />
    <glyph glyph-name="cacute" unicode="&#x107;" horiz-adv-x="1049" 
d="M951 33c-127.333 -38.667 -237.333 -58.001 -330 -58.001c-146.667 0 -268.334 54.333 -365.001 163s-145 245.667 -145 411c0 176.667 47.833 314.334 143.5 413.001s229.167 148 400.5 148c84.667 0 179.334 -11.667 284.001 -35v-165c-111.333 32.667 -202 49 -272 49
c-101.333 0 -182.333 -37.833 -243 -113.5s-91 -176.5 -91 -302.5c0 -122 31.333 -220.667 94 -296s144.667 -113 246 -113c90 0 182.667 23 278 69v-170zM445 1283l241 321h228l-321 -321h-148z" />
    <glyph glyph-name="Ccircumflex" unicode="&#x108;" horiz-adv-x="1417" 
d="M1303 76c-146 -75.333 -305.334 -113 -478.001 -113c-230 0 -407.667 67.333 -533 202s-188 326 -188 574c0 247.333 63.833 438.833 191.5 574.5s307.834 203.5 540.501 203.5c132 0 287 -21.667 465 -65v-197c-202.667 70 -359 105 -469 105
c-160.667 0 -285 -54.333 -373 -163s-132 -262 -132 -460c0 -189.333 47 -338.333 141 -447s222.667 -163 386 -163c139.333 0 289 43 449 129v-180zM476.999 1604l241 321h218l241 -321h-148l-203 202l-201 -202h-148z" />
    <glyph glyph-name="ccircumflex" unicode="&#x109;" horiz-adv-x="1049" 
d="M951 33c-127.333 -38.667 -237.333 -58.001 -330 -58.001c-146.667 0 -268.334 54.333 -365.001 163s-145 245.667 -145 411c0 176.667 47.833 314.334 143.5 413.001s229.167 148 400.5 148c84.667 0 179.334 -11.667 284.001 -35v-165c-111.333 32.667 -202 49 -272 49
c-101.333 0 -182.333 -37.833 -243 -113.5s-91 -176.5 -91 -302.5c0 -122 31.333 -220.667 94 -296s144.667 -113 246 -113c90 0 182.667 23 278 69v-170zM260 1283l241 321h218l241 -321h-148l-203 202l-201 -202h-148z" />
    <glyph glyph-name="Cdot" unicode="&#x10a;" horiz-adv-x="1417" 
d="M1303 76c-146 -75.333 -305.334 -113 -478.001 -113c-230 0 -407.667 67.333 -533 202s-188 326 -188 574c0 247.333 63.833 438.833 191.5 574.5s307.834 203.5 540.501 203.5c132 0 287 -21.667 465 -65v-197c-202.667 70 -359 105 -469 105
c-160.667 0 -285 -54.333 -373 -163s-132 -262 -132 -460c0 -189.333 47 -338.333 141 -447s222.667 -163 386 -163c139.333 0 289 43 449 129v-180zM729.999 1604v197h197v-197h-197z" />
    <glyph glyph-name="cdot" unicode="&#x10b;" horiz-adv-x="1049" 
d="M951 33c-127.333 -38.667 -237.333 -58.001 -330 -58.001c-146.667 0 -268.334 54.333 -365.001 163s-145 245.667 -145 411c0 176.667 47.833 314.334 143.5 413.001s229.167 148 400.5 148c84.667 0 179.334 -11.667 284.001 -35v-165c-111.333 32.667 -202 49 -272 49
c-101.333 0 -182.333 -37.833 -243 -113.5s-91 -176.5 -91 -302.5c0 -122 31.333 -220.667 94 -296s144.667 -113 246 -113c90 0 182.667 23 278 69v-170zM545 1283v197h197v-197h-197z" />
    <glyph glyph-name="Ccaron" unicode="&#x10c;" horiz-adv-x="1417" 
d="M1303 76c-146 -75.333 -305.334 -113 -478.001 -113c-230 0 -407.667 67.333 -533 202s-188 326 -188 574c0 247.333 63.833 438.833 191.5 574.5s307.834 203.5 540.501 203.5c132 0 287 -21.667 465 -65v-197c-202.667 70 -359 105 -469 105
c-160.667 0 -285 -54.333 -373 -163s-132 -262 -132 -460c0 -189.333 47 -338.333 141 -447s222.667 -163 386 -163c139.333 0 289 43 449 129v-180zM1175 1925l-241 -321h-218l-241 321h148l203 -202l201 202h148z" />
    <glyph glyph-name="ccaron" unicode="&#x10d;" horiz-adv-x="1049" 
d="M951 33c-127.333 -38.667 -237.333 -58.001 -330 -58.001c-146.667 0 -268.334 54.333 -365.001 163s-145 245.667 -145 411c0 176.667 47.833 314.334 143.5 413.001s229.167 148 400.5 148c84.667 0 179.334 -11.667 284.001 -35v-165c-111.333 32.667 -202 49 -272 49
c-101.333 0 -182.333 -37.833 -243 -113.5s-91 -176.5 -91 -302.5c0 -122 31.333 -220.667 94 -296s144.667 -113 246 -113c90 0 182.667 23 278 69v-170zM966 1604l-241 -321h-218l-241 321h148l203 -202l201 202h148z" />
    <glyph glyph-name="Dcaron" unicode="&#x10e;" horiz-adv-x="1534" 
d="M191 0l0.000976562 1480h492c146.667 0 265.167 -16.333 355.5 -49s168.5 -88 234.5 -166c104.667 -124 157 -287.333 157 -490c0 -228.667 -61.333 -414 -184 -556c-66.667 -78 -143.834 -134 -231.501 -168s-197.167 -51 -328.5 -51h-495zM401.001 157h268.998
c192 0 328 51.667 408 155c86 110 129 257.667 129 443c0 174 -42.333 310.667 -127 410c-51.333 60.667 -112.666 102.167 -183.999 124.5s-178.666 33.5 -321.999 33.5h-173v-1166zM1097 1925l-241 -321h-218l-241 321h148l203 -202l201 202h148z" />
    <glyph glyph-name="dcaron" unicode="&#x10f;" horiz-adv-x="1585" 
d="M894 0l-0.000976562 204.001c-80 -152.667 -200.667 -229 -362 -229c-130.667 0 -233.5 47.667 -308.5 143s-112.5 225.666 -112.5 390.999c0 180.667 42.5 326 127.5 436s196.833 165 335.5 165c128.667 0 235.334 -49.333 320.001 -148v617h198v-1579h-198z
M893.999 827.001c-102 90 -198.667 135 -290 135c-90 0 -159.667 -37.667 -209 -113s-74 -182 -74 -320c0 -254 84 -381 252 -381c109.333 0 216.333 59.667 321 179v500zM1290 1125v58.999c50.667 14 76 74.333 76 181v17h-76v197h197v-171
c0 -175.333 -65.667 -269.666 -197 -282.999z" />
    <glyph glyph-name="Dmacron" unicode="&#x110;" horiz-adv-x="1534" 
d="M192 0v679h-222v157h222v644h492c147.333 0 266 -16.333 356 -49s168 -88 234 -166c104.667 -124 157 -287.333 157 -490c0 -228.667 -61.333 -414 -184 -556c-66.667 -78 -143.667 -134 -231 -168s-197 -51 -329 -51h-495zM402 157h268.998
c192.667 0 328.667 51.667 408 155c86 110 129 257.667 129 443c0 174 -42.333 310.667 -127 410c-51.333 60.667 -112.666 102.167 -183.999 124.5s-178.666 33.5 -321.999 33.5h-173v-487h333v-157h-333v-522z" />
    <glyph glyph-name="dmacron" unicode="&#x111;" horiz-adv-x="1289" 
d="M894 0l-0.000976562 204.001c-80 -152.667 -200.667 -229 -362 -229c-130.667 0 -233.5 47.667 -308.5 143s-112.5 225.666 -112.5 390.999c0 180.667 42.5 326 127.5 436s196.833 165 335.5 165c128.667 0 235.334 -49.333 320.001 -148v272h-259v123h259v222h198v-222
h197v-123h-197v-1234h-198zM893.999 827.001c-102 90 -198.667 135 -290 135c-90 0 -159.667 -37.667 -209 -113s-74 -182 -74 -320c0 -254 84 -381 252 -381c109.333 0 216.333 59.667 321 179v500z" />
    <glyph glyph-name="Emacron" unicode="&#x112;" horiz-adv-x="1110" 
d="M191 0v1480h827v-157h-617v-475h517v-155h-517v-536h660v-157h-870zM314 1604v148h642v-148h-642z" />
    <glyph glyph-name="emacron" unicode="&#x113;" horiz-adv-x="1141" 
d="M993 35c-132 -40 -244.999 -59.999 -338.999 -59.999c-160.667 0 -291.334 53.167 -392.001 159.5s-151 244.166 -151 413.499c0 164.667 44.5 299.667 133.5 405s202.833 158 341.5 158c131.333 0 232.833 -46.833 304.5 -140.5s107.5 -226.5 107.5 -398.5l-1 -60h-685
c28.667 -258 155 -387 379 -387c82 0 182.667 22 302 66v-156zM321.001 660.001h478.999c0 202 -75.333 303 -226 303c-151.333 0 -235.666 -101 -252.999 -303zM272 1283v148h642v-148h-642z" />
    <glyph glyph-name="Ebreve" unicode="&#x114;" horiz-adv-x="1110" 
d="M191 0v1480h827v-157h-617v-475h517v-155h-517v-536h660v-157h-870zM293 1900h123.001c21.333 -98.667 91.333 -148 210 -148s188.667 49.333 210 148h123c-10 -89.333 -45.333 -161 -106 -215s-136.334 -81 -227.001 -81s-166.167 26.833 -226.5 80.5
s-95.833 125.5 -106.5 215.5z" />
    <glyph glyph-name="ebreve" unicode="&#x115;" horiz-adv-x="1141" 
d="M993 35c-132 -40 -244.999 -59.999 -338.999 -59.999c-160.667 0 -291.334 53.167 -392.001 159.5s-151 244.166 -151 413.499c0 164.667 44.5 299.667 133.5 405s202.833 158 341.5 158c131.333 0 232.833 -46.833 304.5 -140.5s107.5 -226.5 107.5 -398.5l-1 -60h-685
c28.667 -258 155 -387 379 -387c82 0 182.667 22 302 66v-156zM321.001 660.001h478.999c0 202 -75.333 303 -226 303c-151.333 0 -235.666 -101 -252.999 -303zM262 1579h123.001c21.333 -98.667 91.333 -148 210 -148s188.667 49.333 210 148h123
c-10 -89.333 -45.333 -161 -106 -215s-136.334 -81 -227.001 -81s-166.167 26.833 -226.5 80.5s-95.833 125.5 -106.5 215.5z" />
    <glyph glyph-name="Edot" unicode="&#x116;" horiz-adv-x="1110" 
d="M191 0v1480h827v-157h-617v-475h517v-155h-517v-536h660v-157h-870zM519 1604v197h197v-197h-197z" />
    <glyph glyph-name="edot" unicode="&#x117;" horiz-adv-x="1141" 
d="M993 35c-132 -40 -244.999 -59.999 -338.999 -59.999c-160.667 0 -291.334 53.167 -392.001 159.5s-151 244.166 -151 413.499c0 164.667 44.5 299.667 133.5 405s202.833 158 341.5 158c131.333 0 232.833 -46.833 304.5 -140.5s107.5 -226.5 107.5 -398.5l-1 -60h-685
c28.667 -258 155 -387 379 -387c82 0 182.667 22 302 66v-156zM321.001 660.001h478.999c0 202 -75.333 303 -226 303c-151.333 0 -235.666 -101 -252.999 -303zM481 1283v197h197v-197h-197z" />
    <glyph glyph-name="Eogonek" unicode="&#x118;" horiz-adv-x="1110" 
d="M191 0v1480h827v-157h-617v-475h517v-155h-517v-536h660v-157h-870zM840 0l106.999 0.000976562c-85.333 -51.333 -128 -110.666 -128 -177.999c0 -64.667 37.667 -97 113 -97c38 0 68.667 5 92 15v-81c-40 -19.333 -86 -29 -138 -29
c-61.333 0 -110.666 14.667 -147.999 44s-56 67.666 -56 114.999c0 83.333 52.667 153.666 158 210.999z" />
    <glyph glyph-name="eogonek" unicode="&#x119;" horiz-adv-x="1141" 
d="M993 35c-132 -40 -244.999 -59.999 -338.999 -59.999c-160.667 0 -291.334 53.167 -392.001 159.5s-151 244.166 -151 413.499c0 164.667 44.5 299.667 133.5 405s202.833 158 341.5 158c131.333 0 232.833 -46.833 304.5 -140.5s107.5 -226.5 107.5 -398.5l-1 -60h-685
c28.667 -258 155 -387 379 -387c82 0 182.667 22 302 66v-156zM321.001 660.001h478.999c0 202 -75.333 303 -226 303c-151.333 0 -235.666 -101 -252.999 -303zM693 0.000976562l106.999 0.000976562c-85.333 -51.333 -128 -110.666 -128 -177.999
c0 -64.667 37.667 -97 113 -97c38 0 68.667 5 92 15v-81c-40 -19.333 -86 -29 -138 -29c-61.333 0 -110.666 14.667 -147.999 44s-56 67.666 -56 114.999c0 83.333 52.667 153.666 158 210.999z" />
    <glyph glyph-name="Ecaron" unicode="&#x11a;" horiz-adv-x="1110" 
d="M191 0v1480h827v-157h-617v-475h517v-155h-517v-536h660v-157h-870zM975 1925l-241 -321h-218l-241 321h148l203 -202l201 202h148z" />
    <glyph glyph-name="ecaron" unicode="&#x11b;" horiz-adv-x="1141" 
d="M993 35c-132 -40 -244.999 -59.999 -338.999 -59.999c-160.667 0 -291.334 53.167 -392.001 159.5s-151 244.166 -151 413.499c0 164.667 44.5 299.667 133.5 405s202.833 158 341.5 158c131.333 0 232.833 -46.833 304.5 -140.5s107.5 -226.5 107.5 -398.5l-1 -60h-685
c28.667 -258 155 -387 379 -387c82 0 182.667 22 302 66v-156zM321.001 660.001h478.999c0 202 -75.333 303 -226 303c-151.333 0 -235.666 -101 -252.999 -303zM919 1604l-241 -321h-218l-241 321h148l203 -202l201 202h148z" />
    <glyph glyph-name="Gcircumflex" unicode="&#x11c;" horiz-adv-x="1480" 
d="M1303 40c-179.333 -51.333 -335.669 -77.0029 -469.002 -77.0029c-235.333 0 -415.833 66.833 -541.5 200.5s-188.5 325.834 -188.5 576.501c0 246.667 63.833 437.834 191.5 573.501s307.167 203.5 538.5 203.5c148.667 0 304.334 -22.333 467.001 -67v-194
c-204 69.333 -360.333 104 -469 104c-160 0 -284.167 -54.167 -372.5 -162.5s-132.5 -261.166 -132.5 -458.499c0 -195.333 47.333 -347.333 142 -456s227.334 -163 398.001 -163c70 0 145.667 12.333 227 37v482h209v-599zM478.997 1604l241 321h218l241 -321h-148
l-203 202l-201 -202h-148z" />
    <glyph glyph-name="gcircumflex" unicode="&#x11d;" horiz-adv-x="1277" 
d="M201 -361l23.002 171.001c114 -54 226.667 -81 338 -81c221.333 0 332 117.667 332 353v171c-34 -72 -82.5 -128 -145.5 -168s-133.167 -60 -210.5 -60c-131.333 0 -235.333 47.167 -312 141.5s-115 222.166 -115 383.499c0 165.333 43.667 300 131 404
s200.333 156 339 156c121.333 0 225.666 -49.333 312.999 -148v124h198v-790c0 -170 -8.83301 -295.833 -26.5 -377.5s-50.834 -148.5 -99.501 -200.5c-86 -91.333 -220.333 -137 -403 -137c-125.333 0 -246 19.333 -362 58zM894.002 376.001v451.001
c-86.667 90 -181 135 -283 135c-90.667 0 -161.667 -36.333 -213 -109s-77 -173.334 -77 -302.001c0 -236 83.667 -354 251 -354c114 0 221.333 59.667 322 179zM279.002 1283l241 321h218l241 -321h-148l-203 202l-201 -202h-148z" />
    <glyph glyph-name="Gbreve" unicode="&#x11e;" horiz-adv-x="1480" 
d="M1303 40c-179.333 -51.333 -335.669 -77.0029 -469.002 -77.0029c-235.333 0 -415.833 66.833 -541.5 200.5s-188.5 325.834 -188.5 576.501c0 246.667 63.833 437.834 191.5 573.501s307.167 203.5 538.5 203.5c148.667 0 304.334 -22.333 467.001 -67v-194
c-204 69.333 -360.333 104 -469 104c-160 0 -284.167 -54.167 -372.5 -162.5s-132.5 -261.166 -132.5 -458.499c0 -195.333 47.333 -347.333 142 -456s227.334 -163 398.001 -163c70 0 145.667 12.333 227 37v482h209v-599zM468.997 1900h123.001
c21.333 -98.667 91.333 -148 210 -148s188.667 49.333 210 148h123c-10 -89.333 -45.333 -161 -106 -215s-136.334 -81 -227.001 -81s-166.167 26.833 -226.5 80.5s-95.833 125.5 -106.5 215.5z" />
    <glyph glyph-name="gbreve" unicode="&#x11f;" horiz-adv-x="1277" 
d="M201 -361l23.002 171.001c114 -54 226.667 -81 338 -81c221.333 0 332 117.667 332 353v171c-34 -72 -82.5 -128 -145.5 -168s-133.167 -60 -210.5 -60c-131.333 0 -235.333 47.167 -312 141.5s-115 222.166 -115 383.499c0 165.333 43.667 300 131 404
s200.333 156 339 156c121.333 0 225.666 -49.333 312.999 -148v124h198v-790c0 -170 -8.83301 -295.833 -26.5 -377.5s-50.834 -148.5 -99.501 -200.5c-86 -91.333 -220.333 -137 -403 -137c-125.333 0 -246 19.333 -362 58zM894.002 376.001v451.001
c-86.667 90 -181 135 -283 135c-90.667 0 -161.667 -36.333 -213 -109s-77 -173.334 -77 -302.001c0 -236 83.667 -354 251 -354c114 0 221.333 59.667 322 179zM268.002 1579h123.001c21.333 -98.667 91.333 -148 210 -148s188.667 49.333 210 148h123
c-10 -89.333 -45.333 -161 -106 -215s-136.334 -81 -227.001 -81s-166.167 26.833 -226.5 80.5s-95.833 125.5 -106.5 215.5z" />
    <glyph glyph-name="Gdot" unicode="&#x120;" horiz-adv-x="1480" 
d="M1303 40c-179.333 -51.333 -335.669 -77.0029 -469.002 -77.0029c-235.333 0 -415.833 66.833 -541.5 200.5s-188.5 325.834 -188.5 576.501c0 246.667 63.833 437.834 191.5 573.501s307.167 203.5 538.5 203.5c148.667 0 304.334 -22.333 467.001 -67v-194
c-204 69.333 -360.333 104 -469 104c-160 0 -284.167 -54.167 -372.5 -162.5s-132.5 -261.166 -132.5 -458.499c0 -195.333 47.333 -347.333 142 -456s227.334 -163 398.001 -163c70 0 145.667 12.333 227 37v482h209v-599zM729.997 1604v197h197v-197h-197z" />
    <glyph glyph-name="gdot" unicode="&#x121;" horiz-adv-x="1277" 
d="M201 -361l23.002 171.001c114 -54 226.667 -81 338 -81c221.333 0 332 117.667 332 353v171c-34 -72 -82.5 -128 -145.5 -168s-133.167 -60 -210.5 -60c-131.333 0 -235.333 47.167 -312 141.5s-115 222.166 -115 383.499c0 165.333 43.667 300 131 404
s200.333 156 339 156c121.333 0 225.666 -49.333 312.999 -148v124h198v-790c0 -170 -8.83301 -295.833 -26.5 -377.5s-50.834 -148.5 -99.501 -200.5c-86 -91.333 -220.333 -137 -403 -137c-125.333 0 -246 19.333 -362 58zM894.002 376.001v451.001
c-86.667 90 -181 135 -283 135c-90.667 0 -161.667 -36.333 -213 -109s-77 -173.334 -77 -302.001c0 -236 83.667 -354 251 -354c114 0 221.333 59.667 322 179zM514.002 1283v197h197v-197h-197z" />
    <glyph glyph-name="Gcedilla" unicode="&#x122;" horiz-adv-x="1480" 
d="M1303 40c-179.333 -51.333 -335.669 -77.0029 -469.002 -77.0029c-235.333 0 -415.833 66.833 -541.5 200.5s-188.5 325.834 -188.5 576.501c0 246.667 63.833 437.834 191.5 573.501s307.167 203.5 538.5 203.5c148.667 0 304.334 -22.333 467.001 -67v-194
c-204 69.333 -360.333 104 -469 104c-160 0 -284.167 -54.167 -372.5 -162.5s-132.5 -261.166 -132.5 -458.499c0 -195.333 47.333 -347.333 142 -456s227.334 -163 398.001 -163c70 0 145.667 12.333 227 37v482h209v-599zM789.997 -0.00292969h97l-60 -109
c51.333 0 96.5 -15.833 135.5 -47.5s58.5 -68.5 58.5 -110.5c0 -46 -19.5 -85 -58.5 -117s-86.5 -48 -142.5 -48c-48 0 -96.667 7 -146 21v81c30.667 -10 65.667 -15 105 -15c68.667 0 103 24.667 103 74c0 64 -62.333 96 -187 96z" />
    <glyph glyph-name="gcedilla" unicode="&#x123;" horiz-adv-x="1277" 
d="M201 -361l23.002 171.001c114 -54 226.667 -81 338 -81c221.333 0 332 117.667 332 353v171c-34 -72 -82.5 -128 -145.5 -168s-133.167 -60 -210.5 -60c-131.333 0 -235.333 47.167 -312 141.5s-115 222.166 -115 383.499c0 165.333 43.667 300 131 404
s200.333 156 339 156c121.333 0 225.666 -49.333 312.999 -148v124h198v-790c0 -170 -8.83301 -295.833 -26.5 -377.5s-50.834 -148.5 -99.501 -200.5c-86 -91.333 -220.333 -137 -403 -137c-125.333 0 -246 19.333 -362 58zM894.002 376.001v451.001
c-86.667 90 -181 135 -283 135c-90.667 0 -161.667 -36.333 -213 -109s-77 -173.334 -77 -302.001c0 -236 83.667 -354 251 -354c114 0 221.333 59.667 322 179zM701.002 1737v-58.999c-50.667 -14 -76 -74.333 -76 -181v-17h76v-197h-197v171
c0 175.333 65.667 269.666 197 282.999z" />
    <glyph glyph-name="Hcircumflex" unicode="&#x124;" horiz-adv-x="1505" 
d="M191 0v1480h210v-624h704v624h210v-1480h-210v699h-704v-699h-210zM403 1604l241 321h218l241 -321h-148l-203 202l-201 -202h-148z" />
    <glyph glyph-name="hcircumflex" unicode="&#x125;" horiz-adv-x="1271" 
d="M197 0l0.000976562 1579h197v-697c104 152 231.333 228 382 228c94.667 0 169.834 -29.833 225.501 -89.5s83.5 -139.834 83.5 -240.501v-780h-197v716c0 80.667 -11.833 138.167 -35.5 172.5s-62.834 51.5 -117.501 51.5c-120.667 0 -234.334 -79 -341.001 -237v-703
h-197zM-53.999 1678l241 321h218l241 -321h-148l-203 202l-201 -202h-148z" />
    <glyph glyph-name="Hbar" unicode="&#x126;" horiz-adv-x="1617" 
d="M1160 856v230h-704v-230h704zM1370 0h-210v699h-704v-699h-210v1086h-197v148h197v246h210v-246h704v246h210v-246h197v-148h-197v-1086z" />
    <glyph glyph-name="hbar" unicode="&#x127;" horiz-adv-x="1271" 
d="M394 882c104 152 231.334 228.001 382.001 228.001c94.667 0 169.834 -29.833 225.501 -89.5s83.5 -139.834 83.5 -240.501v-780h-197v716c0 80.667 -11.833 138.167 -35.5 172.5s-62.834 51.5 -117.501 51.5c-120.667 0 -234.334 -79 -341.001 -237v-703h-197v1234h-197
v123h197v222h197v-222h297v-123h-297v-352z" />
    <glyph glyph-name="Itilde" unicode="&#x128;" horiz-adv-x="590" 
d="M190 0v1480h210v-1480h-210zM-38 1604c7.33301 156 69 234 185 234c48.667 0 93.667 -12.667 135 -38l60 -37c37.333 -23.333 65.666 -35 84.999 -35c46 0 72 36.667 78 110h123c-7.33301 -156 -69 -234 -185 -234c-48.667 0 -93.667 13 -135 39l-60 37
c-37.333 22.667 -65.666 34 -84.999 34c-46 0 -72 -36.667 -78 -110h-123z" />
    <glyph glyph-name="itilde" unicode="&#x129;" horiz-adv-x="592" 
d="M197 0v1086h197v-1086h-197zM-37 1283c7.33301 156 69 234 185 234c48.667 0 93.667 -12.667 135 -38l60 -37c37.333 -23.333 65.666 -35 84.999 -35c46 0 72 36.667 78 110h123c-7.33301 -156 -69 -234 -185 -234c-48.667 0 -93.667 13 -135 39l-60 37
c-37.333 22.667 -65.666 34 -84.999 34c-46 0 -72 -36.667 -78 -110h-123z" />
    <glyph glyph-name="Imacron" unicode="&#x12a;" horiz-adv-x="590" 
d="M190 0v1480h210v-1480h-210zM-26 1604v148h642v-148h-642z" />
    <glyph glyph-name="imacron" unicode="&#x12b;" horiz-adv-x="592" 
d="M197 0v1086h197v-1086h-197zM-25 1283v148h642v-148h-642z" />
    <glyph glyph-name="Ibreve" unicode="&#x12c;" horiz-adv-x="590" 
d="M190 0v1480h210v-1480h-210zM-38 1900h123.001c21.333 -98.667 91.333 -148 210 -148s188.667 49.333 210 148h123c-10 -89.333 -45.333 -161 -106 -215s-136.334 -81 -227.001 -81s-166.167 26.833 -226.5 80.5s-95.833 125.5 -106.5 215.5z" />
    <glyph glyph-name="ibreve" unicode="&#x12d;" horiz-adv-x="592" 
d="M197 0v1086h197v-1086h-197zM-37 1579h123.001c21.333 -98.667 91.333 -148 210 -148s188.667 49.333 210 148h123c-10 -89.333 -45.333 -161 -106 -215s-136.334 -81 -227.001 -81s-166.167 26.833 -226.5 80.5s-95.833 125.5 -106.5 215.5z" />
    <glyph glyph-name="Iogonek" unicode="&#x12e;" horiz-adv-x="590" 
d="M190 0v1480h210v-1480h-210zM293 0l106.999 0.000976562c-85.333 -51.333 -128 -110.666 -128 -177.999c0 -64.667 37.667 -97 113 -97c38 0 68.667 5 92 15v-81c-40 -19.333 -86 -29 -138 -29c-61.333 0 -110.666 14.667 -147.999 44s-56 67.666 -56 114.999
c0 83.333 52.667 153.666 158 210.999z" />
    <glyph glyph-name="iogonek" unicode="&#x12f;" horiz-adv-x="592" 
d="M198 0v1086h197v-1086h-197zM198 1283v197h197v-197h-197zM288 0l106.999 0.000976562c-85.333 -51.333 -128 -110.666 -128 -177.999c0 -64.667 37.667 -97 113 -97c38 0 68.667 5 92 15v-81c-40 -19.333 -86 -29 -138 -29c-61.333 0 -110.666 14.667 -147.999 44
s-56 67.666 -56 114.999c0 83.333 52.667 153.666 158 210.999z" />
    <glyph glyph-name="Idot" unicode="&#x130;" horiz-adv-x="590" 
d="M190 0v1480h210v-1480h-210zM196 1604v197h197v-197h-197z" />
    <glyph glyph-name="dotlessi" unicode="&#x131;" horiz-adv-x="592" 
d="M197 0v1086h197v-1086h-197z" />
    <glyph glyph-name="IJ" unicode="&#x132;" horiz-adv-x="1220" 
d="M190 0v1480h210v-1480h-210zM400 -275l-0.000976562 186c80 -26 151.333 -39 214 -39c78.667 0 133.834 23 165.501 69s47.5 125.667 47.5 239v1300h210v-1293c0 -322 -152.333 -483 -457 -483c-46.667 0 -106.667 7 -180 21z" />
    <glyph glyph-name="ij" unicode="&#x133;" horiz-adv-x="1185" 
d="M197 0v1086h197v-1086h-197zM197 1283v197h197v-197h-197zM408 -369v156c92 -38.667 162 -58 210 -58c54.667 0 97 14.667 127 44c20 20 32.5 42.667 37.5 68s7.5 78.333 7.5 159v1086h198v-1086c0 -279.333 -118 -419 -354 -419c-70 0 -145.333 16.667 -226 50z
M790 1283v197h198v-197h-198z" />
    <glyph glyph-name="Jcircumflex" unicode="&#x134;" horiz-adv-x="637" 
d="M-184 -275l-0.000976562 186c80 -26 151.333 -39 214 -39c78.667 0 133.834 23 165.501 69s47.5 125.667 47.5 239v1300h210v-1293c0 -322 -152.333 -483 -457 -483c-46.667 0 -106.667 7 -180 21zM-2.00098 1604l241 321h218l241 -321h-148l-203 202l-201 -202h-148z
" />
    <glyph glyph-name="jcircumflex" unicode="&#x135;" horiz-adv-x="623" 
d="M-153 -369v156c92 -38.667 162 -58 210 -58c54.667 0 97 14.667 127 44c20 20 32.5 42.667 37.5 68s7.5 78.333 7.5 159v1086h198v-1086c0 -279.333 -118 -419 -354 -419c-70 0 -145.333 16.667 -226 50zM-22 1283l241 321h218l241 -321h-148l-203 202l-201 -202h-148z
" />
    <glyph glyph-name="Kcedilla" unicode="&#x136;" horiz-adv-x="1337" 
d="M191 0v1480h197v-728l599 728h211l-580 -706l683 -774h-266l-647 750v-750h-197zM642 0h97l-60 -109c51.333 0 96.5 -15.833 135.5 -47.5s58.5 -68.5 58.5 -110.5c0 -46 -19.5 -85 -58.5 -117s-86.5 -48 -142.5 -48c-48 0 -96.667 7 -146 21v81
c30.667 -10 65.667 -15 105 -15c68.667 0 103 24.667 103 74c0 64 -62.333 96 -187 96z" />
    <glyph glyph-name="kcedilla" unicode="&#x137;" horiz-adv-x="1197" 
d="M197 0v1579h197v-1020l460 527h212l-439 -507l530 -579h-252l-511 557v-557h-197zM584 0h97l-60 -109c51.333 0 96.5 -15.833 135.5 -47.5s58.5 -68.5 58.5 -110.5c0 -46 -19.5 -85 -58.5 -117s-86.5 -48 -142.5 -48c-48 0 -96.667 7 -146 21v81
c30.667 -10 65.667 -15 105 -15c68.667 0 103 24.667 103 74c0 64 -62.333 96 -187 96z" />
    <glyph glyph-name="kra" unicode="&#x138;" horiz-adv-x="1197" 
d="M197 0v1086h197v-527l460 527h212l-439 -507l530 -579h-252l-511 557v-557h-197z" />
    <glyph glyph-name="Lacute" unicode="&#x139;" horiz-adv-x="1092" 
d="M191 0v1480h210v-1323h666v-157h-876zM172 1604l241 321h228l-321 -321h-148z" />
    <glyph glyph-name="lacute" unicode="&#x13a;" horiz-adv-x="592" 
d="M197 0v1579h197v-1579h-197zM148 1678l241 321h228l-321 -321h-148z" />
    <glyph glyph-name="Lcedilla" unicode="&#x13b;" horiz-adv-x="1092" 
d="M191 0v1480h210v-1323h666v-157h-876zM578 0h97l-60 -109c51.333 0 96.5 -15.833 135.5 -47.5s58.5 -68.5 58.5 -110.5c0 -46 -19.5 -85 -58.5 -117s-86.5 -48 -142.5 -48c-48 0 -96.667 7 -146 21v81c30.667 -10 65.667 -15 105 -15c68.667 0 103 24.667 103 74
c0 64 -62.333 96 -187 96z" />
    <glyph glyph-name="lcedilla" unicode="&#x13c;" horiz-adv-x="592" 
d="M197 0v1579h197v-1579h-197zM259 0h97l-60 -109c51.333 0 96.5 -15.833 135.5 -47.5s58.5 -68.5 58.5 -110.5c0 -46 -19.5 -85 -58.5 -117s-86.5 -48 -142.5 -48c-48 0 -96.667 7 -146 21v81c30.667 -10 65.667 -15 105 -15c68.667 0 103 24.667 103 74
c0 64 -62.333 96 -187 96z" />
    <glyph glyph-name="Lcaron" unicode="&#x13d;" horiz-adv-x="1092" 
d="M191 0v1480h210v-1323h666v-157h-876zM698 1026v58.999c50.667 14 76 74.333 76 181v17h-76v197h197v-171c0 -175.333 -65.667 -269.666 -197 -282.999z" />
    <glyph glyph-name="lcaron" unicode="&#x13e;" horiz-adv-x="888" 
d="M197 0v1579h197v-1579h-197zM593 1125v58.999c50.667 14 76 74.333 76 181v17h-76v197h197v-171c0 -175.333 -65.667 -269.666 -197 -282.999z" />
    <glyph glyph-name="Ldot" unicode="&#x13f;" horiz-adv-x="1092" 
d="M191 0v1480h210v-1323h666v-157h-876zM743 642v197h197v-197h-197z" />
    <glyph glyph-name="ldot" unicode="&#x140;" horiz-adv-x="790" 
d="M197 0v1579h197v-1579h-197zM592 691v197h197v-197h-197z" />
    <glyph glyph-name="Lslash" unicode="&#x141;" horiz-adv-x="1092" 
d="M192 0v619l-221 -120v174l221 121v686h209v-572l221 120v-175l-221 -119v-577h666v-157h-875z" />
    <glyph glyph-name="lslash" unicode="&#x142;" horiz-adv-x="592" 
d="M195 0v677l-222 -117v167l222 120v732h197v-623l223 112v-165l-223 -117v-786h-197z" />
    <glyph glyph-name="Nacute" unicode="&#x143;" horiz-adv-x="1513" 
d="M191 0v1480h206l745 -1143v1143h180v-1480h-205l-746 1143v-1143h-180zM609 1604l241 321h228l-321 -321h-148z" />
    <glyph glyph-name="nacute" unicode="&#x144;" horiz-adv-x="1271" 
d="M197 0l0.000976562 1086h197v-204c104 152 231.333 228 382 228c94.667 0 169.834 -29.833 225.501 -89.5s83.5 -139.834 83.5 -240.501v-780h-197v716c0 80.667 -11.833 138.167 -35.5 172.5s-62.834 51.5 -117.501 51.5c-120.667 0 -234.334 -79 -341.001 -237v-703
h-197zM468.001 1283l241 321h228l-321 -321h-148z" />
    <glyph glyph-name="Ncedilla" unicode="&#x145;" horiz-adv-x="1513" 
d="M191 0v1480h206l745 -1143v1143h180v-1480h-205l-746 1143v-1143h-180zM687 0h97l-60 -109c51.333 0 96.5 -15.833 135.5 -47.5s58.5 -68.5 58.5 -110.5c0 -46 -19.5 -85 -58.5 -117s-86.5 -48 -142.5 -48c-48 0 -96.667 7 -146 21v81c30.667 -10 65.667 -15 105 -15
c68.667 0 103 24.667 103 74c0 64 -62.333 96 -187 96z" />
    <glyph glyph-name="ncedilla" unicode="&#x146;" horiz-adv-x="1271" 
d="M197 0l0.000976562 1086h197v-204c104 152 231.333 228 382 228c94.667 0 169.834 -29.833 225.501 -89.5s83.5 -139.834 83.5 -240.501v-780h-197v716c0 80.667 -11.833 138.167 -35.5 172.5s-62.834 51.5 -117.501 51.5c-120.667 0 -234.334 -79 -341.001 -237v-703
h-197zM625.001 0.000976562h97l-60 -109c51.333 0 96.5 -15.833 135.5 -47.5s58.5 -68.5 58.5 -110.5c0 -46 -19.5 -85 -58.5 -117s-86.5 -48 -142.5 -48c-48 0 -96.667 7 -146 21v81c30.667 -10 65.667 -15 105 -15c68.667 0 103 24.667 103 74c0 64 -62.333 96 -187 96z
" />
    <glyph glyph-name="Ncaron" unicode="&#x147;" horiz-adv-x="1513" 
d="M191 0v1480h206l745 -1143v1143h180v-1480h-205l-746 1143v-1143h-180zM1105 1925l-241 -321h-218l-241 321h148l203 -202l201 202h148z" />
    <glyph glyph-name="ncaron" unicode="&#x148;" horiz-adv-x="1271" 
d="M197 0l0.000976562 1086h197v-204c104 152 231.333 228 382 228c94.667 0 169.834 -29.833 225.501 -89.5s83.5 -139.834 83.5 -240.501v-780h-197v716c0 80.667 -11.833 138.167 -35.5 172.5s-62.834 51.5 -117.501 51.5c-120.667 0 -234.334 -79 -341.001 -237v-703
h-197zM990.001 1604l-241 -321h-218l-241 321h148l203 -202l201 202h148z" />
    <glyph glyph-name="napostrophe" unicode="&#x149;" horiz-adv-x="1517" 
d="M444 0l0.000976562 1086h197v-204c104 152 231.333 228 382 228c94.667 0 169.834 -29.833 225.501 -89.5s83.5 -139.834 83.5 -240.501v-780h-197v716c0 80.667 -11.833 138.167 -35.5 172.5s-62.834 51.5 -117.501 51.5c-120.667 0 -234.334 -79 -341.001 -237v-703
h-197zM75.001 1125v58.999c50.667 14 76 74.333 76 181v17h-76v197h197v-171c0 -175.333 -65.667 -269.666 -197 -282.999z" />
    <glyph glyph-name="Eng" unicode="&#x14a;" horiz-adv-x="1513" 
d="M1322 1480l0.00195312 -1572c0 -102.667 -28.333 -183 -85 -241s-135.334 -87 -236.001 -87c-48.667 0 -98 7 -148 21v154c41.333 -18 90 -27 146 -27c51.333 0 88.166 16.833 110.499 50.5s33.5 89.167 33.5 166.5v15l-772 1183v-1143h-180v1480h206l745 -1143v1143h180
z" />
    <glyph glyph-name="eng" unicode="&#x14b;" horiz-adv-x="1271" 
d="M197 0v1086h197v-204c104 152 231.333 228 382 228c94.667 0 169.834 -29.833 225.501 -89.5s83.5 -139.834 83.5 -240.501v-872c0 -102.667 -28.167 -183 -84.5 -241s-135.166 -87 -236.499 -87c-48.667 0 -98 7 -148 21v154c42 -18 84 -27 126 -27
c52.667 0 90.167 16.667 112.5 50s33.5 89 33.5 167v771c0 80.667 -11.833 138.167 -35.5 172.5s-62.834 51.5 -117.501 51.5c-120.667 0 -234.334 -79 -341.001 -237v-703h-197z" />
    <glyph glyph-name="Omacron" unicode="&#x14c;" horiz-adv-x="1591" 
d="M796 -37c-210 0 -377.833 70.5 -503.5 211.5s-188.5 329.5 -188.5 565.5s62.833 424.5 188.5 565.5s293.5 211.5 503.5 211.5s377.833 -70.5 503.5 -211.5s188.5 -329.5 188.5 -565.5s-62.833 -424.5 -188.5 -565.5s-293.5 -211.5 -503.5 -211.5zM796 120
c147.333 0 262.333 54.833 345 164.5s124 262.167 124 457.5c0 194 -41.333 345.5 -124 454.5s-197.667 163.5 -345 163.5s-262.333 -54.5 -345 -163.5s-124 -260.5 -124 -454.5c0 -195.333 41.333 -347.833 124 -457.5s197.667 -164.5 345 -164.5zM475 1604v148h642v-148
h-642z" />
    <glyph glyph-name="omacron" unicode="&#x14d;" horiz-adv-x="1258" 
d="M629 -25c-159.333 0 -285.5 51 -378.5 153s-139.5 240.333 -139.5 415s46.5 312.834 139.5 414.501s219.167 152.5 378.5 152.5s285.5 -50.833 378.5 -152.5s139.5 -239.834 139.5 -414.501s-46.5 -313 -139.5 -415s-219.167 -153 -378.5 -153zM629 123
c98 0 174 36.667 228 110s81 176.666 81 309.999s-27 236.5 -81 309.5s-130 109.5 -228 109.5s-173.833 -36.5 -227.5 -109.5s-80.5 -176.167 -80.5 -309.5s26.833 -236.666 80.5 -309.999s129.5 -110 227.5 -110zM308 1283v148h642v-148h-642z" />
    <glyph glyph-name="Obreve" unicode="&#x14e;" horiz-adv-x="1591" 
d="M796 -37c-210 0 -377.833 70.5 -503.5 211.5s-188.5 329.5 -188.5 565.5s62.833 424.5 188.5 565.5s293.5 211.5 503.5 211.5s377.833 -70.5 503.5 -211.5s188.5 -329.5 188.5 -565.5s-62.833 -424.5 -188.5 -565.5s-293.5 -211.5 -503.5 -211.5zM796 120
c147.333 0 262.333 54.833 345 164.5s124 262.167 124 457.5c0 194 -41.333 345.5 -124 454.5s-197.667 163.5 -345 163.5s-262.333 -54.5 -345 -163.5s-124 -260.5 -124 -454.5c0 -195.333 41.333 -347.833 124 -457.5s197.667 -164.5 345 -164.5zM463 1900h123.001
c21.333 -98.667 91.333 -148 210 -148s188.667 49.333 210 148h123c-10 -89.333 -45.333 -161 -106 -215s-136.334 -81 -227.001 -81s-166.167 26.833 -226.5 80.5s-95.833 125.5 -106.5 215.5z" />
    <glyph glyph-name="obreve" unicode="&#x14f;" horiz-adv-x="1258" 
d="M629 -25c-159.333 0 -285.5 51 -378.5 153s-139.5 240.333 -139.5 415s46.5 312.834 139.5 414.501s219.167 152.5 378.5 152.5s285.5 -50.833 378.5 -152.5s139.5 -239.834 139.5 -414.501s-46.5 -313 -139.5 -415s-219.167 -153 -378.5 -153zM629 123
c98 0 174 36.667 228 110s81 176.666 81 309.999s-27 236.5 -81 309.5s-130 109.5 -228 109.5s-173.833 -36.5 -227.5 -109.5s-80.5 -176.167 -80.5 -309.5s26.833 -236.666 80.5 -309.999s129.5 -110 227.5 -110zM296 1579h123.001c21.333 -98.667 91.333 -148 210 -148
s188.667 49.333 210 148h123c-10 -89.333 -45.333 -161 -106 -215s-136.334 -81 -227.001 -81s-166.167 26.833 -226.5 80.5s-95.833 125.5 -106.5 215.5z" />
    <glyph glyph-name="Odblacute" unicode="&#x150;" horiz-adv-x="1591" 
d="M796 -37c-210 0 -377.833 70.5 -503.5 211.5s-188.5 329.5 -188.5 565.5s62.833 424.5 188.5 565.5s293.5 211.5 503.5 211.5s377.833 -70.5 503.5 -211.5s188.5 -329.5 188.5 -565.5s-62.833 -424.5 -188.5 -565.5s-293.5 -211.5 -503.5 -211.5zM796 120
c147.333 0 262.333 54.833 345 164.5s124 262.167 124 457.5c0 194 -41.333 345.5 -124 454.5s-197.667 163.5 -345 163.5s-262.333 -54.5 -345 -163.5s-124 -260.5 -124 -454.5c0 -195.333 41.333 -347.833 124 -457.5s197.667 -164.5 345 -164.5zM565 1604l241 321h191
l-321 -321h-111zM917 1604l240 321h191l-320 -321h-111z" />
    <glyph glyph-name="odblacute" unicode="&#x151;" horiz-adv-x="1258" 
d="M629 -25c-159.333 0 -285.5 51 -378.5 153s-139.5 240.333 -139.5 415s46.5 312.834 139.5 414.501s219.167 152.5 378.5 152.5s285.5 -50.833 378.5 -152.5s139.5 -239.834 139.5 -414.501s-46.5 -313 -139.5 -415s-219.167 -153 -378.5 -153zM629 123
c98 0 174 36.667 228 110s81 176.666 81 309.999s-27 236.5 -81 309.5s-130 109.5 -228 109.5s-173.833 -36.5 -227.5 -109.5s-80.5 -176.167 -80.5 -309.5s26.833 -236.666 80.5 -309.999s129.5 -110 227.5 -110zM398 1283l241 321h191l-321 -321h-111zM750 1283l240 321
h191l-320 -321h-111z" />
    <glyph glyph-name="OE" unicode="&#x152;" horiz-adv-x="2048" 
d="M1129 58c-104 -63.333 -219.666 -94.999 -346.999 -94.999c-202.667 0 -366.334 71.5 -491.001 214.5s-187 330.5 -187 562.5c0 235.333 62.667 423.666 188 564.999s292.333 212 501 212c120.667 0 232.667 -31.333 336 -94v57h827v-157h-617v-475h517v-155l-516 -1
l-1 -535h660v-157h-870v58zM1129 569.001l0.00195312 342c0 156 -26.833 269.833 -80.5 341.5s-138.834 107.5 -255.501 107.5c-146 0 -260.167 -54.833 -342.5 -164.5s-123.5 -261.5 -123.5 -455.5c0 -194.667 41.333 -346.667 124 -456s197.667 -164 345 -164
c115.333 0 199.666 36 252.999 108s80 185.667 80 341z" />
    <glyph glyph-name="oe" unicode="&#x153;" horiz-adv-x="1901" 
d="M979 174c-86.667 -132.667 -206.331 -199.001 -358.998 -199.001c-154.667 0 -278.167 51.5 -370.5 154.5s-138.5 240.833 -138.5 413.5s46.167 310.334 138.5 413.001s216.5 154 372.5 154c145.333 0 262.666 -66.667 351.999 -200c81.333 133.333 203 200 365 200
c278 0 417 -199.333 417 -598h-673c19.333 -259.333 141 -389 365 -389c93.333 0 196 23.667 308 71v-157c-128.667 -41.333 -245.334 -62 -350.001 -62c-100 0 -183.167 15.5 -249.5 46.5s-125.5 81.833 -177.5 152.5zM624.003 122.999c172 0 258 145.667 258 437
c0 268 -86 402 -258 402c-95.333 0 -169.666 -36.833 -222.999 -110.5s-80 -176.5 -80 -308.5s26.667 -235 80 -309s127.666 -111 222.999 -111zM1090 647.999h456.001c0 210 -71.333 315 -214 315c-144.667 0 -225.334 -105 -242.001 -315z" />
    <glyph glyph-name="Racute" unicode="&#x154;" horiz-adv-x="1295" 
d="M191 0v1480h448c142 0 250.833 -31.333 326.5 -94s113.5 -153.667 113.5 -273c0 -94 -26.167 -177.667 -78.5 -251s-125.833 -129.666 -220.5 -168.999l494 -693h-258l-421 626h-196v-626h-208zM399 782.999h68.001c129.333 0 227.666 26.333 294.999 79
s101 129.667 101 231c0 153.333 -110.667 230 -332 230h-132v-540zM473.001 1604l241 321h228l-321 -321h-148z" />
    <glyph glyph-name="racute" unicode="&#x155;" horiz-adv-x="838" 
d="M197 0v1086h197v-204c78 152 191.333 228 340 228c20 0 41 -1.66699 63 -5v-184c-34 11.333 -64 17 -90 17c-124.667 0 -229 -74 -313 -222v-716h-197zM324 1283l241 321h228l-321 -321h-148z" />
    <glyph glyph-name="Rcedilla" unicode="&#x156;" horiz-adv-x="1295" 
d="M191 0v1480h448c142 0 250.833 -31.333 326.5 -94s113.5 -153.667 113.5 -273c0 -94 -26.167 -177.667 -78.5 -251s-125.833 -129.666 -220.5 -168.999l494 -693h-258l-421 626h-196v-626h-208zM399 782.999h68.001c129.333 0 227.666 26.333 294.999 79
s101 129.667 101 231c0 153.333 -110.667 230 -332 230h-132v-540zM600.001 -0.000976562h97l-60 -109c51.333 0 96.5 -15.833 135.5 -47.5s58.5 -68.5 58.5 -110.5c0 -46 -19.5 -85 -58.5 -117s-86.5 -48 -142.5 -48c-48 0 -96.667 7 -146 21v81
c30.667 -10 65.667 -15 105 -15c68.667 0 103 24.667 103 74c0 64 -62.333 96 -187 96z" />
    <glyph glyph-name="rcedilla" unicode="&#x157;" horiz-adv-x="838" 
d="M197 0v1086h197v-204c78 152 191.333 228 340 228c20 0 41 -1.66699 63 -5v-184c-34 11.333 -64 17 -90 17c-124.667 0 -229 -74 -313 -222v-716h-197zM298 0h97l-60 -109c51.333 0 96.5 -15.833 135.5 -47.5s58.5 -68.5 58.5 -110.5c0 -46 -19.5 -85 -58.5 -117
s-86.5 -48 -142.5 -48c-48 0 -96.667 7 -146 21v81c30.667 -10 65.667 -15 105 -15c68.667 0 103 24.667 103 74c0 64 -62.333 96 -187 96z" />
    <glyph glyph-name="Rcaron" unicode="&#x158;" horiz-adv-x="1295" 
d="M191 0v1480h448c142 0 250.833 -31.333 326.5 -94s113.5 -153.667 113.5 -273c0 -94 -26.167 -177.667 -78.5 -251s-125.833 -129.666 -220.5 -168.999l494 -693h-258l-421 626h-196v-626h-208zM399 782.999h68.001c129.333 0 227.666 26.333 294.999 79
s101 129.667 101 231c0 153.333 -110.667 230 -332 230h-132v-540zM945.001 1925l-241 -321h-218l-241 321h148l203 -202l201 202h148z" />
    <glyph glyph-name="rcaron" unicode="&#x159;" horiz-adv-x="838" 
d="M197 0v1086h197v-204c78 152 191.333 228 340 228c20 0 41 -1.66699 63 -5v-184c-34 11.333 -64 17 -90 17c-124.667 0 -229 -74 -313 -222v-716h-197zM854 1604l-241 -321h-218l-241 321h148l203 -202l201 202h148z" />
    <glyph glyph-name="Sacute" unicode="&#x15a;" horiz-adv-x="1103" 
d="M100 28l0.000976562 208.002c166.667 -77.333 304 -116 412 -116c82 0 148.167 21.833 198.5 65.5s75.5 100.5 75.5 170.5c0 58 -16.5 107.333 -49.5 148s-93.833 86 -182.5 136l-102 59c-126 72 -214.833 139.833 -266.5 203.5s-77.5 137.5 -77.5 221.5
c0 114.667 41.333 208.834 124 282.501s188 110.5 316 110.5c114 0 234.333 -19 361 -57v-192c-156 61.333 -272.333 92 -349 92c-72.667 0 -132.667 -19.333 -180 -58s-71 -87.334 -71 -146.001c0 -49.333 17.333 -93 52 -131s98 -83.333 190 -136l106 -60
c128 -72.667 217.333 -141.334 268 -206.001s76 -142.334 76 -233.001c0 -128.667 -47.333 -232 -142 -310s-220.334 -117 -377.001 -117c-100 0 -227.333 21.667 -382 65zM427.001 1604l241 321h228l-321 -321h-148z" />
    <glyph glyph-name="sacute" unicode="&#x15b;" horiz-adv-x="1043" 
d="M157 38l-0.00195312 180.996c128.667 -64 240.667 -96 336 -96c56.667 0 103.667 15.333 141 46s56 69 56 115c0 67.333 -52.333 123 -157 167l-115 49c-170 70.667 -255 172.334 -255 305.001c0 94.667 33.5 169.167 100.5 223.5s158.833 81.5 275.5 81.5
c60.667 0 135.667 -8.33301 225 -25l41 -8v-164c-110 32.667 -197.667 49 -263 49c-57.333 0 -103.166 -12.5 -137.499 -37.5s-51.5 -58.5 -51.5 -100.5c0 -59.333 48 -109.333 144 -150l95 -40c107.333 -45.333 183.333 -93.166 228 -143.499s67 -113.166 67 -188.499
c0 -95.333 -37.667 -173.666 -113 -234.999s-171.666 -92 -288.999 -92c-90 0 -199.333 21 -328 63zM348.998 1283l241 321h228l-321 -321h-148z" />
    <glyph glyph-name="Scircumflex" unicode="&#x15c;" horiz-adv-x="1103" 
d="M100 28l0.000976562 208.002c166.667 -77.333 304 -116 412 -116c82 0 148.167 21.833 198.5 65.5s75.5 100.5 75.5 170.5c0 58 -16.5 107.333 -49.5 148s-93.833 86 -182.5 136l-102 59c-126 72 -214.833 139.833 -266.5 203.5s-77.5 137.5 -77.5 221.5
c0 114.667 41.333 208.834 124 282.501s188 110.5 316 110.5c114 0 234.333 -19 361 -57v-192c-156 61.333 -272.333 92 -349 92c-72.667 0 -132.667 -19.333 -180 -58s-71 -87.334 -71 -146.001c0 -49.333 17.333 -93 52 -131s98 -83.333 190 -136l106 -60
c128 -72.667 217.333 -141.334 268 -206.001s76 -142.334 76 -233.001c0 -128.667 -47.333 -232 -142 -310s-220.334 -117 -377.001 -117c-100 0 -227.333 21.667 -382 65zM206.001 1604l241 321h218l241 -321h-148l-203 202l-201 -202h-148z" />
    <glyph glyph-name="scircumflex" unicode="&#x15d;" horiz-adv-x="1043" 
d="M157 38l-0.00195312 180.996c128.667 -64 240.667 -96 336 -96c56.667 0 103.667 15.333 141 46s56 69 56 115c0 67.333 -52.333 123 -157 167l-115 49c-170 70.667 -255 172.334 -255 305.001c0 94.667 33.5 169.167 100.5 223.5s158.833 81.5 275.5 81.5
c60.667 0 135.667 -8.33301 225 -25l41 -8v-164c-110 32.667 -197.667 49 -263 49c-57.333 0 -103.166 -12.5 -137.499 -37.5s-51.5 -58.5 -51.5 -100.5c0 -59.333 48 -109.333 144 -150l95 -40c107.333 -45.333 183.333 -93.166 228 -143.499s67 -113.166 67 -188.499
c0 -95.333 -37.667 -173.666 -113 -234.999s-171.666 -92 -288.999 -92c-90 0 -199.333 21 -328 63zM174.998 1283l241 321h218l241 -321h-148l-203 202l-201 -202h-148z" />
    <glyph glyph-name="Scedilla" unicode="&#x15e;" horiz-adv-x="1103" 
d="M100 28l0.000976562 208.002c166.667 -77.333 304 -116 412 -116c82 0 148.167 21.833 198.5 65.5s75.5 100.5 75.5 170.5c0 58 -16.5 107.333 -49.5 148s-93.833 86 -182.5 136l-102 59c-126 72 -214.833 139.833 -266.5 203.5s-77.5 137.5 -77.5 221.5
c0 114.667 41.333 208.834 124 282.501s188 110.5 316 110.5c114 0 234.333 -19 361 -57v-192c-156 61.333 -272.333 92 -349 92c-72.667 0 -132.667 -19.333 -180 -58s-71 -87.334 -71 -146.001c0 -49.333 17.333 -93 52 -131s98 -83.333 190 -136l106 -60
c128 -72.667 217.333 -141.334 268 -206.001s76 -142.334 76 -233.001c0 -128.667 -47.333 -232 -142 -310s-220.334 -117 -377.001 -117c-100 0 -227.333 21.667 -382 65zM499.001 0.00195312h97l-60 -109c51.333 0 96.5 -15.833 135.5 -47.5s58.5 -68.5 58.5 -110.5
c0 -46 -19.5 -85 -58.5 -117s-86.5 -48 -142.5 -48c-48 0 -96.667 7 -146 21v81c30.667 -10 65.667 -15 105 -15c68.667 0 103 24.667 103 74c0 64 -62.333 96 -187 96z" />
    <glyph glyph-name="scedilla" unicode="&#x15f;" horiz-adv-x="1043" 
d="M157 38l-0.00195312 180.996c128.667 -64 240.667 -96 336 -96c56.667 0 103.667 15.333 141 46s56 69 56 115c0 67.333 -52.333 123 -157 167l-115 49c-170 70.667 -255 172.334 -255 305.001c0 94.667 33.5 169.167 100.5 223.5s158.833 81.5 275.5 81.5
c60.667 0 135.667 -8.33301 225 -25l41 -8v-164c-110 32.667 -197.667 49 -263 49c-57.333 0 -103.166 -12.5 -137.499 -37.5s-51.5 -58.5 -51.5 -100.5c0 -59.333 48 -109.333 144 -150l95 -40c107.333 -45.333 183.333 -93.166 228 -143.499s67 -113.166 67 -188.499
c0 -95.333 -37.667 -173.666 -113 -234.999s-171.666 -92 -288.999 -92c-90 0 -199.333 21 -328 63zM487.998 -0.00390625h97l-60 -109c51.333 0 96.5 -15.833 135.5 -47.5s58.5 -68.5 58.5 -110.5c0 -46 -19.5 -85 -58.5 -117s-86.5 -48 -142.5 -48
c-48 0 -96.667 7 -146 21v81c30.667 -10 65.667 -15 105 -15c68.667 0 103 24.667 103 74c0 64 -62.333 96 -187 96z" />
    <glyph glyph-name="Scaron" unicode="&#x160;" horiz-adv-x="1103" 
d="M100 28l0.000976562 208.002c166.667 -77.333 304 -116 412 -116c82 0 148.167 21.833 198.5 65.5s75.5 100.5 75.5 170.5c0 58 -16.5 107.333 -49.5 148s-93.833 86 -182.5 136l-102 59c-126 72 -214.833 139.833 -266.5 203.5s-77.5 137.5 -77.5 221.5
c0 114.667 41.333 208.834 124 282.501s188 110.5 316 110.5c114 0 234.333 -19 361 -57v-192c-156 61.333 -272.333 92 -349 92c-72.667 0 -132.667 -19.333 -180 -58s-71 -87.334 -71 -146.001c0 -49.333 17.333 -93 52 -131s98 -83.333 190 -136l106 -60
c128 -72.667 217.333 -141.334 268 -206.001s76 -142.334 76 -233.001c0 -128.667 -47.333 -232 -142 -310s-220.334 -117 -377.001 -117c-100 0 -227.333 21.667 -382 65zM924.001 1925l-241 -321h-218l-241 321h148l203 -202l201 202h148z" />
    <glyph glyph-name="scaron" unicode="&#x161;" horiz-adv-x="1043" 
d="M157 38l-0.00195312 180.996c128.667 -64 240.667 -96 336 -96c56.667 0 103.667 15.333 141 46s56 69 56 115c0 67.333 -52.333 123 -157 167l-115 49c-170 70.667 -255 172.334 -255 305.001c0 94.667 33.5 169.167 100.5 223.5s158.833 81.5 275.5 81.5
c60.667 0 135.667 -8.33301 225 -25l41 -8v-164c-110 32.667 -197.667 49 -263 49c-57.333 0 -103.166 -12.5 -137.499 -37.5s-51.5 -58.5 -51.5 -100.5c0 -59.333 48 -109.333 144 -150l95 -40c107.333 -45.333 183.333 -93.166 228 -143.499s67 -113.166 67 -188.499
c0 -95.333 -37.667 -173.666 -113 -234.999s-171.666 -92 -288.999 -92c-90 0 -199.333 21 -328 63zM869.998 1604l-241 -321h-218l-241 321h148l203 -202l201 202h148z" />
    <glyph glyph-name="Tcedilla" unicode="&#x162;" horiz-adv-x="1295" 
d="M543 0v1323h-525v157h1260v-157h-525v-1323h-210zM622 0h97l-60 -109c51.333 0 96.5 -15.833 135.5 -47.5s58.5 -68.5 58.5 -110.5c0 -46 -19.5 -85 -58.5 -117s-86.5 -48 -142.5 -48c-48 0 -96.667 7 -146 21v81c30.667 -10 65.667 -15 105 -15
c68.667 0 103 24.667 103 74c0 64 -62.333 96 -187 96z" />
    <glyph glyph-name="tcedilla" unicode="&#x163;" horiz-adv-x="766" 
d="M681 0c-60.667 -16.667 -113.333 -25 -158 -25c-100 0 -178 28.667 -234 86s-84 137 -84 239v638h-136v148h136v197l197 19v-216h284v-148h-284v-602c0 -142 61.333 -213 184 -213c26 0 57.667 4.33301 95 13v-136zM468.001 0h97l-60 -109
c51.333 0 96.5 -15.833 135.5 -47.5s58.5 -68.5 58.5 -110.5c0 -46 -19.5 -85 -58.5 -117s-86.5 -48 -142.5 -48c-48 0 -96.667 7 -146 21v81c30.667 -10 65.667 -15 105 -15c68.667 0 103 24.667 103 74c0 64 -62.333 96 -187 96z" />
    <glyph glyph-name="Tcaron" unicode="&#x164;" horiz-adv-x="1295" 
d="M543 0v1323h-525v157h1260v-157h-525v-1323h-210zM998 1925l-241 -321h-218l-241 321h148l203 -202l201 202h148z" />
    <glyph glyph-name="tcaron" unicode="&#x165;" horiz-adv-x="1180" 
d="M681 0c-60.667 -16.667 -113.333 -25 -158 -25c-100 0 -178 28.667 -234 86s-84 137 -84 239v638h-136v148h136v197l197 19v-216h284v-148h-284v-602c0 -142 61.333 -213 184 -213c26 0 57.667 4.33301 95 13v-136zM576.001 1258v58.999c50.667 14 76 74.333 76 181v17
h-76v197h197v-171c0 -175.333 -65.667 -269.666 -197 -282.999z" />
    <glyph glyph-name="Tbar" unicode="&#x166;" horiz-adv-x="1295" 
d="M753 0h-210v715h-303v148h303v460h-525v157h1260v-157h-525v-460h303v-148h-303v-715z" />
    <glyph glyph-name="tbar" unicode="&#x167;" horiz-adv-x="766" 
d="M681 136l0.000976562 -136c-60.667 -16.667 -113.334 -25 -158.001 -25c-100 0 -178 28.667 -234 86s-84 137 -84 239v268h-185v123h185v247h-136v148h136v197l197 19v-216h284v-148h-284v-247h284v-123h-284v-232c0 -142 61.333 -213 184 -213
c26 0 57.667 4.33301 95 13z" />
    <glyph glyph-name="Utilde" unicode="&#x168;" horiz-adv-x="1419" 
d="M179 1480l210 -0.000976562v-934c0 -148.667 27.5 -256.834 82.5 -324.501s142.5 -101.5 262.5 -101.5c117.333 0 200.5 31.833 249.5 95.5s73.5 171.5 73.5 323.5v941h184v-938c0 -129.333 -12.667 -228.666 -38 -297.999s-71 -130.333 -137 -183
c-82.667 -65.333 -196.334 -98 -341.001 -98c-187.333 0 -325.166 47.333 -413.499 142s-132.5 242.334 -132.5 443.001v932zM377 1604c7.33301 156 69 234 185 234c48.667 0 93.667 -12.667 135 -38l60 -37c37.333 -23.333 65.666 -35 84.999 -35c46 0 72 36.667 78 110
h123c-7.33301 -156 -69 -234 -185 -234c-48.667 0 -93.667 13 -135 39l-60 37c-37.333 22.667 -65.666 34 -84.999 34c-46 0 -72 -36.667 -78 -110h-123z" />
    <glyph glyph-name="utilde" unicode="&#x169;" horiz-adv-x="1271" 
d="M876 0v203.999c-104.667 -152.667 -231.667 -229 -381 -229c-94.667 0 -170 29.833 -226 89.5s-84 140.167 -84 241.5v780h197v-716c0 -81.333 11.833 -139.166 35.5 -173.499s63.167 -51.5 118.5 -51.5c120 0 233.333 79 340 237v704h197v-1086h-197zM296 1283
c7.33301 156 69 234 185 234c48.667 0 93.667 -12.667 135 -38l60 -37c37.333 -23.333 65.666 -35 84.999 -35c46 0 72 36.667 78 110h123c-7.33301 -156 -69 -234 -185 -234c-48.667 0 -93.667 13 -135 39l-60 37c-37.333 22.667 -65.666 34 -84.999 34
c-46 0 -72 -36.667 -78 -110h-123z" />
    <glyph glyph-name="Umacron" unicode="&#x16a;" horiz-adv-x="1419" 
d="M179 1480l210 -0.000976562v-934c0 -148.667 27.5 -256.834 82.5 -324.501s142.5 -101.5 262.5 -101.5c117.333 0 200.5 31.833 249.5 95.5s73.5 171.5 73.5 323.5v941h184v-938c0 -129.333 -12.667 -228.666 -38 -297.999s-71 -130.333 -137 -183
c-82.667 -65.333 -196.334 -98 -341.001 -98c-187.333 0 -325.166 47.333 -413.499 142s-132.5 242.334 -132.5 443.001v932zM402 1604v148h642v-148h-642z" />
    <glyph glyph-name="umacron" unicode="&#x16b;" horiz-adv-x="1271" 
d="M876 0v203.999c-104.667 -152.667 -231.667 -229 -381 -229c-94.667 0 -170 29.833 -226 89.5s-84 140.167 -84 241.5v780h197v-716c0 -81.333 11.833 -139.166 35.5 -173.499s63.167 -51.5 118.5 -51.5c120 0 233.333 79 340 237v704h197v-1086h-197zM308 1283v148h642
v-148h-642z" />
    <glyph glyph-name="Ubreve" unicode="&#x16c;" horiz-adv-x="1419" 
d="M179 1480l210 -0.000976562v-934c0 -148.667 27.5 -256.834 82.5 -324.501s142.5 -101.5 262.5 -101.5c117.333 0 200.5 31.833 249.5 95.5s73.5 171.5 73.5 323.5v941h184v-938c0 -129.333 -12.667 -228.666 -38 -297.999s-71 -130.333 -137 -183
c-82.667 -65.333 -196.334 -98 -341.001 -98c-187.333 0 -325.166 47.333 -413.499 142s-132.5 242.334 -132.5 443.001v932zM390 1900h123.001c21.333 -98.667 91.333 -148 210 -148s188.667 49.333 210 148h123c-10 -89.333 -45.333 -161 -106 -215
s-136.334 -81 -227.001 -81s-166.167 26.833 -226.5 80.5s-95.833 125.5 -106.5 215.5z" />
    <glyph glyph-name="ubreve" unicode="&#x16d;" horiz-adv-x="1271" 
d="M876 0v203.999c-104.667 -152.667 -231.667 -229 -381 -229c-94.667 0 -170 29.833 -226 89.5s-84 140.167 -84 241.5v780h197v-716c0 -81.333 11.833 -139.166 35.5 -173.499s63.167 -51.5 118.5 -51.5c120 0 233.333 79 340 237v704h197v-1086h-197zM296 1579h123.001
c21.333 -98.667 91.333 -148 210 -148s188.667 49.333 210 148h123c-10 -89.333 -45.333 -161 -106 -215s-136.334 -81 -227.001 -81s-166.167 26.833 -226.5 80.5s-95.833 125.5 -106.5 215.5z" />
    <glyph glyph-name="Uring" unicode="&#x16e;" horiz-adv-x="1419" 
d="M179 1480l210 -0.000976562v-934c0 -148.667 27.5 -256.834 82.5 -324.501s142.5 -101.5 262.5 -101.5c117.333 0 200.5 31.833 249.5 95.5s73.5 171.5 73.5 323.5v941h184v-938c0 -129.333 -12.667 -228.666 -38 -297.999s-71 -130.333 -137 -183
c-82.667 -65.333 -196.334 -98 -341.001 -98c-187.333 0 -325.166 47.333 -413.499 142s-132.5 242.334 -132.5 443.001v932zM710 1579c-63.333 0 -117 22 -161 66s-66 97.667 -66 161c0 62.667 22 116.167 66 160.5s97.667 66.5 161 66.5c62.667 0 116.167 -22 160.5 -66
s66.5 -97.667 66.5 -161s-22 -117 -66 -161s-97.667 -66 -161 -66zM710 1665c39.333 0 72.668 13.6689 100.001 41.002s41 60.666 41 99.999s-13.833 72.666 -41.5 99.999s-60.834 41 -99.501 41c-39.333 0 -72.666 -13.667 -99.999 -41s-41 -60.666 -41 -99.999
c0 -38.667 13.667 -71.834 41 -99.501s60.666 -41.5 99.999 -41.5z" />
    <glyph glyph-name="uring" unicode="&#x16f;" horiz-adv-x="1271" 
d="M876 0v203.999c-104.667 -152.667 -231.667 -229 -381 -229c-94.667 0 -170 29.833 -226 89.5s-84 140.167 -84 241.5v780h197v-716c0 -81.333 11.833 -139.166 35.5 -173.499s63.167 -51.5 118.5 -51.5c120 0 233.333 79 340 237v704h197v-1086h-197zM629 1283
c-63.333 0 -117 22 -161 66s-66 97.667 -66 161c0 62.667 22 116.167 66 160.5s97.667 66.5 161 66.5c62.667 0 116.167 -22 160.5 -66s66.5 -97.667 66.5 -161s-22 -117 -66 -161s-97.667 -66 -161 -66zM629 1369c39.333 0 72.668 13.6689 100.001 41.002
s41 60.666 41 99.999s-13.833 72.666 -41.5 99.999s-60.834 41 -99.501 41c-39.333 0 -72.666 -13.667 -99.999 -41s-41 -60.666 -41 -99.999c0 -38.667 13.667 -71.834 41 -99.501s60.666 -41.5 99.999 -41.5z" />
    <glyph glyph-name="Udblacute" unicode="&#x170;" horiz-adv-x="1419" 
d="M179 1480l210 -0.000976562v-934c0 -148.667 27.5 -256.834 82.5 -324.501s142.5 -101.5 262.5 -101.5c117.333 0 200.5 31.833 249.5 95.5s73.5 171.5 73.5 323.5v941h184v-938c0 -129.333 -12.667 -228.666 -38 -297.999s-71 -130.333 -137 -183
c-82.667 -65.333 -196.334 -98 -341.001 -98c-187.333 0 -325.166 47.333 -413.499 142s-132.5 242.334 -132.5 443.001v932zM492 1604l241 321h191l-321 -321h-111zM844 1604l240 321h191l-320 -321h-111z" />
    <glyph glyph-name="udblacute" unicode="&#x171;" horiz-adv-x="1271" 
d="M876 0v203.999c-104.667 -152.667 -231.667 -229 -381 -229c-94.667 0 -170 29.833 -226 89.5s-84 140.167 -84 241.5v780h197v-716c0 -81.333 11.833 -139.166 35.5 -173.499s63.167 -51.5 118.5 -51.5c120 0 233.333 79 340 237v704h197v-1086h-197zM382 1283l241 321
h191l-321 -321h-111zM734 1283l240 321h191l-320 -321h-111z" />
    <glyph glyph-name="Uogonek" unicode="&#x172;" horiz-adv-x="1419" 
d="M179 1480l210 -0.000976562v-934c0 -148.667 27.5 -256.834 82.5 -324.501s142.5 -101.5 262.5 -101.5c117.333 0 200.5 31.833 249.5 95.5s73.5 171.5 73.5 323.5v941h184v-938c0 -129.333 -12.667 -228.666 -38 -297.999s-71 -130.333 -137 -183
c-82.667 -65.333 -196.334 -98 -341.001 -98c-187.333 0 -325.166 47.333 -413.499 142s-132.5 242.334 -132.5 443.001v932zM829 -0.000976562l106.999 0.000976562c-85.333 -51.333 -128 -110.666 -128 -177.999c0 -64.667 37.667 -97 113 -97c38 0 68.667 5 92 15v-81
c-40 -19.333 -86 -29 -138 -29c-61.333 0 -110.666 14.667 -147.999 44s-56 67.666 -56 114.999c0 83.333 52.667 153.666 158 210.999z" />
    <glyph glyph-name="uogonek" unicode="&#x173;" horiz-adv-x="1271" 
d="M876 0v203.999c-104.667 -152.667 -231.667 -229 -381 -229c-94.667 0 -170 29.833 -226 89.5s-84 140.167 -84 241.5v780h197v-716c0 -81.333 11.833 -139.166 35.5 -173.499s63.167 -51.5 118.5 -51.5c120 0 233.333 79 340 237v704h197v-1086h-197zM875 -0.000976562
l106.999 0.000976562c-85.333 -51.333 -128 -110.666 -128 -177.999c0 -64.667 37.667 -97 113 -97c38 0 68.667 5 92 15v-81c-40 -19.333 -86 -29 -138 -29c-61.333 0 -110.666 14.667 -147.999 44s-56 67.666 -56 114.999c0 83.333 52.667 153.666 158 210.999z" />
    <glyph glyph-name="Wcircumflex" unicode="&#x174;" horiz-adv-x="1752" 
d="M383 0l-381 1480h202l303 -1169l279 1169h202l264 -1153l326 1153h171l-415 -1480h-209l-261 1141l-273 -1141h-208zM537 1604l241 321h218l241 -321h-148l-203 202l-201 -202h-148z" />
    <glyph glyph-name="wcircumflex" unicode="&#x175;" horiz-adv-x="1578" 
d="M323 0l-311 1086h193l238 -841l257 841h197l225 -841l273 841h169l-354 -1086h-198l-230 841l-260 -841h-199zM448 1283l241 321h218l241 -321h-148l-203 202l-201 -202h-148z" />
    <glyph glyph-name="Ycircumflex" unicode="&#x176;" horiz-adv-x="1276" 
d="M511 0v618l-494 862h240l384 -668l414 668h195l-529 -858v-622h-210zM306 1604l241 321h218l241 -321h-148l-203 202l-201 -202h-148z" />
    <glyph glyph-name="ycircumflex" unicode="&#x177;" horiz-adv-x="1070" 
d="M260 -395l176 395l-420 1086h213l311 -818l332 818h186l-593 -1481h-205zM200 1283l241 321h218l241 -321h-148l-203 202l-201 -202h-148z" />
    <glyph glyph-name="Ydieresis" unicode="&#x178;" horiz-adv-x="1276" 
d="M511 0v618l-494 862h240l384 -668l414 668h195l-529 -858v-622h-210zM350 1604v173h173v-173h-173zM745 1604v173h173v-173h-173z" />
    <glyph glyph-name="Zacute" unicode="&#x179;" horiz-adv-x="1239" 
d="M95 0v168l795 1155h-746v157h998v-157l-795 -1155h795v-168h-1047zM483 1604l241 321h228l-321 -321h-148z" />
    <glyph glyph-name="zacute" unicode="&#x17a;" horiz-adv-x="1175" 
d="M123 0v148l672 790h-641v148h884v-148l-672 -790h685v-148h-928zM414 1283l241 321h228l-321 -321h-148z" />
    <glyph glyph-name="Zdot" unicode="&#x17b;" horiz-adv-x="1238" 
d="M95 0v168l795 1155h-746v157h998v-157l-795 -1155h795v-168h-1047zM545 1604v197h197v-197h-197z" />
    <glyph glyph-name="zdot" unicode="&#x17c;" horiz-adv-x="1174" 
d="M123 0v148l672 790h-641v148h884v-148l-672 -790h685v-148h-928zM488 1283v197h197v-197h-197z" />
    <glyph glyph-name="Zcaron" unicode="&#x17d;" horiz-adv-x="1239" 
d="M95 0v168l795 1155h-746v157h998v-157l-795 -1155h795v-168h-1047zM1004 1925l-241 -321h-218l-241 321h148l203 -202l201 202h148z" />
    <glyph glyph-name="zcaron" unicode="&#x17e;" horiz-adv-x="1175" 
d="M123 0v148l672 790h-641v148h884v-148l-672 -790h685v-148h-928zM935 1604l-241 -321h-218l-241 321h148l203 -202l201 202h148z" />
    <glyph glyph-name="slong" unicode="&#x17f;" horiz-adv-x="714" 
d="M234 0l0.000976562 938h-154v148h154v130c0 258.667 118 388 354 388c66 0 141 -11 225 -33v-156c-88.667 27.333 -159.667 41 -213 41c-64.667 0 -108.834 -15.5 -132.501 -46.5s-35.5 -88.5 -35.5 -172.5v-1237h-198z" />
    <glyph glyph-name="bbar" unicode="&#x180;" horiz-adv-x="1289" 
d="M394 882c80.667 152 201.667 227.999 363 227.999c130.667 0 233.5 -47.667 308.5 -143s112.5 -225.666 112.5 -390.999c0 -180 -42.5 -325.167 -127.5 -435.5s-196.833 -165.5 -335.5 -165.5c-128.667 0 -235.667 49.333 -321 148l-24 -135h-173v1246h-197v123h197v222
h197v-222h260v-123h-260v-352zM394 258.999c101.333 -90.667 198 -136 290 -136c90.667 0 160.667 37.833 210 113.5s74 182.167 74 319.5c0 254.667 -84 382 -252 382c-110 0 -217.333 -59.667 -322 -179v-500z" />
    <glyph glyph-name="Bhook" unicode="&#x181;" horiz-adv-x="1431" 
d="M445 0v1326h-17c-93.333 0 -158 -11.833 -194 -35.5s-54 -66.167 -54 -127.5c0 -52 10 -100.333 30 -145h-163c-14.667 52.667 -22 101.334 -22 146.001c0 113.333 32.5 194.333 97.5 243s172.5 73 322.5 73h384c148 0 261.5 -28 340.5 -84s118.5 -136.667 118.5 -242
c0 -85.333 -26.333 -161.333 -79 -228s-127.667 -118.334 -225 -155.001c242 -74 363 -207.667 363 -401c0 -86.667 -26.667 -163.667 -80 -231c-40.667 -51.333 -89.667 -87.333 -147 -108s-137 -31 -239 -31h-436zM653 157h43c154 0 253.667 9.66699 299 29
c86.667 36.667 130 104.667 130 204c0 88 -39.333 161.167 -118 219.5s-177 87.5 -295 87.5h-59v-540zM653 830h67c112.667 0 199.667 24 261 72s92 116.333 92 205c0 144 -112.667 216 -338 216h-82v-493z" />
    <glyph glyph-name="Btopbar" unicode="&#x182;" horiz-adv-x="1191" 
d="M191 0l0.000976562 1480h827v-154h-617v-481h113c117.333 0 202.666 -4.83301 255.999 -14.5s104 -29.834 152 -60.501c113.333 -72 170 -178.333 170 -319c0 -164.667 -64.333 -287.334 -193 -368.001c-88 -55.333 -234.333 -83 -439 -83h-269zM401.001 154.002h74.001
c144 0 244.333 20.667 301 62c70.667 52 106 125.667 106 221c0 89.333 -29.833 154 -89.5 194s-155.834 60 -288.501 60h-103v-537z" />
    <glyph glyph-name="btopbar" unicode="&#x183;" horiz-adv-x="1289" 
d="M197 -12v1591h784v-148h-586l-1 -549c80.667 152 201.667 228 363 228c130.667 0 233.5 -47.667 308.5 -143s112.5 -225.666 112.5 -390.999c0 -180 -42.5 -325.167 -127.5 -435.5s-196.833 -165.5 -335.5 -165.5c-128.667 0 -235.667 49.333 -321 148l-24 -135h-173z
M394 258.999c101.333 -90.667 198 -136 290 -136c90.667 0 160.667 37.833 210 113.5s74 182.167 74 319.5c0 254.667 -84 382 -252 382c-110 0 -217.333 -59.667 -322 -179v-500z" />
    <glyph glyph-name="Tonesix" unicode="&#x184;" horiz-adv-x="1166" 
d="M191 0l0.000976562 1480h210v-635h113c117.333 0 202.666 -4.83301 255.999 -14.5s104 -29.834 152 -60.501c113.333 -72 170 -178.333 170 -319c0 -164.667 -64.333 -287.334 -193 -368.001c-88 -55.333 -234.333 -83 -439 -83h-269zM401.001 154.002h74.001
c144 0 244.333 20.667 301 62c70.667 52 106 125.667 106 221c0 89.333 -29.833 154 -89.5 194s-155.834 60 -288.501 60h-103v-537z" />
    <glyph glyph-name="tonesix" unicode="&#x185;" horiz-adv-x="1012" 
d="M204 0v1086h197v-438h70c299.333 0 449 -105.333 449 -316c0 -221.333 -159.333 -332 -478 -332h-238zM401 148h54c170 0 255 60 255 180c0 110 -84 165 -252 165h-57v-345z" />
    <glyph glyph-name="Oopen" unicode="&#x186;" horiz-adv-x="1417" 
d="M114 1404c146 75.333 305.334 113 478.001 113c230 0 407.667 -67.333 533 -202s188 -326 188 -574c0 -247.333 -63.833 -438.833 -191.5 -574.5s-307.834 -203.5 -540.501 -203.5c-132 0 -287 22 -465 66v196c202.667 -70 359 -105 469 -105
c160.667 0 285 54.333 373 163s132 262 132 460c0 189.333 -47 338.333 -141 447s-222.667 163 -386 163c-139.333 0 -289 -42.667 -449 -128v179z" />
    <glyph glyph-name="Chook" unicode="&#x187;" horiz-adv-x="1417" 
d="M1303 256l0.000976562 -180.001c-146 -75.333 -305.333 -113 -478 -113c-230 0 -407.667 67.333 -533 202s-188 326 -188 574c0 246.667 63.667 438 191 574s306.666 204 537.999 204c103.333 0 208 -10 314 -30v12c0 140 25.167 241.833 75.5 305.5
s130.833 95.5 241.5 95.5c44 0 92.667 -7 146 -21v-163c-45.333 20 -94 30 -146 30c-60.667 0 -103 -18.167 -127 -54.5s-36 -101.166 -36 -194.499v-242c-202.667 70 -359 105 -469 105c-160.667 0 -285 -54.333 -373 -163s-132 -262 -132 -460
c0 -189.333 47 -338.333 141 -447s222.667 -163 386 -163c139.333 0 289 43 449 129z" />
    <glyph glyph-name="chook" unicode="&#x188;" horiz-adv-x="1090" 
d="M791 1102v119.001c0 255.333 100.667 383 302 383c50.667 0 103.334 -6.66699 158.001 -20v-149c-43.333 18 -90.333 27 -141 27c-64.667 0 -109.334 -17.5 -134.001 -52.5s-37 -99.5 -37 -193.5v-306c-111.333 32.667 -202 49 -272 49
c-101.333 0 -182.333 -37.833 -243 -113.5s-91 -176.5 -91 -302.5c0 -122 31.333 -220.667 94 -296s144.667 -113 246 -113c90 0 182.667 23 278 69v-170c-127.333 -38.667 -237.333 -58 -330 -58c-146.667 0 -268.334 54.333 -365.001 163s-145 245.667 -145 411
c0 177.333 47.833 315.166 143.5 413.499s229.834 147.5 402.501 147.5c41.333 0 86 -2.66699 134 -8z" />
    <glyph glyph-name="Dbar1" unicode="&#x189;" horiz-adv-x="1534" 
d="M192 0v679h-222v157h222v644h492c147.333 0 266 -16.333 356 -49s168 -88 234 -166c104.667 -124 157 -287.333 157 -490c0 -228.667 -61.333 -414 -184 -556c-66.667 -78 -143.667 -134 -231 -168s-197 -51 -329 -51h-495zM402 157h268.998
c192.667 0 328.667 51.667 408 155c86 110 129 257.667 129 443c0 174 -42.333 310.667 -127 410c-51.333 60.667 -112.666 102.167 -183.999 124.5s-178.666 33.5 -321.999 33.5h-173v-487h333v-157h-333v-522z" />
    <glyph glyph-name="Dhook" unicode="&#x18a;" horiz-adv-x="1787" 
d="M445 0l0.000976562 1326h-17c-93.333 0 -158 -11.833 -194 -35.5s-54 -66.167 -54 -127.5c0 -52 10 -100.333 30 -145h-163c-14.667 52.667 -22 101.334 -22 146.001c0 113.333 32.5 194.333 97.5 243s172.5 73 322.5 73h492c146.667 0 265.167 -16.333 355.5 -49
s168.5 -88 234.5 -166c104.667 -124 157 -287.333 157 -490c0 -228.667 -61.333 -414 -184 -556c-66.667 -78 -143.834 -134 -231.501 -168s-197.167 -51 -328.5 -51h-495zM655.001 156.999h268.998c192 0 328 51.667 408 155c86 110 129 257.667 129 443
c0 174 -42.333 310.667 -127 410c-51.333 60.667 -112.666 102.167 -183.999 124.5s-178.666 33.5 -321.999 33.5h-173v-1166z" />
    <glyph glyph-name="Dtopbar" unicode="&#x18b;" horiz-adv-x="1190" 
d="M1000 0l-269 -0.00195312c-204.667 0 -351 27.667 -439 83c-128.667 80.667 -193 203.334 -193 368.001c0 140.667 56.333 247 169 319c48.667 30.667 99.667 50.834 153 60.501s138.333 14.5 255 14.5h114v481h-617v154h827v-1480zM790 153.998l-0.000976562 537h-103
c-133.333 0 -229.666 -20 -288.999 -60s-89 -105 -89 -195c0 -94.667 35.333 -168 106 -220c56 -41.333 156 -62 300 -62h75z" />
    <glyph glyph-name="dtopbar" unicode="&#x18c;" horiz-adv-x="1289" 
d="M894 0l-0.000976562 204.001c-80 -152.667 -200.667 -229 -362 -229c-130.667 0 -233.5 47.667 -308.5 143s-112.5 225.666 -112.5 390.999c0 180.667 42.5 326 127.5 436s196.833 165 335.5 165c128.667 0 235.334 -49.333 320.001 -148v469h-586v148h784v-1579h-198z
M893.999 827.001c-102 90 -198.667 135 -290 135c-90 0 -159.667 -37.667 -209 -113s-74 -182 -74 -320c0 -254 84 -381 252 -381c109.333 0 216.333 59.667 321 179v500z" />
    <glyph glyph-name="deltaturn" unicode="&#x18d;" horiz-adv-x="1209" 
d="M719 602c121.333 -63.333 208.668 -122.497 262.001 -177.497s80 -113.5 80 -175.5c0 -85.333 -41.167 -152.333 -123.5 -201s-196.5 -73 -342.5 -73c-92.667 0 -178 9.66699 -256 29v164c85.333 -30 177.666 -45 276.999 -45c74.667 0 134.667 10 180 30
s68 46.333 68 79c0 49.333 -59 108.666 -177 177.999l-94 54l-108 66c-132 79.333 -227.333 162.666 -286 249.999s-88 189 -88 305c0 151.333 46.167 275.666 138.5 372.999s210.833 146 355.5 146c141.333 0 258.833 -47.5 352.5 -142.5s140.5 -214.5 140.5 -358.5
c0 -236 -126.333 -403 -379 -501zM572.002 698.003c210.667 73.333 316 209.666 316 408.999c0 99.333 -27.667 182.333 -83 249s-124.333 100 -207 100c-79.333 0 -145.333 -34.833 -198 -104.5s-79 -156.5 -79 -260.5c0 -89.333 18.333 -162.666 55 -219.999
s102 -115 196 -173z" />
    <glyph glyph-name="Eturn" unicode="&#x18e;" horiz-adv-x="1110" 
d="M919 1480v-1480h-826v157h617v475h-518v155h518v536h-661v157h870z" />
    <glyph glyph-name="Schwa" unicode="&#x18f;" horiz-adv-x="1388" 
d="M125 1423c141.333 62.667 289.332 94 443.999 94c224 0 399.167 -68.833 525.5 -206.5s189.5 -328.167 189.5 -571.5c0 -231.333 -58.167 -418.5 -174.5 -561.5s-268.5 -214.5 -456.5 -214.5c-359.333 0 -539 236 -539 708l1 82h958c0 170 -47.167 311.167 -141.5 423.5
s-213.166 168.5 -356.499 168.5c-148 0 -298 -36.667 -450 -110v188zM1057 586h-718v-18c0 -300.667 107 -451 321 -451c101.333 0 187.833 42.333 259.5 127s117.5 198.667 137.5 342z" />
    <glyph glyph-name="Epsilon1" unicode="&#x190;" horiz-adv-x="1079" 
d="M1012 10c-125.333 -31.333 -239.335 -47 -342.002 -47c-161.333 0 -288.666 40 -381.999 120s-140 189 -140 327c0 90 24.667 171.667 74 245s117 128.333 203 165c-156 94 -234 214 -234 360c0 107.333 38.167 190.5 114.5 249.5s183.833 88.5 322.5 88.5
c131.333 0 251 -19.667 359 -59v-163c-107.333 44.667 -214 67 -320 67c-78 0 -141 -20.5 -189 -61.5s-72 -94.833 -72 -161.5c0 -84 31.833 -149 95.5 -195s153.834 -69 270.501 -69h24v-154h-25c-121.333 0 -218.5 -28.667 -291.5 -86s-109.5 -133.333 -109.5 -228
c0 -86 29.333 -156 88 -210s134.667 -81 228 -81c80 0 188.667 25.667 326 77v-184z" />
    <glyph glyph-name="Fhook" unicode="&#x191;" horiz-adv-x="1098" 
d="M-98 -393v159.999c48 -21.333 96 -32 144 -32c60 0 99.333 15.333 118 46s28 94.334 28 191.001v1508h827v-157h-617v-496h518v-155h-518v-692c0 -140 -24.5 -241.667 -73.5 -305s-127.167 -95 -234.5 -95c-68.667 0 -132.667 9 -192 27z" />
    <glyph glyph-name="fscript" unicode="&#x192;" horiz-adv-x="800" 
d="M-98 -387v157c88 -27.333 158.667 -41 212 -41c64.667 0 109 15.333 133 46s36 88 36 172v991h-173v148h173v130c0 258.667 117.667 388 353 388c66.667 0 141.667 -11 225 -33v-156c-88 27.333 -158.667 41 -212 41c-64.667 0 -109 -15.5 -133 -46.5
s-36 -88.5 -36 -172.5v-151h272v-148h-272v-970c0 -258 -117.667 -387 -353 -387c-66.667 0 -141.667 10.667 -225 32z" />
    <glyph glyph-name="Ghook" unicode="&#x193;" horiz-adv-x="1480" 
d="M1303 40c-179.333 -51.333 -335.667 -77.0029 -469 -77.0029c-235.333 0 -415.833 66.833 -541.5 200.5s-188.5 325.834 -188.5 576.501c0 246 63.667 437 191 573s306.666 204 537.999 204c103.333 0 208 -10 314 -30v12c0 140 25.167 241.833 75.5 305.5
s130.833 95.5 241.5 95.5c44 0 92.667 -7 146 -21v-163c-45.333 20 -94 30 -146 30c-60.667 0 -103 -18.167 -127 -54.5s-36 -101.166 -36 -194.499v-241c-204 69.333 -360.333 104 -469 104c-160 0 -284.167 -54.167 -372.5 -162.5s-132.5 -261.166 -132.5 -458.499
c0 -195.333 47.333 -347.333 142 -456s227.334 -163 398.001 -163c70 0 145.667 12.333 227 37v482h209v-599z" />
    <glyph glyph-name="Gamma1" unicode="&#x194;" horiz-adv-x="1346" 
d="M781 289l11.999 -18.999c44 -68.667 82 -145.334 114 -230.001s48 -151 48 -199c0 -74 -27.167 -135.833 -81.5 -185.5s-122.166 -74.5 -203.499 -74.5c-77.333 0 -140.333 22.167 -189 66.5s-73 101.5 -73 171.5c0 102 51.333 239 154 411l17 28l-567 1222h218l457 -982
l460 982h187zM670.999 94.001l-13 -28c-52 -109.333 -78 -188.666 -78 -237.999c0 -66 30.333 -99 91 -99c66 0 99 35.333 99 106c0 51.333 -33 137.666 -99 258.999z" />
    <glyph glyph-name="hv" unicode="&#x195;" horiz-adv-x="1863" 
d="M1505 1086l214 -0.00292969c21.333 -85.333 32 -183.666 32 -294.999c0 -247.333 -51.333 -445.166 -154 -593.499s-239.667 -222.5 -411 -222.5c-86.667 0 -157 25 -211 75c-34 31.333 -57 68.333 -69 111s-18 108.334 -18 197.001v358
c0 80.667 -11.833 138.167 -35.5 172.5s-62.834 51.5 -117.501 51.5c-120.667 0 -234.334 -79 -341.001 -237v-703h-197v1579h197v-697c104 152 231.333 228 382 228c94.667 0 169.834 -29.833 225.501 -89.5s83.5 -139.834 83.5 -240.501v-407
c0 -83.333 12.333 -142.666 37 -177.999s65.667 -53 123 -53c98.667 0 176.834 51 234.501 153s86.5 240.333 86.5 415c0 152.667 -20.333 278 -61 376z" />
    <glyph glyph-name="Iota1" unicode="&#x196;" horiz-adv-x="820" 
d="M753 7c-82.667 -29.333 -159.667 -44 -231 -44c-104 0 -185 29.667 -243 89c-40 41.333 -67.667 91.5 -83 150.5s-23 146.167 -23 261.5v1016h210v-1000c0 -138 13.333 -229.833 40 -275.5s80 -68.5 160 -68.5c43.333 0 100 12 170 36v-165z" />
    <glyph glyph-name="Ibar" unicode="&#x197;" horiz-adv-x="753" 
d="M272 709h-247v155h247v616h210v-616h246v-155h-246v-709h-210v709z" />
    <glyph glyph-name="Khook" unicode="&#x198;" horiz-adv-x="1360" 
d="M191 0l0.000976562 1480h198v-725c131.333 234.667 269.666 417.334 414.999 548.001s283.333 196 414 196c70 0 134 -17.667 192 -53v-181c-72 52.667 -139.667 79 -203 79c-84.667 0 -182 -50.833 -292 -152.5s-214 -236.5 -312 -404.5l698 -787h-271l-641 749v-749
h-198z" />
    <glyph glyph-name="khook" unicode="&#x199;" horiz-adv-x="1197" 
d="M394 559l460 527h212l-439 -507l530 -579h-252l-511 557v-557h-197v984c0 413.333 167 620 501 620c87.333 0 175.333 -14 264 -42v-173c-89.333 44.667 -181 67 -275 67c-105.333 0 -180.5 -39 -225.5 -117s-67.5 -208.667 -67.5 -392v-388z" />
    <glyph glyph-name="lbar" unicode="&#x19a;" horiz-adv-x="740" 
d="M272 728h-247v148h247v703h197v-703h247v-148h-247v-728h-197v728z" />
    <glyph glyph-name="lambdabar" unicode="&#x19b;" horiz-adv-x="1217" 
d="M499 985l-58.001 137.001l-249 -109l-50 113l250 109l-24 43c-26.667 49.333 -56.167 83 -88.5 101s-78.833 27 -139.5 27h-29v173h37c120.667 0 209.334 -17.833 266.001 -53.5s109 -106.167 157 -211.5l249 109l50 -113l-249 -109l327 -748
c64.667 -146.667 131.667 -278.334 201 -395.001l34 -58h-222c-68 112.667 -129.667 232 -185 358l-185 418l-356 -776h-190z" />
    <glyph glyph-name="mcapturn" unicode="&#x19c;" horiz-adv-x="2178" 
d="M1987 1480v-1480h-210v216c-120 -168.667 -267.333 -253 -442 -253c-180 0 -295.333 90.667 -346 272c-130 -181.333 -285.667 -272 -467 -272c-120 0 -211.333 43 -274 129c-50 68 -75 189.333 -75 364v1024h210v-1030c0 -107.333 14.167 -183.5 42.5 -228.5
s76.833 -67.5 145.5 -67.5c142.667 0 277.334 92.667 404.001 278v1048h210v-1030c0 -106.667 15.167 -182.667 45.5 -228s81.5 -68 153.5 -68c68 0 137.167 24.833 207.5 74.5s132.166 117.5 185.499 203.5v1048h210z" />
    <glyph glyph-name="Nhook" unicode="&#x19d;" horiz-adv-x="1513" 
d="M372 -92c0 -103.333 -27.5 -183.667 -82.5 -241s-131.833 -86 -230.5 -86c-48.667 0 -97.667 6.66699 -147 20v155c42 -18.667 84 -28 126 -28c56 0 95.667 16.667 119 50s35 89.333 35 168v1534h206l745 -1143v1143h180v-1480h-205l-746 1143v-1235z" />
    <glyph glyph-name="nleg" unicode="&#x19e;" horiz-adv-x="1271" 
d="M197 0l0.000976562 1086h197v-204c104 152 231.333 228 382 228c94.667 0 169.834 -29.833 225.501 -89.5s83.5 -139.834 83.5 -240.501v-1175h-197v1111c0 80.667 -11.833 138.167 -35.5 172.5s-62.834 51.5 -117.501 51.5c-120.667 0 -234.334 -79 -341.001 -237v-703
h-197z" />
    <glyph glyph-name="Obar" unicode="&#x19f;" horiz-adv-x="1592" 
d="M796 -37c-210 0 -377.833 70.5 -503.5 211.5s-188.5 329.5 -188.5 565.5s62.833 424.5 188.5 565.5s293.5 211.5 503.5 211.5s377.833 -70.5 503.5 -211.5s188.5 -329.5 188.5 -565.5s-62.833 -424.5 -188.5 -565.5s-293.5 -211.5 -503.5 -211.5zM328 685
c12 -184 57.832 -324.167 137.499 -420.5s189.834 -144.5 330.501 -144.5s251 48.167 331 144.5s125.667 236.5 137 420.5h-936zM330.999 845h930c-14.667 164 -62.5 290.833 -143.5 380.5s-188.167 134.5 -321.5 134.5s-240.5 -44.833 -321.5 -134.5
s-128.833 -216.5 -143.5 -380.5z" />
    <glyph glyph-name="Ohorn" unicode="&#x1a0;" horiz-adv-x="1591" 
d="M1433 1789c14 -53.333 21 -102.335 21 -147.002c0 -146.667 -65.333 -244 -196 -292c153.333 -139.333 230 -342.666 230 -609.999c0 -236 -62.833 -424.5 -188.5 -565.5s-293.5 -211.5 -503.5 -211.5s-377.833 70.5 -503.5 211.5s-188.5 329.5 -188.5 565.5
c0 236.667 62.833 425.334 188.5 566.001s293.834 211 504.501 211c82 0 161 -12.333 237 -37h17c93.333 0 158.166 12 194.499 36s54.5 66.667 54.5 128c0 52 -10 100.333 -30 145h163zM796 119.998c147.333 0 262.333 54.833 345 164.5s124 262.167 124 457.5
c0 194 -41.333 345.5 -124 454.5s-197.667 163.5 -345 163.5s-262.333 -54.5 -345 -163.5s-124 -260.5 -124 -454.5c0 -195.333 41.333 -347.833 124 -457.5s197.667 -164.5 345 -164.5z" />
    <glyph glyph-name="ohorn" unicode="&#x1a1;" horiz-adv-x="1283" 
d="M1012 954c90 -112 134.999 -249.332 134.999 -411.999c0 -174 -46.5 -312 -139.5 -414s-219.167 -153 -378.5 -153s-285.5 51 -378.5 153s-139.5 240.333 -139.5 415c0 174 46.5 312 139.5 414s218.833 153 377.5 153c58.667 0 117.334 -8 176.001 -24h32
c94 0 158.5 12.167 193.5 36.5s52.5 69.5 52.5 135.5c0 50 -9 96.333 -27 139h149c13.333 -54.667 20 -107.334 20 -158.001c0 -149.333 -70.667 -244.333 -212 -285zM628.999 123.001c98 0 174 36.667 228 110s81 176.666 81 309.999s-27 236.5 -81 309.5
s-130 109.5 -228 109.5s-173.833 -36.5 -227.5 -109.5s-80.5 -176.167 -80.5 -309.5s26.833 -236.666 80.5 -309.999s129.5 -110 227.5 -110z" />
    <glyph glyph-name="OI" unicode="&#x1a2;" horiz-adv-x="2171" 
d="M1789 -395l0.00195312 1434c0 114 -13.833 194.5 -41.5 241.5s-75.167 70.5 -142.5 70.5c-78.667 0 -164.334 -33.333 -257.001 -100c96.667 -142 145 -313.333 145 -514c0 -234.667 -63.333 -422.334 -190 -563.001s-295.667 -211 -507 -211
c-208 0 -375.167 71.333 -501.5 214s-189.5 331.334 -189.5 566.001c0 235.333 63.167 423.166 189.5 563.499s295.166 210.5 506.499 210.5c177.333 0 326 -51.333 446 -154l15 13c112 94.667 234 142 366 142c247.333 0 371 -145.333 371 -436v-1477h-210z
M798.002 117.001c148.667 0 264.666 54.667 347.999 164s125 261.666 125 456.999s-41.833 348.333 -125.5 459s-199.167 166 -346.5 166c-148 0 -263.667 -55 -347 -165s-125 -262.333 -125 -457c0 -197.333 41.333 -350.666 124 -459.999s198.334 -164 347.001 -164z" />
    <glyph glyph-name="oi" unicode="&#x1a3;" horiz-adv-x="1827" 
d="M629 123c96.667 0 172.333 37.5 227 112.5s82 179.167 82 312.5c0 130 -27.333 231.667 -82 305s-130.667 110 -228 110c-98.667 0 -174.5 -36.667 -227.5 -110s-79.5 -177.666 -79.5 -312.999c0 -130.667 27.167 -232.834 81.5 -306.501s129.833 -110.5 226.5 -110.5z
M1444 -395v1004c0 143.333 -13.333 232.666 -40 267.999c-34 44.667 -80.667 67 -140 67c-60.667 0 -124.334 -28 -191.001 -84c50 -97.333 75 -203.333 75 -318c0 -172 -46.833 -309.5 -140.5 -412.5s-219.167 -154.5 -376.5 -154.5c-161.333 0 -288.333 50.833 -381 152.5
s-139 240.834 -139 417.501c0 172.667 46.333 310.167 139 412.5s217.334 153.5 374.001 153.5c145.333 0 265.666 -43.667 360.999 -131l15 14c84.667 78 179.334 117 284.001 117c238.667 0 358 -146.333 358 -439v-1067h-198z" />
    <glyph glyph-name="Phook" unicode="&#x1a4;" horiz-adv-x="1386" 
d="M445 0v1326h-17c-93.333 0 -158 -11.833 -194 -35.5s-54 -66.167 -54 -127.5c0 -52 10 -100.333 30 -145h-163c-14.667 52.667 -22 101.334 -22 146.001c0 113.333 32.5 194.333 97.5 243s172.5 73 322.5 73h403c116 0 205.5 -9.5 268.5 -28.5s114.5 -52.5 154.5 -100.5
c52.667 -63.333 79 -149.666 79 -258.999c0 -157.333 -53.333 -280.666 -160 -369.999s-254.667 -134 -444 -134h-93v-588h-208zM653 746.997l85 0.000976562c124.667 0 221 28.667 289 86s102 138.666 102 243.999c0 88 -26.833 151 -80.5 189s-142.5 57 -266.5 57h-129
v-576z" />
    <glyph glyph-name="phook" unicode="&#x1a5;" horiz-adv-x="1289" 
d="M197 -395v1379c0 413.333 167 620 501 620c87.333 0 175.333 -14 264 -42v-173c-89.333 44.667 -181 67 -275 67c-105.333 0 -180.5 -39 -225.5 -117s-67.5 -208.667 -67.5 -392v-65c80.667 152 201.667 228 363 228c130.667 0 233.5 -47.667 308.5 -143
s112.5 -225.666 112.5 -390.999c0 -180 -42.5 -325.167 -127.5 -435.5s-196.833 -165.5 -335.5 -165.5c-128.667 0 -235.667 49.333 -321 148v-518h-197zM394 258.999c101.333 -90.667 198 -136 290 -136c90.667 0 160.667 37.833 210 113.5s74 182.167 74 319.5
c0 254.667 -84 382 -252 382c-110 0 -217.333 -59.667 -322 -179v-500z" />
    <glyph glyph-name="YR" unicode="&#x1a6;" horiz-adv-x="1301" 
d="M191 0l0.000976562 1678h210v-198h239c142.667 0 251.5 -31 326.5 -93s112.5 -152.667 112.5 -272c0 -94 -25.833 -177.5 -77.5 -250.5s-124.834 -129.167 -219.501 -168.5l494 -998h-236l-444 931h-195v-629h-210zM401.001 783h66c128 0 225 26.5 291 79.5
s99 130.5 99 232.5c0 154 -108.333 231 -325 231h-131v-543z" />
    <glyph glyph-name="Tonetwo" unicode="&#x1a7;" horiz-adv-x="1103" 
d="M1003 28c-154.667 -43.333 -281.333 -64.999 -380 -64.999c-158 0 -284.333 38.833 -379 116.5s-142 181.5 -142 311.5c0 90 25.333 167.333 76 232s139.667 133.334 267 206.001l107 60c92 52.667 155.333 98 190 136s52 81.667 52 131
c0 59.333 -23.833 108.166 -71.5 146.499s-107.834 57.5 -180.501 57.5c-76 0 -192 -30.667 -348 -92v192c126.667 38 247 57 361 57c128 0 233.333 -36.833 316 -110.5s124 -167.5 124 -281.5c0 -84.667 -25.667 -158.834 -77 -222.501s-140.333 -131.5 -267 -203.5
l-102 -59c-88.667 -50 -149.667 -95.333 -183 -136s-50 -90 -50 -148c0 -70.667 25.5 -127.667 76.5 -171s117.833 -65 200.5 -65c106.667 0 243.334 38.667 410.001 116v-208z" />
    <glyph glyph-name="tonetwo" unicode="&#x1a8;" horiz-adv-x="1043" 
d="M887 38c-128.667 -42 -238.332 -62.9961 -328.999 -62.9961c-117.333 0 -213.5 30.667 -288.5 92s-112.5 139.666 -112.5 234.999c0 75.333 22.333 138.166 67 188.499s120.667 98.166 228 143.499l95 40c95.333 40.667 143 90.667 143 150c0 92 -64 138 -192 138
c-62.667 0 -149 -16.333 -259 -49v164l41 8c89.333 16.667 164.666 25 225.999 25c116 0 207.333 -27.167 274 -81.5s100 -128.833 100 -223.5c0 -132.667 -84.667 -234.334 -254 -305.001l-116 -49c-104 -44 -156 -99.667 -156 -167c0 -46 18.667 -84.333 56 -115
s84.666 -46 141.999 -46c94.667 0 206.334 32 335.001 96v-181z" />
    <glyph glyph-name="Esh" unicode="&#x1a9;" horiz-adv-x="1191" 
d="M49 0v185l573 557l-524 584v154h1018v-154h-739l497 -554l-606 -587h879v-185h-1098z" />
    <glyph glyph-name="eshlooprev" unicode="&#x1aa;" horiz-adv-x="1080" 
d="M1179 -386c-75.333 -22.667 -148.999 -34 -220.999 -34c-256 0 -384 173 -384 519v895c-64 -45.333 -131.667 -68 -203 -68c-90 0 -168.167 33.833 -234.5 101.5s-99.5 147.5 -99.5 239.5c0 96 33.667 176.333 101 241s151 97 251 97c254.667 0 382 -174.333 382 -523
v-983c0 -138.667 14.5 -235.167 43.5 -289.5s80.167 -81.5 153.5 -81.5c59.333 0 129.666 16 210.999 48v-162zM574.001 1153l0.000976562 29.001c0 182.667 -65.333 274 -196 274c-54.667 0 -100.5 -18.167 -137.5 -54.5s-55.5 -81.5 -55.5 -135.5
c0 -54.667 19.333 -100.334 58 -137.001s86.667 -55 144 -55c71.333 0 133.666 26.333 186.999 79z" />
    <glyph glyph-name="tpalatalhook" unicode="&#x1ab;" horiz-adv-x="766" 
d="M212 -399l0.00195312 155.001c41.333 -18 83 -27 125 -27c53.333 0 91.166 16.5 113.499 49.5s33.5 88.833 33.5 167.5v31c-186 21.333 -279 129 -279 323v638h-136v148h136v197l197 19v-216h284v-148h-284v-602c0 -142 61.333 -213 184 -213c26 0 57.667 4.33301 95 13
v-228c0 -102.667 -28.333 -182.834 -85 -240.501s-135.334 -86.5 -236.001 -86.5c-48.667 0 -98 6.66699 -148 20z" />
    <glyph glyph-name="Thook" unicode="&#x1ac;" horiz-adv-x="1376" 
d="M1359 1480v-157h-525v-1323h-210v1323h-197c-92.667 0 -157.167 -11.833 -193.5 -35.5s-54.5 -66.167 -54.5 -127.5c0 -52 10 -100.333 30 -145h-162c-14.667 54 -22 103.667 -22 149c0 113.333 32.5 194.333 97.5 243s172.167 73 321.5 73h915z" />
    <glyph glyph-name="thook" unicode="&#x1ad;" horiz-adv-x="766" 
d="M402 1086h284.002v-148h-284v-602c0 -142 61.333 -213 184 -213c26 0 57.667 4.33301 95 13v-136c-60.667 -16.667 -113.334 -25 -158.001 -25c-100 0 -178 28.667 -234 86s-84 137 -84 239v638h-136v148h136v190c0 103.333 28.167 183.833 84.5 241.5
s135.166 86.5 236.499 86.5c48.667 0 98 -7 148 -21v-154c-42 18 -84 27 -126 27c-52.667 0 -90.167 -16.5 -112.5 -49.5s-33.5 -88.833 -33.5 -167.5v-153z" />
    <glyph glyph-name="Trthook" unicode="&#x1ae;" horiz-adv-x="1295" 
d="M753 1323l-0.000976562 -1351c0 -97.333 9.33301 -161.166 28 -191.499s57.667 -45.5 117 -45.5c48.667 0 97 10.667 145 32v-160c-59.333 -18 -123.666 -27 -192.999 -27c-107.333 0 -185.333 31.833 -234 95.5s-73 165.167 -73 304.5v1343h-525v157h1260v-157h-525z
" />
    <glyph glyph-name="Uhorn" unicode="&#x1af;" horiz-adv-x="1685" 
d="M179 1480l210 -0.000976562v-934c0 -148.667 27.5 -256.834 82.5 -324.501s142.5 -101.5 262.5 -101.5c117.333 0 200.5 31.833 249.5 95.5s73.5 171.5 73.5 323.5v941h196c96 0 162.167 11.833 198.5 35.5s54.5 66.5 54.5 128.5c0 52 -10 100.333 -30 145h163
c14 -53.333 21 -102.333 21 -147c0 -110.667 -32 -191 -96 -241s-167.667 -75 -311 -75h-12v-784c0 -129.333 -12.667 -228.666 -38 -297.999s-71 -130.333 -137 -183c-82.667 -65.333 -196.334 -98 -341.001 -98c-187.333 0 -325.166 47.333 -413.499 142
s-132.5 242.334 -132.5 443.001v932z" />
    <glyph glyph-name="uhorn" unicode="&#x1b0;" horiz-adv-x="1498" 
d="M876 0v204c-104.667 -152.667 -231.667 -229 -381 -229c-94.667 0 -170 29.833 -226 89.5s-84 140.167 -84 241.5v780h197v-716c0 -81.333 11.833 -139.166 35.5 -173.499s63.167 -51.5 118.5 -51.5c120 0 233.333 79 340 237v704h197c94 0 158.5 12.167 193.5 36.5
s52.5 69.5 52.5 135.5c0 50 -9 96.333 -27 139h149c13.333 -54.667 20 -107.334 20 -158.001c0 -200.667 -129.333 -301 -388 -301v-938h-197z" />
    <glyph glyph-name="Upsilon2" unicode="&#x1b1;" horiz-adv-x="1604" 
d="M1542 1480v-154h-407c238.667 -180 358 -406 358 -678c0 -200 -64.667 -364.167 -194 -492.5s-295 -192.5 -497 -192.5s-367.667 64.167 -497 192.5s-194 292.833 -194 493.5c0 272 119.333 497.667 358 677h-407v154h611v-154c-226.667 -152.667 -340 -372 -340 -658
c0 -173.333 41.333 -308.5 124 -405.5s197.667 -145.5 345 -145.5c146 0 260.667 48.333 344 145s125 229 125 397c0 292 -113 514.333 -339 667v154h610z" />
    <glyph glyph-name="Vcursive" unicode="&#x1b2;" horiz-adv-x="1462" 
d="M173 1480l209.999 0.00195312v-897c0 -92.667 6 -163.667 18 -213s34 -94.333 66 -135c62.667 -78.667 146.334 -118 251.001 -118c128 0 229.5 52.667 304.5 158s112.5 247.333 112.5 426c0 123.333 -18 258.666 -54 405.999s-81.667 271.666 -137 372.999h248
c33.333 -78.667 62 -184.5 86 -317.5s36 -253.833 36 -362.5c0 -263.333 -54.5 -468.666 -163.5 -615.999s-260.833 -221 -455.5 -221c-150 0 -272.333 44 -367 132c-60 55.333 -100.833 119.666 -122.5 192.999s-32.5 184 -32.5 332v860z" />
    <glyph glyph-name="Yhook" unicode="&#x1b3;" horiz-adv-x="1308" 
d="M569 0l0.00292969 587.001c-32 106.667 -87.333 244 -166 412c-58 123.333 -105.333 204.666 -142 243.999s-83.334 59 -140.001 59c-46 0 -98.333 -18 -157 -54v195c65.333 37.333 135.666 56 210.999 56s138.666 -19.833 189.999 -59.5s105.333 -110.5 162 -212.5
c65.333 -117.333 124 -252.333 176 -405l409 658h196l-529 -861v-618z" />
    <glyph glyph-name="yhook" unicode="&#x1b4;" horiz-adv-x="1376" 
d="M418 0l-417.004 1086h214l307 -813l300 737l50 122c54.667 131.333 113.834 225.333 177.501 282s142.167 85 235.5 85c44.667 0 95.334 -8 152.001 -24v-180c-57.333 24 -109.666 36 -156.999 36c-56 0 -102.167 -21.167 -138.5 -63.5
s-79.166 -125.166 -128.499 -248.499l-34 -85l-531 -1329h-207z" />
    <glyph glyph-name="Zbar" unicode="&#x1b5;" horiz-adv-x="1239" 
d="M95 0v168l360 524h-225v157h333l327 474h-746v157h998v-157l-326 -474h240v-157h-348l-361 -524h795v-168h-1047z" />
    <glyph glyph-name="zbar" unicode="&#x1b6;" horiz-adv-x="1175" 
d="M1038 938l-262 -309h225v-123h-330l-305 -358h685v-148h-928v148l305 358h-225v123h330l262 309h-641v148h884v-148z" />
    <glyph glyph-name="Yogh" unicode="&#x1b7;" horiz-adv-x="1141" 
d="M93 14l0.000976562 186c124.667 -55.333 246.334 -83 365.001 -83c98 0 176.833 26.5 236.5 79.5s89.5 122.833 89.5 209.5c0 94 -39.833 170.167 -119.5 228.5s-183.5 87.5 -311.5 87.5c-34 0 -75.333 -4.33301 -124 -13v151l499 435h-623v185h858v-185l-488 -421
c151.333 0 277.666 -43.333 378.999 -130s152 -194.667 152 -324c0 -142 -49.667 -253.667 -149 -335s-235.333 -122 -408 -122c-118.667 0 -237.334 17 -356.001 51z" />
    <glyph glyph-name="Yoghrev" unicode="&#x1b8;" horiz-adv-x="1141" 
d="M1049 14c-118.667 -34 -237.998 -51 -357.998 -51c-172 0 -307.5 40.667 -406.5 122s-148.5 193 -148.5 335c0 129.333 50.667 237.333 152 324s227.666 130 378.999 130l-488 421v185h858v-185h-623l499 -435v-151c-48.667 8.66699 -90.334 13 -125.001 13
c-127.333 0 -230.833 -29.333 -310.5 -88s-119.5 -134.667 -119.5 -228c0 -88 30 -158.167 90 -210.5s140.333 -78.5 241 -78.5c116 0 236 27.667 360 83v-186z" />
    <glyph glyph-name="yoghrev" unicode="&#x1b9;" horiz-adv-x="1049" 
d="M969 -369c-136 -33.333 -252.668 -49.999 -350.001 -49.999c-154.667 0 -280 40.833 -376 122.5s-144 188.5 -144 320.5c0 128 46.667 232.5 140 313.5s221.333 128.5 384 142.5l-487 458v148h814v-161h-586l481 -445v-137h-15c-162 0 -289.333 -29.333 -382 -88
s-139 -139.334 -139 -242.001c0 -87.333 28.667 -156.5 86 -207.5s135 -76.5 233 -76.5c92.667 0 206.334 23 341.001 69v-167z" />
    <glyph glyph-name="yoghtail" unicode="&#x1ba;" horiz-adv-x="1061" 
d="M951 1086v-148.003l-453 -333c32.667 3.33301 56.334 5 71.001 5c111.333 0 201.833 -27.5 271.5 -82.5s104.5 -126.5 104.5 -214.5c0 -75.333 -24.333 -136.666 -73 -183.999s-140 -98.333 -274 -153l-107 -44c-66.667 -27.333 -110.5 -49 -131.5 -65
s-31.5 -35.667 -31.5 -59c0 -52.667 53.333 -79 160 -79c102.667 0 220 27 352 81v-162c-110.667 -44.667 -224.334 -67 -341.001 -67c-118.667 0 -212 21.333 -280 64s-102 101.334 -102 176.001c0 57.333 24.833 108.5 74.5 153.5s131.5 90.833 245.5 137.5l119 48
c77.333 32 128.5 58.333 153.5 79s37.5 47.334 37.5 80.001c0 91.333 -96.667 137 -290 137c-86 0 -164 -7.33301 -234 -22v151l476 353h-575v148h827z" />
    <glyph glyph-name="2bar" unicode="&#x1bb;" horiz-adv-x="1295" 
d="M408 173l643 0.00195312v-173h-881v173c54.667 128 164 267.667 328 419h-303v148h466c125.333 124 188 245 188 363c0 82.667 -24.833 147.667 -74.5 195s-118.167 71 -205.5 71c-102 0 -222.667 -39.667 -362 -119v174c131.333 62 262 93 392 93
c138 0 249 -37.333 333 -112s126 -173.334 126 -296.001c0 -140.667 -57.333 -263.667 -172 -369h165v-148h-327c-8.66699 -6.66699 -15 -11.667 -19 -15c-11.333 -8.66699 -19 -15.334 -23 -20.001c-158 -134 -249.333 -262 -274 -384z" />
    <glyph glyph-name="Tonefive" unicode="&#x1bc;" horiz-adv-x="1295" 
d="M249 -6l0.000976562 176c98 -39.333 191.333 -59 280 -59c97.333 0 173.833 28.667 229.5 86s83.5 136.333 83.5 237c0 108 -39.333 190.5 -118 247.5s-192.334 85.5 -341.001 85.5c-34.667 0 -71 -2.33301 -109 -7v720h749v-172h-576v-390
c190 0 338.333 -43.667 445 -131s160 -208.333 160 -363c0 -144 -48.5 -256.833 -145.5 -338.5s-230.833 -122.5 -401.5 -122.5c-76 0 -161.333 10.333 -256 31z" />
    <glyph glyph-name="tonefive" unicode="&#x1bd;" horiz-adv-x="972" 
d="M167 -4l-0.000976562 150.999c54.667 -16 116.334 -24 185.001 -24c169.333 0 254 66 254 198c0 150.667 -111.333 226 -334 226c-27.333 0 -56 -2.33301 -86 -7v546h602v-173h-454v-219c150.667 0 268.667 -33.5 354 -100.5s128 -159.833 128 -278.5
c0 -107.333 -39.167 -191.166 -117.5 -251.499s-186.833 -90.5 -325.5 -90.5c-60 0 -128.667 7.66699 -206 23z" />
    <glyph glyph-name="glottalstopbarinv" unicode="&#x1be;" horiz-adv-x="938" 
d="M252 1209l-0.000976562 370h197l1 -370h320v-148h-320l-1 -29c0 -64.667 7.5 -111.5 22.5 -140.5s55.167 -74.833 120.5 -137.5l46 -45c100.667 -96.667 165.334 -169 194.001 -217s43 -106.667 43 -176c0 -105.333 -37 -188.5 -111 -249.5s-175 -91.5 -303 -91.5
c-114.667 0 -235.667 20.667 -363 62v162c113.333 -50.667 225 -76 335 -76c78 0 139.333 18.833 184 56.5s67 89.5 67 155.5c0 88 -56 183.667 -168 287l-48 44c-84 78.667 -141 144.167 -171 196.5s-45 113.833 -45 184.5v14h-203v148h203z" />
    <glyph glyph-name="wynn" unicode="&#x1bf;" horiz-adv-x="1240" 
d="M197 -395l0.000976562 1481h197v-199c129.333 148.667 269.666 223 420.999 223c94.667 0 173.667 -31.333 237 -94s95 -141.667 95 -237c0 -144 -65 -285.333 -195 -424s-316 -264.667 -558 -378v-372h-197zM394.001 136l47.001 28c330.667 194 496 386.667 496 578
c0 122 -61.333 183 -184 183c-120.667 0 -240.334 -66.333 -359.001 -199v-590z" />
    <glyph glyph-name="pipe" unicode="&#x1c0;" horiz-adv-x="580" 
d="M222 0v1579h136v-1579h-136z" />
    <glyph glyph-name="pipedbl" unicode="&#x1c1;" horiz-adv-x="913" 
d="M222 0v1579h136v-1579h-136zM555 0v1579h136v-1579h-136z" />
    <glyph glyph-name="pipedblbar" unicode="&#x1c2;" horiz-adv-x="1320" 
d="M728 518v-518h-136v518h-444v123h444v297h-444v123h444v518h136v-518h444v-123h-444v-297h444v-123h-444z" />
    <glyph glyph-name="exclam1" unicode="&#x1c3;" horiz-adv-x="648" 
d="M225 0v197h197v-197h-197zM250 395l-25 789v296h197v-296l-24 -789h-148z" />
    <glyph glyph-name="DZhacek" unicode="&#x1c4;" horiz-adv-x="2598" 
d="M191 0l0.000976562 1480h492c146.667 0 265.167 -16.333 355.5 -49s168.5 -88 234.5 -166c104.667 -124 157 -287.333 157 -490c0 -228.667 -61.333 -414 -184 -556c-66.667 -78 -143.834 -134 -231.501 -168s-197.167 -51 -328.5 -51h-495zM401.001 157h268.998
c192 0 328 51.667 408 155c86 110 129 257.667 129 443c0 174 -42.333 310.667 -127 410c-51.333 60.667 -112.666 102.167 -183.999 124.5s-178.666 33.5 -321.999 33.5h-173v-1166zM1454 0v168l795 1155h-746v157h998v-157l-795 -1155h795v-168h-1047zM2352 1925
l-241 -321h-218l-241 321h148l203 -202l201 202h148z" />
    <glyph glyph-name="Dzhacek" unicode="&#x1c5;" horiz-adv-x="2633" 
d="M191 0l0.000976562 1480h492c146.667 0 265.167 -16.333 355.5 -49s168.5 -88 234.5 -166c104.667 -124 157 -287.333 157 -490c0 -228.667 -61.333 -414 -184 -556c-66.667 -78 -143.834 -134 -231.501 -168s-197.167 -51 -328.5 -51h-495zM401.001 157h268.998
c192 0 328 51.667 408 155c86 110 129 257.667 129 443c0 174 -42.333 310.667 -127 410c-51.333 60.667 -112.666 102.167 -183.999 124.5s-178.666 33.5 -321.999 33.5h-173v-1166zM1582 0v148l672 790h-641v148h884v-148l-672 -790h685v-148h-928z" />
    <glyph glyph-name="dzhacek" unicode="&#x1c6;" horiz-adv-x="2340" 
d="M894 0l-0.000976562 204.001c-80 -152.667 -200.667 -229 -362 -229c-130.667 0 -233.5 47.667 -308.5 143s-112.5 225.666 -112.5 390.999c0 180.667 42.5 326 127.5 436s196.833 165 335.5 165c128.667 0 235.334 -49.333 320.001 -148v617h198v-1579h-198z
M893.999 827.001c-102 90 -198.667 135 -290 135c-90 0 -159.667 -37.667 -209 -113s-74 -182 -74 -320c0 -254 84 -381 252 -381c109.333 0 216.333 59.667 321 179v500zM1289 0.000976562v148l672 790h-641v148h884v-148l-672 -790h685v-148h-928z" />
    <glyph glyph-name="LJ" unicode="&#x1c7;" horiz-adv-x="1707" 
d="M191 0v1480h210v-1323h666v-157h-876zM886 -275l-0.000976562 186c80 -26 151.333 -39 214 -39c78.667 0 133.834 23 165.501 69s47.5 125.667 47.5 239v1300h210v-1293c0 -322 -152.333 -483 -457 -483c-46.667 0 -106.667 7 -180 21z" />
    <glyph glyph-name="Lj" unicode="&#x1c8;" horiz-adv-x="1671" 
d="M191 0v1480h210v-1323h666v-157h-876zM895 -369v156c92 -38.667 162 -58 210 -58c54.667 0 97 14.667 127 44c20 20 32.5 42.667 37.5 68s7.5 78.333 7.5 159v1086h198v-1086c0 -279.333 -118 -419 -354 -419c-70 0 -145.333 16.667 -226 50zM1277 1283v197h198v-197
h-198z" />
    <glyph glyph-name="lj" unicode="&#x1c9;" horiz-adv-x="1086" 
d="M197 0v1579h197v-1579h-197zM309 -369v156c92 -38.667 162 -58 210 -58c54.667 0 97 14.667 127 44c20 20 32.5 42.667 37.5 68s7.5 78.333 7.5 159v1086h198v-1086c0 -279.333 -118 -419 -354 -419c-70 0 -145.333 16.667 -226 50zM691 1283v197h198v-197h-198z" />
    <glyph glyph-name="NJ" unicode="&#x1ca;" horiz-adv-x="2065" 
d="M191 0v1480h206l745 -1143v1143h180v-1480h-205l-746 1143v-1143h-180zM1244 -275l-0.000976562 186c80 -26 151.333 -39 214 -39c78.667 0 133.834 23 165.501 69s47.5 125.667 47.5 239v1300h210v-1293c0 -322 -152.333 -483 -457 -483c-46.667 0 -106.667 7 -180 21z
" />
    <glyph glyph-name="Nj" unicode="&#x1cb;" horiz-adv-x="2025" 
d="M191 0v1480h206l745 -1143v1143h180v-1480h-205l-746 1143v-1143h-180zM1249 -369v156c92 -38.667 162 -58 210 -58c54.667 0 97 14.667 127 44c20 20 32.5 42.667 37.5 68s7.5 78.333 7.5 159v1086h198v-1086c0 -279.333 -118 -419 -354 -419
c-70 0 -145.333 16.667 -226 50zM1631 1283v197h198v-197h-198z" />
    <glyph glyph-name="nj" unicode="&#x1cc;" horiz-adv-x="1777" 
d="M197 0l0.000976562 1086h197v-204c104 152 231.333 228 382 228c94.667 0 169.834 -29.833 225.501 -89.5s83.5 -139.834 83.5 -240.501v-780h-197v716c0 80.667 -11.833 138.167 -35.5 172.5s-62.834 51.5 -117.501 51.5c-120.667 0 -234.334 -79 -341.001 -237v-703
h-197zM1000 -368.999v156c92 -38.667 162 -58 210 -58c54.667 0 97 14.667 127 44c20 20 32.5 42.667 37.5 68s7.5 78.333 7.5 159v1086h198v-1086c0 -279.333 -118 -419 -354 -419c-70 0 -145.333 16.667 -226 50zM1382 1283v197h198v-197h-198z" />
    <glyph glyph-name="Ahacek" unicode="&#x1cd;" horiz-adv-x="1413" 
d="M17 0l587 1480h208l578 -1480h-227l-161 410h-627l-163 -410h-195zM436 566h505l-252 638zM1058 1925l-241 -321h-218l-241 321h148l203 -202l201 202h148z" />
    <glyph glyph-name="ahacek" unicode="&#x1ce;" horiz-adv-x="1131" 
d="M757 138c-118 -108.667 -231.669 -163.001 -341.002 -163.001c-90 0 -164.667 28.167 -224 84.5s-89 127.5 -89 213.5c0 118.667 49.833 209.834 149.5 273.501s242.834 95.5 429.501 95.5h46v131c0 126 -65.667 189 -197 189c-102 0 -213.333 -32 -334 -96v163
c132.667 54 257.667 81 375 81c120.667 0 209.667 -27.5 267 -82.5s86 -139.833 86 -254.5v-492c0 -112.667 34.667 -169 104 -169c8.66699 0 21.334 1.33301 38.001 4l14 -109c-44.667 -21.333 -94 -32 -148 -32c-92 0 -150.667 54.333 -176 163zM727.998 244.999v281
l-63 2c-109.333 0 -197.5 -20.333 -264.5 -61s-100.5 -94.667 -100.5 -162c0 -47.333 16.667 -87.333 50 -120s74 -49 122 -49c82 0 167.333 36.333 256 109zM924.998 1604l-241 -321h-218l-241 321h148l203 -202l201 202h148z" />
    <glyph glyph-name="Ihacek" unicode="&#x1cf;" horiz-adv-x="590" 
d="M190 0v1480h210v-1480h-210zM645 1925l-241 -321h-218l-241 321h148l203 -202l201 202h148z" />
    <glyph glyph-name="ihacek" unicode="&#x1d0;" horiz-adv-x="592" 
d="M197 0v1086h197v-1086h-197zM646 1604l-241 -321h-218l-241 321h148l203 -202l201 202h148z" />
    <glyph glyph-name="Ohacek" unicode="&#x1d1;" horiz-adv-x="1591" 
d="M796 -37c-210 0 -377.833 70.5 -503.5 211.5s-188.5 329.5 -188.5 565.5s62.833 424.5 188.5 565.5s293.5 211.5 503.5 211.5s377.833 -70.5 503.5 -211.5s188.5 -329.5 188.5 -565.5s-62.833 -424.5 -188.5 -565.5s-293.5 -211.5 -503.5 -211.5zM796 120
c147.333 0 262.333 54.833 345 164.5s124 262.167 124 457.5c0 194 -41.333 345.5 -124 454.5s-197.667 163.5 -345 163.5s-262.333 -54.5 -345 -163.5s-124 -260.5 -124 -454.5c0 -195.333 41.333 -347.833 124 -457.5s197.667 -164.5 345 -164.5zM1146 1925l-241 -321
h-218l-241 321h148l203 -202l201 202h148z" />
    <glyph glyph-name="ohacek" unicode="&#x1d2;" horiz-adv-x="1258" 
d="M629 -25c-159.333 0 -285.5 51 -378.5 153s-139.5 240.333 -139.5 415s46.5 312.834 139.5 414.501s219.167 152.5 378.5 152.5s285.5 -50.833 378.5 -152.5s139.5 -239.834 139.5 -414.501s-46.5 -313 -139.5 -415s-219.167 -153 -378.5 -153zM629 123
c98 0 174 36.667 228 110s81 176.666 81 309.999s-27 236.5 -81 309.5s-130 109.5 -228 109.5s-173.833 -36.5 -227.5 -109.5s-80.5 -176.167 -80.5 -309.5s26.833 -236.666 80.5 -309.999s129.5 -110 227.5 -110zM979 1604l-241 -321h-218l-241 321h148l203 -202l201 202
h148z" />
    <glyph glyph-name="Uhacek" unicode="&#x1d3;" horiz-adv-x="1419" 
d="M179 1480l210 -0.000976562v-934c0 -148.667 27.5 -256.834 82.5 -324.501s142.5 -101.5 262.5 -101.5c117.333 0 200.5 31.833 249.5 95.5s73.5 171.5 73.5 323.5v941h184v-938c0 -129.333 -12.667 -228.666 -38 -297.999s-71 -130.333 -137 -183
c-82.667 -65.333 -196.334 -98 -341.001 -98c-187.333 0 -325.166 47.333 -413.499 142s-132.5 242.334 -132.5 443.001v932zM1073 1925l-241 -321h-218l-241 321h148l203 -202l201 202h148z" />
    <glyph glyph-name="uhacek" unicode="&#x1d4;" horiz-adv-x="1271" 
d="M876 0v203.999c-104.667 -152.667 -231.667 -229 -381 -229c-94.667 0 -170 29.833 -226 89.5s-84 140.167 -84 241.5v780h197v-716c0 -81.333 11.833 -139.166 35.5 -173.499s63.167 -51.5 118.5 -51.5c120 0 233.333 79 340 237v704h197v-1086h-197zM979 1604
l-241 -321h-218l-241 321h148l203 -202l201 202h148z" />
    <glyph glyph-name="Udieresismacron" unicode="&#x1d5;" horiz-adv-x="1419" 
d="M179 1480l210 -0.000976562v-934c0 -148.667 27.5 -256.834 82.5 -324.501s142.5 -101.5 262.5 -101.5c117.333 0 200.5 31.833 249.5 95.5s73.5 171.5 73.5 323.5v941h184v-938c0 -129.333 -12.667 -228.666 -38 -297.999s-71 -130.333 -137 -183
c-82.667 -65.333 -196.334 -98 -341.001 -98c-187.333 0 -325.166 47.333 -413.499 142s-132.5 242.334 -132.5 443.001v932zM439 1604v173h173v-173h-173zM834 1604v173h173v-173h-173zM402 1925v148h642v-148h-642z" />
    <glyph glyph-name="udieresismacron" unicode="&#x1d6;" horiz-adv-x="1271" 
d="M876 0v203.999c-104.667 -152.667 -231.667 -229 -381 -229c-94.667 0 -170 29.833 -226 89.5s-84 140.167 -84 241.5v780h197v-716c0 -81.333 11.833 -139.166 35.5 -173.499s63.167 -51.5 118.5 -51.5c120 0 233.333 79 340 237v704h197v-1086h-197zM345 1283v173h173
v-173h-173zM740 1283v173h173v-173h-173zM308 1604v148h642v-148h-642z" />
    <glyph glyph-name="Udieresisacute" unicode="&#x1d7;" horiz-adv-x="1419" 
d="M179 1480l210 -0.000976562v-934c0 -148.667 27.5 -256.834 82.5 -324.501s142.5 -101.5 262.5 -101.5c117.333 0 200.5 31.833 249.5 95.5s73.5 171.5 73.5 323.5v941h184v-938c0 -129.333 -12.667 -228.666 -38 -297.999s-71 -130.333 -137 -183
c-82.667 -65.333 -196.334 -98 -341.001 -98c-187.333 0 -325.166 47.333 -413.499 142s-132.5 242.334 -132.5 443.001v932zM439 1604v173h173v-173h-173zM834 1604v173h173v-173h-173zM575 1925l241 321h228l-321 -321h-148z" />
    <glyph glyph-name="udieresisacute" unicode="&#x1d8;" horiz-adv-x="1271" 
d="M876 0v203.999c-104.667 -152.667 -231.667 -229 -381 -229c-94.667 0 -170 29.833 -226 89.5s-84 140.167 -84 241.5v780h197v-716c0 -81.333 11.833 -139.166 35.5 -173.499s63.167 -51.5 118.5 -51.5c120 0 233.333 79 340 237v704h197v-1086h-197zM345 1283v173h173
v-173h-173zM740 1283v173h173v-173h-173zM481 1604l241 321h228l-321 -321h-148z" />
    <glyph glyph-name="Udieresishacek" unicode="&#x1d9;" horiz-adv-x="1419" 
d="M179 1480l210 -0.000976562v-934c0 -148.667 27.5 -256.834 82.5 -324.501s142.5 -101.5 262.5 -101.5c117.333 0 200.5 31.833 249.5 95.5s73.5 171.5 73.5 323.5v941h184v-938c0 -129.333 -12.667 -228.666 -38 -297.999s-71 -130.333 -137 -183
c-82.667 -65.333 -196.334 -98 -341.001 -98c-187.333 0 -325.166 47.333 -413.499 142s-132.5 242.334 -132.5 443.001v932zM439 1604v173h173v-173h-173zM834 1604v173h173v-173h-173zM1073 2246l-241 -321h-218l-241 321h148l203 -202l201 202h148z" />
    <glyph glyph-name="udieresishacek" unicode="&#x1da;" horiz-adv-x="1271" 
d="M876 0v203.999c-104.667 -152.667 -231.667 -229 -381 -229c-94.667 0 -170 29.833 -226 89.5s-84 140.167 -84 241.5v780h197v-716c0 -81.333 11.833 -139.166 35.5 -173.499s63.167 -51.5 118.5 -51.5c120 0 233.333 79 340 237v704h197v-1086h-197zM345 1283v173h173
v-173h-173zM740 1283v173h173v-173h-173zM979 1925l-241 -321h-218l-241 321h148l203 -202l201 202h148z" />
    <glyph glyph-name="Udieresisgrave" unicode="&#x1db;" horiz-adv-x="1419" 
d="M179 1480l210 -0.000976562v-934c0 -148.667 27.5 -256.834 82.5 -324.501s142.5 -101.5 262.5 -101.5c117.333 0 200.5 31.833 249.5 95.5s73.5 171.5 73.5 323.5v941h184v-938c0 -129.333 -12.667 -228.666 -38 -297.999s-71 -130.333 -137 -183
c-82.667 -65.333 -196.334 -98 -341.001 -98c-187.333 0 -325.166 47.333 -413.499 142s-132.5 242.334 -132.5 443.001v932zM439 1604v173h173v-173h-173zM834 1604v173h173v-173h-173zM871 1925h-148l-321 321h228z" />
    <glyph glyph-name="udieresisgrave" unicode="&#x1dc;" horiz-adv-x="1271" 
d="M876 0v203.999c-104.667 -152.667 -231.667 -229 -381 -229c-94.667 0 -170 29.833 -226 89.5s-84 140.167 -84 241.5v780h197v-716c0 -81.333 11.833 -139.166 35.5 -173.499s63.167 -51.5 118.5 -51.5c120 0 233.333 79 340 237v704h197v-1086h-197zM345 1283v173h173
v-173h-173zM740 1283v173h173v-173h-173zM777 1604h-148l-321 321h228z" />
    <glyph glyph-name="eturn" unicode="&#x1dd;" horiz-adv-x="1141" 
d="M151 1050c131.333 40 243.999 60 337.999 60c160.667 0 291.334 -53 392.001 -159s151 -243.667 151 -413c0 -164.667 -44.333 -299.667 -133 -405s-202.667 -158 -342 -158c-131.333 0 -232.833 46.667 -304.5 140s-107.5 226 -107.5 398l1 61h685
c-28 258 -154.333 387 -379 387c-82 0 -182.333 -22 -301 -66v155zM821.999 426h-479c0 -202 75.667 -303 227 -303c150.667 0 234.667 101 252 303z" />
    <glyph glyph-name="Adieresismacron" unicode="&#x1de;" horiz-adv-x="1413" 
d="M17 0l587 1480h208l578 -1480h-227l-161 410h-627l-163 -410h-195zM436 566h505l-252 638zM420 1604v173h173v-173h-173zM815 1604v173h173v-173h-173zM382 1925v148h642v-148h-642z" />
    <glyph glyph-name="adieresismacron" unicode="&#x1df;" horiz-adv-x="1131" 
d="M757 138c-118 -108.667 -231.669 -163.001 -341.002 -163.001c-90 0 -164.667 28.167 -224 84.5s-89 127.5 -89 213.5c0 118.667 49.833 209.834 149.5 273.501s242.834 95.5 429.501 95.5h46v131c0 126 -65.667 189 -197 189c-102 0 -213.333 -32 -334 -96v163
c132.667 54 257.667 81 375 81c120.667 0 209.667 -27.5 267 -82.5s86 -139.833 86 -254.5v-492c0 -112.667 34.667 -169 104 -169c8.66699 0 21.334 1.33301 38.001 4l14 -109c-44.667 -21.333 -94 -32 -148 -32c-92 0 -150.667 54.333 -176 163zM727.998 244.999v281
l-63 2c-109.333 0 -197.5 -20.333 -264.5 -61s-100.5 -94.667 -100.5 -162c0 -47.333 16.667 -87.333 50 -120s74 -49 122 -49c82 0 167.333 36.333 256 109zM283.998 1283v173h173v-173h-173zM678.998 1283v173h173v-173h-173zM246.998 1604v148h642v-148h-642z" />
    <glyph glyph-name="Adotmacron" unicode="&#x1e0;" horiz-adv-x="1413" 
d="M17 0l587 1480h208l578 -1480h-227l-161 410h-627l-163 -410h-195zM436 566h505l-252 638zM605 1604v197h197v-197h-197zM382 1925v148h642v-148h-642z" />
    <glyph glyph-name="adotmacron" unicode="&#x1e1;" horiz-adv-x="1131" 
d="M757 138c-118 -108.667 -231.669 -163.001 -341.002 -163.001c-90 0 -164.667 28.167 -224 84.5s-89 127.5 -89 213.5c0 118.667 49.833 209.834 149.5 273.501s242.834 95.5 429.501 95.5h46v131c0 126 -65.667 189 -197 189c-102 0 -213.333 -32 -334 -96v163
c132.667 54 257.667 81 375 81c120.667 0 209.667 -27.5 267 -82.5s86 -139.833 86 -254.5v-492c0 -112.667 34.667 -169 104 -169c8.66699 0 21.334 1.33301 38.001 4l14 -109c-44.667 -21.333 -94 -32 -148 -32c-92 0 -150.667 54.333 -176 163zM727.998 244.999v281
l-63 2c-109.333 0 -197.5 -20.333 -264.5 -61s-100.5 -94.667 -100.5 -162c0 -47.333 16.667 -87.333 50 -120s74 -49 122 -49c82 0 167.333 36.333 256 109zM528.998 1258v197h197v-197h-197zM246.998 1604v148h642v-148h-642z" />
    <glyph glyph-name="AEmacron" unicode="&#x1e2;" horiz-adv-x="1857" 
d="M18 0l861 1480h883v-157h-618v-475h518v-155h-518v-536h664v-157h-874v414h-483l-241 -414h-192zM540 569h394v671zM934 1604v148h642v-148h-642z" />
    <glyph glyph-name="aemacron" unicode="&#x1e3;" horiz-adv-x="1743" 
d="M809 193c-126.667 -145.333 -257.667 -218.001 -393 -218.001c-90 0 -164.667 28.167 -224 84.5s-89 127.5 -89 213.5c0 118.667 49.833 209.834 149.5 273.501s242.834 95.5 429.501 95.5h46v131c0 126 -65.667 189 -197 189c-102 0 -213.333 -32 -334 -96v163
c132.667 54 258 81 376 81c128 0 229.333 -40.333 304 -121c82 80.667 183 121 303 121c278.667 0 418 -199.333 418 -598h-672c18.667 -259.333 140.334 -389 365.001 -389c93.333 0 195.666 23.667 306.999 71v-157c-128.667 -41.333 -248.334 -62 -359.001 -62
c-190 0 -333.333 72.667 -430 218zM728 244.999v281l-63 2c-109.333 0 -197.5 -20.333 -264.5 -61s-100.5 -94.667 -100.5 -162c0 -47.333 16.667 -87.333 50 -120s74 -49 122 -49c82 0 167.333 36.333 256 109zM932 647.999h456.001c0 210 -71.333 315 -214 315
c-144.667 0 -225.334 -105 -242.001 -315zM542.001 1283v148h642v-148h-642z" />
    <glyph glyph-name="Gbar" unicode="&#x1e4;" horiz-adv-x="1649" 
d="M1303 40c-179.333 -51.333 -335.669 -77.0029 -469.002 -77.0029c-235.333 0 -415.833 66.833 -541.5 200.5s-188.5 325.834 -188.5 576.501c0 246.667 63.833 437.834 191.5 573.501s307.167 203.5 538.5 203.5c148.667 0 304.334 -22.333 467.001 -67v-194
c-204 69.333 -360.333 104 -469 104c-160 0 -284.167 -54.167 -372.5 -162.5s-132.5 -261.166 -132.5 -458.499c0 -195.333 47.333 -347.333 142 -456s227.334 -163 398.001 -163c70 0 145.667 12.333 227 37v197h-247v157h247v223h209v-223h247v-157h-247v-314z" />
    <glyph glyph-name="gbar" unicode="&#x1e5;" horiz-adv-x="1437" 
d="M201 -361l23.002 171.001c114 -54 226.667 -81 338 -81c221.333 0 332 117.667 332 353v171c-34 -72 -82.5 -128 -145.5 -168s-133.167 -60 -210.5 -60c-131.333 0 -235.333 47.167 -312 141.5s-115 222.166 -115 383.499c0 165.333 43.667 300 131 404
s200.333 156 339 156c121.333 0 225.666 -49.333 312.999 -148v124h198v-417h247v-123h-247v-250c0 -170 -8.83301 -295.833 -26.5 -377.5s-50.834 -148.5 -99.501 -200.5c-86 -91.333 -220.333 -137 -403 -137c-125.333 0 -246 19.333 -362 58zM894.002 376.001v170.001
h-271v123h271v158c-86.667 90 -181 135 -283 135c-90.667 0 -161.667 -36.333 -213 -109s-77 -173.334 -77 -302.001c0 -236 83.667 -354 251 -354c114 0 221.333 59.667 322 179z" />
    <glyph glyph-name="Ghacek" unicode="&#x1e6;" horiz-adv-x="1480" 
d="M1303 40c-179.333 -51.333 -335.669 -77.0029 -469.002 -77.0029c-235.333 0 -415.833 66.833 -541.5 200.5s-188.5 325.834 -188.5 576.501c0 246.667 63.833 437.834 191.5 573.501s307.167 203.5 538.5 203.5c148.667 0 304.334 -22.333 467.001 -67v-194
c-204 69.333 -360.333 104 -469 104c-160 0 -284.167 -54.167 -372.5 -162.5s-132.5 -261.166 -132.5 -458.499c0 -195.333 47.333 -347.333 142 -456s227.334 -163 398.001 -163c70 0 145.667 12.333 227 37v482h209v-599zM1179 1925l-241 -321h-218l-241 321h148l203 -202
l201 202h148z" />
    <glyph glyph-name="ghacek" unicode="&#x1e7;" horiz-adv-x="1277" 
d="M201 -361l23.002 171.001c114 -54 226.667 -81 338 -81c221.333 0 332 117.667 332 353v171c-34 -72 -82.5 -128 -145.5 -168s-133.167 -60 -210.5 -60c-131.333 0 -235.333 47.167 -312 141.5s-115 222.166 -115 383.499c0 165.333 43.667 300 131 404
s200.333 156 339 156c121.333 0 225.666 -49.333 312.999 -148v124h198v-790c0 -170 -8.83301 -295.833 -26.5 -377.5s-50.834 -148.5 -99.501 -200.5c-86 -91.333 -220.333 -137 -403 -137c-125.333 0 -246 19.333 -362 58zM894.002 376.001v451.001
c-86.667 90 -181 135 -283 135c-90.667 0 -161.667 -36.333 -213 -109s-77 -173.334 -77 -302.001c0 -236 83.667 -354 251 -354c114 0 221.333 59.667 322 179zM953.002 1604l-241 -321h-218l-241 321h148l203 -202l201 202h148z" />
    <glyph glyph-name="Khacek" unicode="&#x1e8;" horiz-adv-x="1337" 
d="M191 0v1480h197v-728l599 728h211l-580 -706l683 -774h-266l-647 750v-750h-197zM997 1925l-241 -321h-218l-241 321h148l203 -202l201 202h148z" />
    <glyph glyph-name="khacek" unicode="&#x1e9;" horiz-adv-x="1197" 
d="M197 0v1579h197v-1020l460 527h212l-439 -507l530 -579h-252l-511 557v-557h-197zM1066 1925l-241 -321h-218l-241 321h148l203 -202l201 202h148z" />
    <glyph glyph-name="Oogonek" unicode="&#x1ea;" horiz-adv-x="1591" 
d="M796 -37c-210 0 -377.833 70.5 -503.5 211.5s-188.5 329.5 -188.5 565.5s62.833 424.5 188.5 565.5s293.5 211.5 503.5 211.5s377.833 -70.5 503.5 -211.5s188.5 -329.5 188.5 -565.5s-62.833 -424.5 -188.5 -565.5s-293.5 -211.5 -503.5 -211.5zM796 120
c147.333 0 262.333 54.833 345 164.5s124 262.167 124 457.5c0 194 -41.333 345.5 -124 454.5s-197.667 163.5 -345 163.5s-262.333 -54.5 -345 -163.5s-124 -260.5 -124 -454.5c0 -195.333 41.333 -347.833 124 -457.5s197.667 -164.5 345 -164.5zM855 0
l106.999 0.000976562c-85.333 -51.333 -128 -110.666 -128 -177.999c0 -64.667 37.667 -97 113 -97c38 0 68.667 5 92 15v-81c-40 -19.333 -86 -29 -138 -29c-61.333 0 -110.666 14.667 -147.999 44s-56 67.666 -56 114.999c0 83.333 52.667 153.666 158 210.999z" />
    <glyph glyph-name="oogonek" unicode="&#x1eb;" horiz-adv-x="1258" 
d="M629 -25c-159.333 0 -285.5 51 -378.5 153s-139.5 240.333 -139.5 415s46.5 312.834 139.5 414.501s219.167 152.5 378.5 152.5s285.5 -50.833 378.5 -152.5s139.5 -239.834 139.5 -414.501s-46.5 -313 -139.5 -415s-219.167 -153 -378.5 -153zM629 123
c98 0 174 36.667 228 110s81 176.666 81 309.999s-27 236.5 -81 309.5s-130 109.5 -228 109.5s-173.833 -36.5 -227.5 -109.5s-80.5 -176.167 -80.5 -309.5s26.833 -236.666 80.5 -309.999s129.5 -110 227.5 -110zM671 0l106.999 0.000976562
c-85.333 -51.333 -128 -110.666 -128 -177.999c0 -64.667 37.667 -97 113 -97c38 0 68.667 5 92 15v-81c-40 -19.333 -86 -29 -138 -29c-61.333 0 -110.666 14.667 -147.999 44s-56 67.666 -56 114.999c0 83.333 52.667 153.666 158 210.999z" />
    <glyph glyph-name="Oogonekmacron" unicode="&#x1ec;" horiz-adv-x="1591" 
d="M796 -37c-210 0 -377.833 70.5 -503.5 211.5s-188.5 329.5 -188.5 565.5s62.833 424.5 188.5 565.5s293.5 211.5 503.5 211.5s377.833 -70.5 503.5 -211.5s188.5 -329.5 188.5 -565.5s-62.833 -424.5 -188.5 -565.5s-293.5 -211.5 -503.5 -211.5zM796 120
c147.333 0 262.333 54.833 345 164.5s124 262.167 124 457.5c0 194 -41.333 345.5 -124 454.5s-197.667 163.5 -345 163.5s-262.333 -54.5 -345 -163.5s-124 -260.5 -124 -454.5c0 -195.333 41.333 -347.833 124 -457.5s197.667 -164.5 345 -164.5zM855 0
l106.999 0.000976562c-85.333 -51.333 -128 -110.666 -128 -177.999c0 -64.667 37.667 -97 113 -97c38 0 68.667 5 92 15v-81c-40 -19.333 -86 -29 -138 -29c-61.333 0 -110.666 14.667 -147.999 44s-56 67.666 -56 114.999c0 83.333 52.667 153.666 158 210.999z
M474.999 1604v148h642v-148h-642z" />
    <glyph glyph-name="oogonekmacron" unicode="&#x1ed;" horiz-adv-x="1258" 
d="M629 -25c-159.333 0 -285.5 51 -378.5 153s-139.5 240.333 -139.5 415s46.5 312.834 139.5 414.501s219.167 152.5 378.5 152.5s285.5 -50.833 378.5 -152.5s139.5 -239.834 139.5 -414.501s-46.5 -313 -139.5 -415s-219.167 -153 -378.5 -153zM629 123
c98 0 174 36.667 228 110s81 176.666 81 309.999s-27 236.5 -81 309.5s-130 109.5 -228 109.5s-173.833 -36.5 -227.5 -109.5s-80.5 -176.167 -80.5 -309.5s26.833 -236.666 80.5 -309.999s129.5 -110 227.5 -110zM671 0l106.999 0.000976562
c-85.333 -51.333 -128 -110.666 -128 -177.999c0 -64.667 37.667 -97 113 -97c38 0 68.667 5 92 15v-81c-40 -19.333 -86 -29 -138 -29c-61.333 0 -110.666 14.667 -147.999 44s-56 67.666 -56 114.999c0 83.333 52.667 153.666 158 210.999zM307.999 1283v148h642v-148
h-642z" />
    <glyph glyph-name="Yoghhacek" unicode="&#x1ee;" horiz-adv-x="1141" 
d="M93 14l0.000976562 186c124.667 -55.333 246.334 -83 365.001 -83c98 0 176.833 26.5 236.5 79.5s89.5 122.833 89.5 209.5c0 94 -39.833 170.167 -119.5 228.5s-183.5 87.5 -311.5 87.5c-34 0 -75.333 -4.33301 -124 -13v151l499 435h-623v185h858v-185l-488 -421
c151.333 0 277.666 -43.333 378.999 -130s152 -194.667 152 -324c0 -142 -49.667 -253.667 -149 -335s-235.333 -122 -408 -122c-118.667 0 -237.334 17 -356.001 51zM884.001 1925l-241 -321h-218l-241 321h148l203 -202l201 202h148z" />
    <glyph glyph-name="yoghhacek" unicode="&#x1ef;" horiz-adv-x="1049" 
d="M80 -369l-0.000976562 167.001c134 -46 249 -69 345 -69s172.5 25.667 229.5 77s85.5 119.666 85.5 204.999c0 103.333 -46.167 184.5 -138.5 243.5s-219.166 88.5 -380.499 88.5h-18v137l482 445h-586v161h814v-148l-487 -458c162.667 -14 290.667 -61.5 384 -142.5
s140 -185.5 140 -313.5c0 -132.667 -48.167 -239.667 -144.5 -321s-222.833 -122 -379.5 -122c-94.667 0 -210 16.667 -346 50zM855.999 1604l-241 -321h-218l-241 321h148l203 -202l201 202h148z" />
    <glyph glyph-name="jhacek" unicode="&#x1f0;" horiz-adv-x="623" 
d="M-153 -369v156c92 -38.667 162 -58 210 -58c54.667 0 97 14.667 127 44c20 20 32.5 42.667 37.5 68s7.5 78.333 7.5 159v1086h198v-1086c0 -279.333 -118 -419 -354 -419c-70 0 -145.333 16.667 -226 50zM678 1604l-241 -321h-218l-241 321h148l202 -202l202 202h148z
" />
    <glyph glyph-name="Aacutering" unicode="&#x1fa;" horiz-adv-x="1413" 
d="M17 0l587 1480h208l578 -1480h-227l-161 410h-627l-163 -410h-195zM436 566h505l-252 638zM560 2023l241 321h228l-321 -321h-148zM708 1482c-63.333 0 -117 22 -161 66s-66 97.667 -66 161c0 62.667 22 116.167 66 160.5s97.667 66.5 161 66.5
c62.667 0 116.167 -22 160.5 -66s66.5 -97.667 66.5 -161s-22 -117 -66 -161s-97.667 -66 -161 -66zM708 1568c39.333 0 72.668 13.6689 100.001 41.002s41 60.666 41 99.999s-13.833 72.666 -41.5 99.999s-60.834 41 -99.501 41c-39.333 0 -72.666 -13.667 -99.999 -41
s-41 -60.666 -41 -99.999c0 -38.667 13.667 -71.834 41 -99.501s60.666 -41.5 99.999 -41.5z" />
    <glyph glyph-name="aacutering" unicode="&#x1fb;" horiz-adv-x="1131" 
d="M757 138c-118 -108.667 -231.669 -163.001 -341.002 -163.001c-90 0 -164.667 28.167 -224 84.5s-89 127.5 -89 213.5c0 118.667 49.833 209.834 149.5 273.501s242.834 95.5 429.501 95.5h46v131c0 126 -65.667 189 -197 189c-102 0 -213.333 -32 -334 -96v163
c132.667 54 257.667 81 375 81c120.667 0 209.667 -27.5 267 -82.5s86 -139.833 86 -254.5v-492c0 -112.667 34.667 -169 104 -169c8.66699 0 21.334 1.33301 38.001 4l14 -109c-44.667 -21.333 -94 -32 -148 -32c-92 0 -150.667 54.333 -176 163zM727.998 244.999v281
l-63 2c-109.333 0 -197.5 -20.333 -264.5 -61s-100.5 -94.667 -100.5 -162c0 -47.333 16.667 -87.333 50 -120s74 -49 122 -49c82 0 167.333 36.333 256 109zM418.998 1762l241 321h228l-321 -321h-148zM566.998 1209c-63.333 0 -117 22 -161 66s-66 97.667 -66 161
c0 62.667 22 116.167 66 160.5s97.667 66.5 161 66.5c62.667 0 116.167 -22 160.5 -66s66.5 -97.667 66.5 -161s-22 -117 -66 -161s-97.667 -66 -161 -66zM566.998 1295c39.333 0 72.668 13.6689 100.001 41.002s41 60.666 41 99.999s-13.833 72.666 -41.5 99.999
s-60.834 41 -99.501 41c-39.333 0 -72.666 -13.667 -99.999 -41s-41 -60.666 -41 -99.999c0 -38.667 13.667 -71.834 41 -99.501s60.666 -41.5 99.999 -41.5z" />
    <glyph glyph-name="AEacute" unicode="&#x1fc;" horiz-adv-x="1857" 
d="M18 0l861 1480h883v-157h-618v-475h518v-155h-518v-536h664v-157h-874v414h-483l-241 -414h-192zM540 569h394v671zM996 1604l241 321h228l-321 -321h-148z" />
    <glyph glyph-name="aeacute" unicode="&#x1fd;" horiz-adv-x="1743" 
d="M809 193c-126.667 -145.333 -257.667 -218.001 -393 -218.001c-90 0 -164.667 28.167 -224 84.5s-89 127.5 -89 213.5c0 118.667 49.833 209.834 149.5 273.501s242.834 95.5 429.501 95.5h46v131c0 126 -65.667 189 -197 189c-102 0 -213.333 -32 -334 -96v163
c132.667 54 258 81 376 81c128 0 229.333 -40.333 304 -121c82 80.667 183 121 303 121c278.667 0 418 -199.333 418 -598h-672c18.667 -259.333 140.334 -389 365.001 -389c93.333 0 195.666 23.667 306.999 71v-157c-128.667 -41.333 -248.334 -62 -359.001 -62
c-190 0 -333.333 72.667 -430 218zM728 244.999v281l-63 2c-109.333 0 -197.5 -20.333 -264.5 -61s-100.5 -94.667 -100.5 -162c0 -47.333 16.667 -87.333 50 -120s74 -49 122 -49c82 0 167.333 36.333 256 109zM932 647.999h456.001c0 210 -71.333 315 -214 315
c-144.667 0 -225.334 -105 -242.001 -315zM728.001 1283l241 321h228l-321 -321h-148z" />
    <glyph glyph-name="Oslashacute" unicode="&#x1fe;" horiz-adv-x="1591" 
d="M1097 1247c-79.333 75.333 -179.999 113 -301.999 113c-146.667 0 -261.334 -54.5 -344.001 -163.5s-124 -260.5 -124 -454.5c0 -155.333 27.667 -286.333 83 -393zM495.001 234c79.333 -76 180.333 -114 303 -114c146 0 260.333 54.667 343 164s124 261 124 455
c0 156.667 -27.667 287.667 -83 393zM115.001 -37l168.999 220.999c-120 144.667 -180 330.334 -180 557.001c0 236 62.833 424.333 188.5 565s293.167 211 502.5 211c158 0 295.667 -42 413 -126l97 126h172l-169 -220c120 -144 180 -330.333 180 -559
c0 -234 -62.833 -421.667 -188.5 -563s-292.5 -212 -500.5 -212c-163.333 0 -301.666 42 -414.999 126l-96 -126h-173zM648 1604l241 321h228l-321 -321h-148z" />
    <glyph glyph-name="oslashacute" unicode="&#x1ff;" horiz-adv-x="1258" 
d="M111 -25l127 169c-84.667 97.333 -127 229.333 -127 396c0 176 46.333 315 139 417s219 153 379 153c118.667 0 220 -28.333 304 -85l68 85h146l-129 -165l2 -4c84.667 -106 127 -238.333 127 -397c0 -174.667 -46.333 -313.167 -139 -415.5s-218.667 -153.5 -378 -153.5
c-116 0 -217.333 28.333 -304 85l-67 -85h-148zM895 787l-463 -591c51.333 -48.667 116.333 -73 195 -73c98 0 174.333 36.5 229 109.5s82 174.833 82 305.5c0 90.667 -14.333 173.667 -43 249zM364 298l463 590c-54 49.333 -119.333 74 -196 74
c-98 0 -174.167 -36.5 -228.5 -109.5s-81.5 -174.833 -81.5 -305.5c0 -96.667 14.333 -179.667 43 -249zM481 1283l241 321h228l-321 -321h-148z" />
    <glyph glyph-name="aturn" unicode="&#x250;" horiz-adv-x="1131" 
d="M373 948c118.667 108 232.669 161.999 342.002 161.999c90 0 164.5 -28.167 223.5 -84.5s88.5 -127.166 88.5 -212.499c0 -119.333 -49.833 -210.833 -149.5 -274.5s-242.5 -95.5 -428.5 -95.5l-47 1v-132c0 -126 65.667 -189 197 -189c102 0 213.333 32.333 334 97v-163
c-132 -54.667 -257 -82 -375 -82c-120 0 -208.833 27.5 -266.5 82.5s-86.5 140.167 -86.5 255.5v492c0 112 -34.667 168 -104 168c-8.66699 0 -21.334 -1 -38.001 -3l-14 109c45.333 20.667 94.666 31 147.999 31c92 0 150.667 -54 176 -162zM402.002 839.999
l-0.000976562 -281.001l64 -1c108.667 0 196.5 20.333 263.5 61s100.5 94.334 100.5 161.001c0 48 -16.5 88.333 -49.5 121s-73.833 49 -122.5 49c-81.333 0 -166.666 -36.667 -255.999 -110z" />
    <glyph glyph-name="ascript" unicode="&#x251;" horiz-adv-x="1246" 
d="M851 322c-47.333 -102.667 -111 -186.167 -191 -250.5s-160.333 -96.5 -241 -96.5c-90 0 -163.833 39.5 -221.5 118.5s-86.5 180.5 -86.5 304.5c0 210 70.333 392.333 211 547c100.667 110 221.667 165 363 165c58.667 0 114 -8 166 -24h198v-1086h-198v322zM851 948
c-43.333 22 -91.334 33.001 -144.001 33.001c-105.333 0 -196 -53.333 -272 -160s-114 -234.334 -114 -383.001c0 -185.333 58 -278 174 -278c54.667 0 113.834 33.167 177.501 99.5s123.167 156.5 178.5 270.5v418z" />
    <glyph glyph-name="ascriptturn" unicode="&#x252;" horiz-adv-x="1246" 
d="M394 764c48 102.667 112.001 186.167 192.001 250.5s160.333 96.5 241 96.5c90 0 163.833 -39.5 221.5 -118.5s86.5 -180.5 86.5 -304.5c0 -210 -70.333 -392.333 -211 -547c-100.667 -110.667 -221.667 -166 -363 -166c-58.667 0 -114.334 8.33301 -167.001 25h-197
v1086h197v-322zM394.001 138c44 -22 92.333 -33 145 -33c105.333 0 196 53.333 272 160s114 234 114 382c0 185.333 -58 278 -174 278c-54.667 0 -114 -33 -178 -99s-123.667 -156 -179 -270v-418z" />
    <glyph glyph-name="bhook" unicode="&#x253;" horiz-adv-x="1289" 
d="M197 -12v995.999c0 413.333 167 620 501 620c87.333 0 175.333 -14 264 -42v-173c-89.333 44.667 -181 67 -275 67c-105.333 0 -180.5 -39 -225.5 -117s-67.5 -208.667 -67.5 -392v-65c80.667 152 201.667 228 363 228c130.667 0 233.5 -47.667 308.5 -143
s112.5 -225.666 112.5 -390.999c0 -180 -42.5 -325.167 -127.5 -435.5s-196.833 -165.5 -335.5 -165.5c-128.667 0 -235.667 49.333 -321 148l-24 -135h-173zM394 258.999c101.333 -90.667 198.333 -136 291 -136c90 0 159.667 37.833 209 113.5s74 182.167 74 319.5
c0 254.667 -84.333 382 -253 382c-109.333 0 -216.333 -59.667 -321 -179v-500z" />
    <glyph glyph-name="cturn" unicode="&#x254;" horiz-adv-x="1049" 
d="M98 1053c127.333 38 237.331 57.001 329.998 57.001c146.667 0 268.334 -54.333 365.001 -163s145 -245.334 145 -410.001c0 -177.333 -47.833 -315.333 -143.5 -414s-229.5 -148 -401.5 -148c-84.667 0 -179.334 12 -284.001 36v165c112 -33.333 203 -50 273 -50
c100.667 0 181.334 37.833 242.001 113.5s91 176.5 91 302.5c0 122.667 -31.167 221.667 -93.5 297s-144.166 113 -245.499 113c-90 0 -182.667 -23 -278 -69v170z" />
    <glyph glyph-name="ccurl" unicode="&#x255;" horiz-adv-x="1141" 
d="M938 1078l-0.000976562 -165c-90.667 32.667 -182 49 -274 49c-107.333 0 -191.333 -35.167 -252 -105.5s-91 -167.5 -91 -291.5c0 -116 28.333 -211.333 85 -286c53.333 70.667 117.5 127.167 192.5 169.5s148.5 63.5 220.5 63.5c74.667 0 136.667 -22.167 186 -66.5
s74 -99.833 74 -166.5c0 -86 -37.167 -158.167 -111.5 -216.5s-166.833 -87.5 -277.5 -87.5c-96 0 -184.667 21.333 -266 64c-36 -78.667 -54 -157.334 -54 -236.001h-150c0 117.333 26.667 223.333 80 318c-126 108 -189 254.667 -189 440
c0 172.667 50.333 307.334 151 404.001s240.334 145 419.001 145c93.333 0 179 -10.667 257 -32zM515.999 182c61.333 -39.333 124.333 -58.999 189 -58.999c59.333 0 112 15.667 158 47s69 67.666 69 108.999c0 56.667 -38 85 -114 85c-98 0 -198.667 -60.667 -302 -182z
" />
    <glyph glyph-name="drthook" unicode="&#x256;" horiz-adv-x="1289" 
d="M894 827c-102 90 -198.667 135 -290 135c-90 0 -159.667 -37.667 -209 -113s-74 -182 -74 -320c0 -254 84 -381 252 -381c109.333 0 216.333 59.667 321 179v500zM894 204c-80 -152.667 -200.666 -228.999 -361.999 -228.999c-130.667 0 -233.5 47.667 -308.5 143
s-112.5 225.666 -112.5 390.999c0 180.667 42.5 326 127.5 436s196.833 165 335.5 165c128.667 0 235.334 -49.333 320.001 -148v617h198v-1634c0 -78.667 11.167 -134.5 33.5 -167.5s60.166 -49.5 113.499 -49.5c41.333 0 82.666 9 123.999 27v-154
c-49.333 -14 -98.333 -21 -147 -21c-101.333 0 -180.333 29 -237 87s-85 138.333 -85 241v296z" />
    <glyph glyph-name="dhook" unicode="&#x257;" horiz-adv-x="1289" 
d="M894 827c-102 90 -198.667 135 -290 135c-90 0 -159.667 -37.667 -209 -113s-74 -182 -74 -320c0 -254 84 -381 252 -381c109.333 0 216.333 59.667 321 179v500zM894 962l-0.000976562 314.001c0 103.333 28.333 183.833 85 241.5s135.667 86.5 237 86.5
c48.667 0 97.667 -7 147 -21v-154c-41.333 18 -83 27 -125 27c-52.667 0 -90.167 -16.5 -112.5 -49.5s-33.5 -88.833 -33.5 -167.5v-1239h-198v204c-80 -152.667 -200.667 -229 -362 -229c-130.667 0 -233.5 47.667 -308.5 143s-112.5 225.666 -112.5 390.999
c0 180.667 42.5 326 127.5 436s196.833 165 335.5 165c128.667 0 235.334 -49.333 320.001 -148z" />
    <glyph glyph-name="erev" unicode="&#x258;" horiz-adv-x="1141" 
d="M150 35l-0.000976562 155.999c118.667 -44 219.334 -66 302.001 -66c224 0 350 129 378 387h-685v61c0 172 35.667 304.667 107 398s173 140 305 140c138.667 0 252.334 -52.667 341.001 -158s133 -240.333 133 -405c0 -169.333 -50.333 -307.166 -151 -413.499
s-231.334 -159.5 -392.001 -159.5c-94 0 -206.667 20 -338 60zM820.999 659.999c-17.333 202 -101.333 303 -252 303c-151.333 0 -227 -101 -227 -303h479z" />
    <glyph glyph-name="schwa" unicode="&#x259;" horiz-adv-x="1141" 
d="M151 1050c131.333 40 243.999 60 337.999 60c160.667 0 291.334 -53 392.001 -159s151 -243.667 151 -413c0 -164.667 -44.333 -299.667 -133 -405s-202.667 -158 -342 -158c-131.333 0 -232.833 46.667 -304.5 140s-107.5 226 -107.5 398l1 61h685
c-28 258 -154.333 387 -379 387c-82 0 -182.333 -22 -301 -66v155zM821.999 426h-479c0 -202 75.667 -303 227 -303c150.667 0 234.667 101 252 303z" />
    <glyph glyph-name="schwahook" unicode="&#x25a;" horiz-adv-x="1616" 
d="M142 1051c142 39.333 253.003 59.001 333.003 59.001c132 0 239.667 -30.5 323 -91.5s149 -156.833 197 -287.5l393 105v-220c0 -83.333 8 -140 24 -170s46 -45 90 -45c29.333 0 63.333 11 102 33v-154c-60 -18 -105.667 -27 -137 -27c-151.333 0 -227 105 -227 315v75
l-217 -60l1 -50c0 -162.667 -43.833 -296.334 -131.5 -401.001s-199.834 -157 -336.501 -157c-128.667 0 -229.834 46.667 -303.501 140s-110.5 221 -110.5 383l666 180c-52 190 -173.333 285 -364 285c-80.667 0 -181.334 -22.667 -302.001 -68v156zM823.003 528.001
l-487 -132l5 -45c17.333 -152 91.333 -228 222 -228c173.333 0 260 135 260 405z" />
    <glyph glyph-name="epsilon1" unicode="&#x25b;" horiz-adv-x="975" 
d="M851 193v-159c-106 -39.333 -208 -59 -306 -59c-123.333 0 -226.5 31.667 -309.5 95s-124.5 142 -124.5 236c0 66 24.333 126.667 73 182s112 94 190 116c-134 68.667 -201 152 -201 250c0 80.667 34 143.5 102 188.5s163 67.5 285 67.5
c117.333 0 206.333 -11.667 267 -35v-148l-11 2c-83.333 22.667 -166.333 34 -249 34c-63.333 0 -114 -11.667 -152 -35s-57 -54.333 -57 -93c0 -58 30.833 -102.667 92.5 -134s149.167 -47 262.5 -47h27v-148h-140c-84.667 0 -154.5 -18.167 -209.5 -54.5
s-82.5 -82.833 -82.5 -139.5c0 -58 23.833 -104 71.5 -138s112.167 -51 193.5 -51c83.333 0 171 21.333 263 64z" />
    <glyph glyph-name="epsilon1rev" unicode="&#x25c;" horiz-adv-x="975" 
d="M123 193l14.999 -6c92 -42.667 180 -64 264 -64c80.667 0 144.834 16.833 192.501 50.5s71.5 79.167 71.5 136.5s-27.167 104.333 -81.5 141s-124.5 55 -210.5 55h-140v148h27c237.333 0 356 60.333 356 181c0 84.667 -71.333 127 -214 127c-80 0 -161.667 -11 -245 -33
l-10 -2v148c60 23.333 148.667 35 266 35c122 0 217.167 -22.5 285.5 -67.5s102.5 -107.833 102.5 -188.5c0 -98 -67.333 -181.333 -202 -250c78 -22 141.333 -60.667 190 -116s73 -116 73 -182c0 -94 -41.333 -172.667 -124 -236s-186 -95 -310 -95
c-97.333 0 -199.333 19.667 -306 59v159z" />
    <glyph glyph-name="epsilon1revhook" unicode="&#x25d;" horiz-adv-x="1366" 
d="M123 193l14.999 -6c92 -42.667 180 -64 264 -64c80.667 0 144.834 16.833 192.501 50.5s71.5 79.167 71.5 136.5s-27.167 104.333 -81.5 141s-124.5 55 -210.5 55h-140v148h27c237.333 0 356 60.333 356 181c0 84.667 -71.333 127 -214 127c-80 0 -161.667 -11 -245 -33
l-10 -2v148c60 23.333 149 35 267 35c150 0 259.667 -35 329 -105l393 105v-220c0 -83.333 8 -140 24 -170s46 -45 90 -45c29.333 0 63.333 11 102 33v-154c-59.333 -18 -105 -27 -137 -27c-151.333 0 -227 105 -227 315v76l-188 -53l1 -15
c0 -95.333 -67.333 -177.333 -202 -246c78 -22 141.333 -60.667 190 -116s73 -116 73 -182c0 -94 -41.333 -172.667 -124 -236s-186 -95 -310 -95c-97.333 0 -199.333 19.667 -306 59v159z" />
    <glyph glyph-name="epsilon1revclosed" unicode="&#x25e;" horiz-adv-x="1184" 
d="M880 581c137.333 -57.333 205.998 -144.667 205.998 -262c0 -102.667 -42 -185.667 -126 -249s-194 -95 -330 -95c-163.333 0 -290.666 48.333 -381.999 145s-137 231.334 -137 404.001c0 182.667 47.833 326 143.5 430s227.834 156 396.501 156
c130 0 232.833 -24.667 308.5 -74s113.5 -116.333 113.5 -201c0 -53.333 -17.667 -103.333 -53 -150s-82 -81.334 -140 -104.001zM492.998 492.999l0.000976562 149.002h102c96 0 170 14.333 222 43s78 69.667 78 123c0 45.333 -24.167 82.333 -72.5 111
s-110.5 43 -186.5 43c-115.333 0 -206 -38.833 -272 -116.5s-99 -183.834 -99 -318.501c0 -129.333 31.5 -229 94.5 -299s152.167 -105 267.5 -105c77.333 0 140.166 18.667 188.499 56s72.5 85.666 72.5 144.999c0 112.667 -96.333 169 -289 169h-106z" />
    <glyph glyph-name="jdotlessbar" unicode="&#x25f;" horiz-adv-x="808" 
d="M-73 -213c92 -38.667 162 -58 210 -58c54.667 0 97 14.667 127 44c20 20 32.5 42.667 37.5 68s7.5 78.333 7.5 159v543h-246v148h246v395h198v-395h247v-148h-247v-543c0 -279.333 -118 -419 -354 -419c-70 0 -145.333 16.667 -226 50v156z" />
    <glyph glyph-name="ghook" unicode="&#x260;" horiz-adv-x="1277" 
d="M1369 1583l0.00195312 -147.998c-35.333 14 -72.333 21 -111 21c-69.333 0 -114.333 -13.833 -135 -41.5s-31 -87.834 -31 -180.501v-938c0 -170 -8.83301 -295.833 -26.5 -377.5s-50.834 -148.5 -99.501 -200.5c-86 -91.333 -220.333 -137 -403 -137
c-125.333 0 -246 19.333 -362 58l23 171c114 -54 226.667 -81 338 -81c221.333 0 332 117.667 332 353v171c-34 -72 -82.5 -128 -145.5 -168s-133.167 -60 -210.5 -60c-131.333 0 -235.333 47.167 -312 141.5s-115 222.166 -115 383.499c0 165.333 43.667 300 131 404
s200.333 156 339 156c121.333 0 225.666 -49.333 312.999 -148v299c0 228.667 111.667 343 335 343c46 0 92.667 -7 140 -21zM894.002 376.002v451.001c-86.667 90 -181 135 -283 135c-90.667 0 -161.667 -36.333 -213 -109s-77 -173.334 -77 -302.001
c0 -236 83.667 -354 251 -354c114 0 221.333 59.667 322 179z" />
    <glyph glyph-name="gcursive" unicode="&#x261;" horiz-adv-x="1277" 
d="M201 -361l23.002 171.001c114 -54 226.667 -81 338 -81c221.333 0 332 117.667 332 353v171c-34 -72 -82.5 -128 -145.5 -168s-133.167 -60 -210.5 -60c-131.333 0 -235.333 47.167 -312 141.5s-115 222.166 -115 383.499c0 165.333 43.667 300 131 404
s200.333 156 339 156c121.333 0 225.666 -49.333 312.999 -148v124h198v-790c0 -170 -8.83301 -295.833 -26.5 -377.5s-50.834 -148.5 -99.501 -200.5c-86 -91.333 -220.333 -137 -403 -137c-125.333 0 -246 19.333 -362 58zM894.002 376.001v451.001
c-86.667 90 -181 135 -283 135c-90.667 0 -161.667 -36.333 -213 -109s-77 -173.334 -77 -302.001c0 -236 83.667 -354 251 -354c114 0 221.333 59.667 322 179z" />
    <glyph glyph-name="Gsmallcap" unicode="&#x262;" horiz-adv-x="1201" 
d="M1051 29c-142.667 -36 -264.997 -54.001 -366.997 -54.001c-184.667 0 -326.334 49 -425.001 147s-148 238.333 -148 421c0 180.667 50 320.334 150 419.001s241.333 148 424 148c114.667 0 236 -14.667 364 -44v-155c-150.667 34 -267.334 51 -350.001 51
c-122.667 0 -216.834 -36.667 -282.501 -110s-98.5 -178.666 -98.5 -315.999c0 -134.667 32.5 -238.834 97.5 -312.501s156.833 -110.5 275.5 -110.5c44 0 98 5 162 15v342h198v-441z" />
    <glyph glyph-name="gamma1" unicode="&#x263;" horiz-adv-x="1105" 
d="M668 357c106 -192.667 159 -347.996 159 -465.996c0 -89.333 -28.167 -163.333 -84.5 -222s-127.5 -88 -213.5 -88c-80 0 -144.833 25.5 -194.5 76.5s-74.5 117.5 -74.5 199.5c0 149.333 66 309.666 198 480.999c-90.667 201.333 -169.5 345.666 -236.5 432.999
s-140.833 141.666 -221.5 162.999l93 152c84.667 -18 164 -69.5 238 -154.5s153.667 -215.5 239 -391.5l19 -41c118 155.333 197.5 269.666 238.5 342.999s61.5 137 61.5 191c0 16 -3 33.667 -9 53h184c2.66699 -18 4 -32.333 4 -43c0 -60 -22.833 -130.167 -68.5 -210.5
s-140.5 -217.833 -284.5 -412.5zM542 219.004c-85.333 -110 -128 -221.666 -128 -334.999c0 -50.667 11.667 -91.334 35 -122.001s54 -46 92 -46c71.333 0 107 44 107 132c0 80 -35.333 203.667 -106 371z" />
    </font>
</defs>
</svg>
